Mazius Display-Extra Italic.ufo
<glyph name="exclam" format="2">
  <advance width="268"/>
  <unicode hex="0021"/>
  <outline>
    <contour>
      <point x="108" y="200" type="curve"/>
      <point x="128" y="200" type="line"/>
      <point x="178" y="376"/>
      <point x="252" y="497"/>
      <point x="310" y="700" type="curve"/>
      <point x="206" y="700" type="line"/>
      <point x="148" y="501"/>
      <point x="159" y="378"/>
    </contour>
    <component base="period" xOffset="8"/>
  </outline>
</glyph>
<glyph name="numbersign" format="2">
  <advance width="678"/>
  <unicode hex="0023"/>
  <outline>
    <contour>
      <point x="251" y="-88" type="line"/>
      <point x="281" y="-88" type="line"/>
      <point x="693" y="628" type="line"/>
      <point x="663" y="628" type="line"/>
    </contour>
    <contour>
      <point x="-2" y="126" type="line"/>
      <point x="586" y="126" type="line"/>
      <point x="590" y="150" type="line"/>
      <point x="2" y="150" type="line"/>
    </contour>
    <contour>
      <point x="-3" y="-88" type="line"/>
      <point x="27" y="-88" type="line"/>
      <point x="439" y="628" type="line"/>
      <point x="409" y="628" type="line"/>
    </contour>
    <contour>
      <point x="92" y="386" type="line"/>
      <point x="688" y="386" type="line"/>
      <point x="692" y="410" type="line"/>
      <point x="96" y="410" type="line"/>
    </contour>
  </outline>
</glyph>
<glyph name="dollar" format="2">
  <advance width="452"/>
  <unicode hex="0024"/>
  <outline>
    <contour>
      <point x="110" y="-106" type="line"/>
      <point x="133" y="-106" type="line"/>
      <point x="406" y="788" type="line"/>
      <point x="383" y="788" type="line"/>
    </contour>
    <component base="S"/>
  </outline>
</glyph>
<glyph name="percent" format="2">
  <advance width="608"/>
  <unicode hex="0025"/>
  <outline>
    <contour>
      <point x="221" y="409" type="curve"/>
      <point x="320" y="440"/>
      <point x="391" y="520"/>
      <point x="391" y="618" type="curve" smooth="yes"/>
      <point x="391" y="671"/>
      <point x="360" y="712"/>
      <point x="301" y="714" type="curve"/>
      <point x="206" y="685"/>
      <point x="132" y="601"/>
      <point x="132" y="508" type="curve" smooth="yes"/>
      <point x="132" y="454"/>
      <point x="165" y="409"/>
    </contour>
    <contour>
      <point x="237" y="425" type="curve"/>
      <point x="211" y="426"/>
      <point x="194" y="465"/>
      <point x="194" y="520" type="curve" smooth="yes"/>
      <point x="194" y="594"/>
      <point x="230" y="670"/>
      <point x="284" y="697" type="curve"/>
      <point x="310" y="697"/>
      <point x="327" y="659"/>
      <point x="327" y="607" type="curve" smooth="yes"/>
      <point x="327" y="526"/>
      <point x="288" y="450"/>
    </contour>
    <contour>
      <point x="58" y="-8" type="line"/>
      <point x="115" y="-8" type="line"/>
      <point x="605" y="708" type="line"/>
      <point x="548" y="708" type="line"/>
    </contour>
    <contour>
      <point x="379" y="-8" type="curve"/>
      <point x="478" y="23"/>
      <point x="549" y="103"/>
      <point x="549" y="201" type="curve" smooth="yes"/>
      <point x="549" y="254"/>
      <point x="518" y="295"/>
      <point x="459" y="297" type="curve"/>
      <point x="364" y="268"/>
      <point x="290" y="184"/>
      <point x="290" y="91" type="curve" smooth="yes"/>
      <point x="290" y="37"/>
      <point x="323" y="-8"/>
    </contour>
    <contour>
      <point x="395" y="8" type="curve"/>
      <point x="369" y="9"/>
      <point x="352" y="48"/>
      <point x="352" y="103" type="curve" smooth="yes"/>
      <point x="352" y="177"/>
      <point x="388" y="253"/>
      <point x="442" y="280" type="curve"/>
      <point x="468" y="280"/>
      <point x="485" y="242"/>
      <point x="485" y="190" type="curve" smooth="yes"/>
      <point x="485" y="109"/>
      <point x="446" y="33"/>
    </contour>
  </outline>
</glyph>
<glyph name="ampersand" format="2">
  <advance width="627"/>
  <unicode hex="0026"/>
  <outline>
    <contour>
      <point x="440" y="-16" type="line"/>
      <point x="510" y="12" type="line" name="_corner00"/>
      <point x="391" y="202"/>
      <point x="324" y="437"/>
      <point x="318" y="567" type="curve" smooth="yes"/>
      <point x="315" y="623"/>
      <point x="343" y="649"/>
      <point x="381" y="658" type="curve"/>
      <point x="494" y="606" type="line"/>
      <point x="523" y="610" type="line"/>
      <point x="557" y="670" type="line"/>
      <point x="542" y="691"/>
      <point x="486" y="714"/>
      <point x="449" y="714" type="curve"/>
      <point x="339" y="672"/>
      <point x="259" y="606"/>
      <point x="217" y="519" type="curve"/>
      <point x="217" y="366"/>
      <point x="287" y="177"/>
      <point x="384" y="2" type="curve"/>
    </contour>
    <contour>
      <point x="190" y="-14" type="curve"/>
      <point x="390" y="63"/>
      <point x="518" y="207"/>
      <point x="593" y="432" type="curve"/>
      <point x="571" y="468"/>
      <point x="540" y="496"/>
      <point x="508" y="508" type="curve"/>
      <point x="464" y="468" type="line"/>
      <point x="464" y="444" type="line"/>
      <point x="552" y="372" type="line"/>
      <point x="477" y="198"/>
      <point x="380" y="94"/>
      <point x="224" y="20" type="curve"/>
      <point x="154" y="26"/>
      <point x="101" y="93"/>
      <point x="101" y="176" type="curve" smooth="yes"/>
      <point x="101" y="256"/>
      <point x="150" y="331"/>
      <point x="264" y="420" type="curve"/>
      <point x="262" y="424" type="line"/>
      <point x="117" y="369"/>
      <point x="10" y="250"/>
      <point x="10" y="144" type="curve" smooth="yes"/>
      <point x="10" y="57"/>
      <point x="89" y="-12"/>
    </contour>
  </outline>
</glyph>
<glyph name="quotesingle" format="2">
  <advance width="184"/>
  <unicode hex="0027"/>
  <outline>
    <contour>
      <point x="190" y="560" type="line"/>
      <point x="202" y="560" type="line"/>
      <point x="280" y="744" type="line"/>
      <point x="263" y="760" type="line"/>
      <point x="180" y="732" type="line"/>
    </contour>
  </outline>
</glyph>
<glyph name="parenleft" format="2">
  <advance width="298"/>
  <unicode hex="0028"/>
  <outline>
    <contour>
      <point x="184" y="-252" type="curve"/>
      <point x="190" y="-248" type="line"/>
      <point x="146" y="-160"/>
      <point x="120" y="-17"/>
      <point x="120" y="112" type="curve" smooth="yes"/>
      <point x="120" y="366"/>
      <point x="230" y="613"/>
      <point x="402" y="744" type="curve"/>
      <point x="398" y="752" type="line"/>
      <point x="181" y="636"/>
      <point x="28" y="387"/>
      <point x="28" y="140" type="curve" smooth="yes"/>
      <point x="28" y="-28"/>
      <point x="96" y="-188"/>
    </contour>
  </outline>
</glyph>
<glyph name="parenright" format="2">
  <advance width="338"/>
  <unicode hex="0029"/>
  <outline>
    <contour>
      <point x="-64" y="-252" type="line"/>
      <point x="153" y="-136"/>
      <point x="306" y="117"/>
      <point x="306" y="364" type="curve" smooth="yes"/>
      <point x="306" y="532"/>
      <point x="238" y="688"/>
      <point x="150" y="752" type="curve"/>
      <point x="145" y="748" type="line"/>
      <point x="189" y="660"/>
      <point x="214" y="517"/>
      <point x="214" y="388" type="curve" smooth="yes"/>
      <point x="214" y="134"/>
      <point x="104" y="-113"/>
      <point x="-68" y="-244" type="curve"/>
    </contour>
  </outline>
</glyph>
<glyph name="asterisk" format="2">
  <advance width="336"/>
  <unicode hex="002A"/>
  <outline>
    <contour>
      <point x="125" y="480" type="line"/>
      <point x="268" y="568" type="line"/>
      <point x="422" y="629" type="line"/>
      <point x="428" y="653" type="line"/>
      <point x="407" y="670" type="line"/>
      <point x="265" y="576" type="line"/>
      <point x="109" y="524" type="line"/>
      <point x="105" y="496" type="line"/>
    </contour>
    <contour>
      <point x="225" y="418" type="line"/>
      <point x="250" y="429" type="line"/>
      <point x="271" y="572" type="line"/>
      <point x="335" y="724" type="line"/>
      <point x="316" y="737" type="line"/>
      <point x="288" y="726" type="line"/>
      <point x="264" y="572" type="line"/>
      <point x="203" y="430" type="line"/>
    </contour>
    <contour>
      <point x="355" y="482" type="line"/>
      <point x="379" y="495" type="line"/>
      <point x="389" y="522" type="line"/>
      <point x="273" y="576" type="line"/>
      <point x="175" y="668" type="line"/>
      <point x="148" y="653" type="line"/>
      <point x="143" y="630" type="line"/>
      <point x="266" y="568" type="line"/>
    </contour>
  </outline>
</glyph>
<glyph name="plus" format="2">
  <advance width="457"/>
  <unicode hex="002B"/>
  <outline>
    <contour>
      <point x="35" y="217" type="line"/>
      <point x="411" y="217" type="line"/>
      <point x="422" y="255" type="line"/>
      <point x="46" y="255" type="line"/>
    </contour>
    <contour>
      <point x="152" y="44" type="line"/>
      <point x="194" y="44" type="line"/>
      <point x="304" y="426" type="line"/>
      <point x="262" y="426" type="line"/>
    </contour>
  </outline>
</glyph>
<glyph name="comma" format="2">
  <advance width="224"/>
  <unicode hex="002C"/>
  <outline>
    <contour>
      <point x="-11" y="-117" type="line"/>
      <point x="65" y="-65"/>
      <point x="108" y="-6"/>
      <point x="132" y="94" type="curve"/>
      <point x="121" y="104" type="line"/>
      <point x="25" y="92" type="line"/>
      <point x="13" y="60"/>
      <point x="9" y="24"/>
      <point x="9" y="0" type="curve"/>
      <point x="76" y="-6" type="line"/>
      <point x="64" y="4" type="line"/>
      <point x="56" y="-36"/>
      <point x="26" y="-76"/>
      <point x="-18" y="-108" type="curve"/>
    </contour>
  </outline>
</glyph>
<glyph name="hyphen" format="2">
  <advance width="354"/>
  <unicode hex="002D"/>
  <outline>
    <contour>
      <point x="53" y="264" type="line"/>
      <point x="327" y="264" type="line"/>
      <point x="333" y="296" type="line"/>
      <point x="59" y="296" type="line"/>
    </contour>
  </outline>
</glyph>
<glyph name="period" format="2">
  <advance width="226"/>
  <unicode hex="002E"/>
  <outline>
    <contour>
      <point x="95" y="-8" type="line"/>
      <point x="136" y="98" type="line"/>
      <point x="126" y="106" type="line"/>
      <point x="25" y="94" type="line"/>
      <point x="15" y="62"/>
      <point x="9" y="22"/>
      <point x="9" y="-2" type="curve"/>
    </contour>
  </outline>
</glyph>
<glyph name="slash" format="2">
  <advance width="424"/>
  <unicode hex="002F"/>
  <outline>
    <contour>
      <point x="-196" y="-250" type="line"/>
      <point x="-164" y="-250" type="line"/>
      <point x="533" y="750" type="line"/>
      <point x="502" y="750" type="line"/>
    </contour>
  </outline>
</glyph>
<glyph name="zero" format="2">
  <advance width="526"/>
  <unicode hex="0030"/>
  <outline>
    <contour>
      <point x="176" y="-14" type="curve" smooth="yes"/>
      <point x="363" y="-14"/>
      <point x="515" y="163"/>
      <point x="515" y="332" type="curve" smooth="yes"/>
      <point x="515" y="430"/>
      <point x="446" y="494"/>
      <point x="341" y="494" type="curve" smooth="yes"/>
      <point x="160" y="494"/>
      <point x="11" y="305"/>
      <point x="11" y="155" type="curve" smooth="yes"/>
      <point x="11" y="64"/>
      <point x="77" y="-14"/>
    </contour>
    <contour>
      <point x="201" y="39" type="curve" smooth="yes"/>
      <point x="113" y="39"/>
      <point x="79" y="98"/>
      <point x="79" y="163" type="curve" smooth="yes"/>
      <point x="79" y="293"/>
      <point x="201" y="442"/>
      <point x="336" y="442" type="curve" smooth="yes"/>
      <point x="412" y="442"/>
      <point x="453" y="399"/>
      <point x="453" y="327" type="curve" smooth="yes"/>
      <point x="453" y="195"/>
      <point x="327" y="39"/>
    </contour>
  </outline>
</glyph>
<glyph name="two" format="2">
  <advance width="474"/>
  <unicode hex="0032"/>
  <outline>
    <contour>
      <point x="298" y="349" type="curve" smooth="yes"/>
      <point x="298" y="231"/>
      <point x="86" y="94"/>
      <point x="23" y="39" type="curve"/>
      <point x="10" y="12" type="line"/>
      <point x="150" y="98"/>
      <point x="415" y="257"/>
      <point x="415" y="376" type="curve" smooth="yes"/>
      <point x="415" y="427"/>
      <point x="380" y="484"/>
      <point x="283" y="484" type="curve"/>
      <point x="245" y="472"/>
      <point x="130" y="412"/>
      <point x="64" y="362" type="curve"/>
      <point x="71" y="350" type="line"/>
      <point x="120" y="382"/>
      <point x="181" y="423"/>
      <point x="230" y="423" type="curve" smooth="yes"/>
      <point x="276" y="423"/>
      <point x="298" y="394"/>
    </contour>
    <contour>
      <point x="23" y="39" type="line"/>
      <point x="-26" y="6" type="line"/>
      <point x="-27" y="0" type="line"/>
      <point x="320" y="0" type="line"/>
      <point x="422" y="117" type="line"/>
      <point x="413" y="124" type="line"/>
      <point x="368" y="79" type="line"/>
      <point x="71" y="50" type="line"/>
    </contour>
  </outline>
</glyph>
<glyph name="three" format="2">
  <advance width="463"/>
  <unicode hex="0033"/>
  <outline>
    <contour>
      <point x="78" y="-229" type="curve"/>
      <point x="165" y="-182"/>
      <point x="385" y="-102"/>
      <point x="385" y="82" type="curve" smooth="yes"/>
      <point x="385" y="169"/>
      <point x="313" y="234"/>
      <point x="184" y="221" type="curve"/>
      <point x="109" y="146" type="line"/>
      <point x="229" y="165"/>
      <point x="296" y="108"/>
      <point x="290" y="13" type="curve" smooth="yes"/>
      <point x="285" y="-74"/>
      <point x="216" y="-161"/>
      <point x="135" y="-161" type="curve" smooth="yes"/>
      <point x="67" y="-161"/>
      <point x="29" y="-104"/>
      <point x="37" y="-40" type="curve"/>
      <point x="26" y="-41" type="line"/>
      <point x="-50" y="-104" type="line"/>
      <point x="-60" y="-182"/>
      <point x="-17" y="-229"/>
    </contour>
    <contour>
      <point x="99" y="134" type="line"/>
      <point x="471" y="469" type="line"/>
      <point x="184" y="470" type="line"/>
      <point x="60" y="345" type="line"/>
      <point x="74" y="339" type="line"/>
      <point x="135" y="396" type="line"/>
      <point x="353" y="395" type="line"/>
      <point x="84" y="145" type="line"/>
    </contour>
  </outline>
</glyph>
<glyph name="four" format="2">
  <advance width="488"/>
  <unicode hex="0034"/>
  <outline>
    <contour>
      <point x="-71" y="-10" type="curve"/>
      <point x="204" y="-5" type="line"/>
      <point x="129" y="-244" type="line"/>
      <point x="231" y="-212" type="line"/>
      <point x="242" y="-199" type="line"/>
      <point x="304" y="-3" type="line"/>
      <point x="424" y="-1" type="line"/>
      <point x="430" y="18" type="line"/>
      <point x="310" y="16" type="line"/>
      <point x="350" y="144" type="line"/>
      <point x="340" y="150" type="line"/>
      <point x="253" y="134" type="line"/>
      <point x="211" y="14" type="line"/>
      <point x="39" y="11" type="line"/>
      <point x="488" y="484" type="line"/>
      <point x="477" y="487" type="line"/>
      <point x="359" y="487" type="line"/>
      <point x="271" y="363"/>
      <point x="91" y="147"/>
    </contour>
  </outline>
</glyph>
<glyph name="five" format="2">
  <advance width="440"/>
  <unicode hex="0035"/>
  <outline>
    <contour>
      <point x="59" y="-239" type="curve"/>
      <point x="147" y="-191"/>
      <point x="348" y="-107"/>
      <point x="348" y="69" type="curve" smooth="yes"/>
      <point x="348" y="175"/>
      <point x="253" y="229"/>
      <point x="122" y="219" type="curve"/>
      <point x="31" y="146" type="line"/>
      <point x="166" y="165"/>
      <point x="257" y="114"/>
      <point x="257" y="6" type="curve" smooth="yes"/>
      <point x="257" y="-70"/>
      <point x="212" y="-170"/>
      <point x="112" y="-170" type="curve" smooth="yes"/>
      <point x="50" y="-170"/>
      <point x="7" y="-115"/>
      <point x="7" y="-47" type="curve"/>
      <point x="-3" y="-48" type="line"/>
      <point x="-77" y="-111" type="line"/>
      <point x="-83" y="-186"/>
      <point x="-27" y="-246"/>
    </contour>
    <contour>
      <point x="26" y="145" type="line"/>
      <point x="47" y="148" type="line"/>
      <point x="52" y="160" type="line"/>
      <point x="157" y="391" type="line"/>
      <point x="364" y="389" type="line"/>
      <point x="441" y="466" type="line"/>
      <point x="440" y="470" type="line"/>
      <point x="154" y="470" type="line"/>
    </contour>
  </outline>
</glyph>
<glyph name="six" format="2">
  <advance width="540"/>
  <unicode hex="0036"/>
  <outline>
    <contour>
      <point x="182" y="-19" type="curve"/>
      <point x="282" y="4"/>
      <point x="507" y="135"/>
      <point x="507" y="330" type="curve" smooth="yes"/>
      <point x="507" y="411"/>
      <point x="464" y="462"/>
      <point x="391" y="452" type="curve"/>
      <point x="378" y="446"/>
      <point x="243" y="369"/>
      <point x="189" y="313" type="curve"/>
      <point x="197" y="305" type="line"/>
      <point x="266" y="373"/>
      <point x="306" y="380"/>
      <point x="321" y="380" type="curve" smooth="yes"/>
      <point x="378" y="380"/>
      <point x="402" y="327"/>
      <point x="401" y="255" type="curve" smooth="yes"/>
      <point x="399" y="159"/>
      <point x="331" y="29"/>
      <point x="243" y="29" type="curve" smooth="yes"/>
      <point x="182" y="29"/>
      <point x="144" y="108"/>
      <point x="147" y="195" type="curve" smooth="yes"/>
      <point x="155" y="424"/>
      <point x="451" y="701"/>
      <point x="617" y="751" type="curve"/>
      <point x="614" y="764" type="line"/>
      <point x="339" y="662"/>
      <point x="34" y="396"/>
      <point x="34" y="175" type="curve" smooth="yes"/>
      <point x="34" y="82"/>
      <point x="75" y="-2"/>
    </contour>
  </outline>
</glyph>
<glyph name="seven" format="2">
  <advance width="474"/>
  <unicode hex="0037"/>
  <outline>
    <contour>
      <point x="-53" y="-250" type="line"/>
      <point x="67" y="-250" type="line"/>
      <point x="514" y="470" type="line"/>
      <point x="175" y="470" type="line"/>
      <point x="34" y="312" type="line"/>
      <point x="50" y="302" type="line"/>
      <point x="126" y="386" type="line"/>
      <point x="438" y="385" type="line"/>
    </contour>
  </outline>
</glyph>
<glyph name="eight" format="2">
  <advance width="508"/>
  <unicode hex="0038"/>
  <outline>
    <contour>
      <point x="184" y="-13" type="curve"/>
      <point x="296" y="21"/>
      <point x="455" y="77"/>
      <point x="455" y="214" type="curve" smooth="yes"/>
      <point x="455" y="287"/>
      <point x="396" y="332"/>
      <point x="341" y="380" type="curve"/>
      <point x="410" y="403"/>
      <point x="549" y="486"/>
      <point x="549" y="594" type="curve" smooth="yes"/>
      <point x="549" y="655"/>
      <point x="491" y="712"/>
      <point x="399" y="712" type="curve"/>
      <point x="310" y="697"/>
      <point x="148" y="634"/>
      <point x="149" y="489" type="curve" smooth="yes"/>
      <point x="149" y="434"/>
      <point x="183" y="393"/>
      <point x="223" y="355" type="curve"/>
      <point x="155" y="321"/>
      <point x="-1" y="233"/>
      <point x="-1" y="116" type="curve" smooth="yes"/>
      <point x="-1" y="42"/>
      <point x="73" y="-13"/>
    </contour>
    <contour>
      <point x="96" y="125" type="curve" smooth="yes"/>
      <point x="96" y="222"/>
      <point x="168" y="298"/>
      <point x="236" y="343" type="curve"/>
      <point x="291" y="292"/>
      <point x="353" y="246"/>
      <point x="353" y="178" type="curve" smooth="yes"/>
      <point x="353" y="95"/>
      <point x="260" y="13"/>
      <point x="197" y="13" type="curve" smooth="yes"/>
      <point x="121" y="13"/>
      <point x="96" y="65"/>
    </contour>
    <contour>
      <point x="247" y="531" type="curve" smooth="yes"/>
      <point x="247" y="624"/>
      <point x="328" y="689"/>
      <point x="392" y="689" type="curve" smooth="yes"/>
      <point x="442" y="689"/>
      <point x="460" y="649"/>
      <point x="460" y="607" type="curve" smooth="yes"/>
      <point x="460" y="507"/>
      <point x="385" y="426"/>
      <point x="328" y="391" type="curve"/>
      <point x="285" y="429"/>
      <point x="247" y="471"/>
    </contour>
  </outline>
</glyph>
<glyph name="nine" format="2">
  <advance width="502"/>
  <unicode hex="0039"/>
  <outline>
    <contour>
      <point x="-82" y="-302" type="line"/>
      <point x="148" y="-216"/>
      <point x="470" y="27"/>
      <point x="470" y="302" type="curve" smooth="yes"/>
      <point x="470" y="401"/>
      <point x="432" y="473"/>
      <point x="336" y="481" type="curve"/>
      <point x="270" y="466"/>
      <point x="31" y="367"/>
      <point x="18" y="159" type="curve" smooth="yes"/>
      <point x="14" y="95"/>
      <point x="50" y="-3"/>
      <point x="148" y="10" type="curve"/>
      <point x="160" y="16"/>
      <point x="282" y="93"/>
      <point x="335" y="149" type="curve"/>
      <point x="327" y="157" type="line"/>
      <point x="259" y="89"/>
      <point x="219" y="82"/>
      <point x="193" y="82" type="curve" smooth="yes"/>
      <point x="138" y="82"/>
      <point x="122" y="145"/>
      <point x="122" y="197" type="curve" smooth="yes"/>
      <point x="122" y="303"/>
      <point x="191" y="433"/>
      <point x="279" y="433" type="curve" smooth="yes"/>
      <point x="347" y="433"/>
      <point x="372" y="364"/>
      <point x="370" y="277" type="curve" smooth="yes"/>
      <point x="364" y="28"/>
      <point x="80" y="-249"/>
      <point x="-85" y="-289" type="curve"/>
    </contour>
  </outline>
</glyph>
<glyph name="greater" format="2">
  <advance width="444"/>
  <unicode hex="003E"/>
  <outline>
    <contour>
      <point x="57" y="126" type="line"/>
      <point x="69" y="94" type="line"/>
      <point x="391" y="226" type="line"/>
      <point x="396" y="242" type="line"/>
      <point x="112" y="399" type="line"/>
      <point x="92" y="372" type="line"/>
      <point x="338" y="239" type="line"/>
    </contour>
  </outline>
</glyph>
<glyph name="question" format="2">
  <advance width="424"/>
  <unicode hex="003F"/>
  <outline>
    <contour>
      <point x="172" y="200" type="line"/>
      <point x="188" y="200" type="line"/>
      <point x="252" y="348" type="line"/>
      <point x="376" y="385"/>
      <point x="456" y="464"/>
      <point x="456" y="558" type="curve" smooth="yes"/>
      <point x="456" y="649"/>
      <point x="386" y="714"/>
      <point x="288" y="714" type="curve"/>
      <point x="108" y="594" type="line"/>
      <point x="116" y="580" type="line"/>
      <point x="160" y="608"/>
      <point x="198" y="632"/>
      <point x="246" y="656" type="curve"/>
      <point x="315" y="656"/>
      <point x="360" y="606"/>
      <point x="360" y="528" type="curve" smooth="yes"/>
      <point x="360" y="440"/>
      <point x="296" y="369"/>
      <point x="192" y="336" type="curve"/>
    </contour>
    <component base="period" xOffset="86"/>
  </outline>
</glyph>
<glyph name="at" format="2">
  <advance width="805"/>
  <unicode hex="0040"/>
  <outline>
    <contour>
      <point x="316" y="-209" type="curve"/>
      <point x="456" y="-136"/>
      <point x="548" y="-69"/>
      <point x="605" y="-8" type="curve"/>
      <point x="598" y="-3" type="line"/>
      <point x="528" y="-61"/>
      <point x="451" y="-109"/>
      <point x="353" y="-144" type="curve"/>
      <point x="172" y="-144"/>
      <point x="98" y="-9"/>
      <point x="98" y="155" type="curve" smooth="yes"/>
      <point x="98" y="393"/>
      <point x="331" y="621"/>
      <point x="530" y="653" type="curve"/>
      <point x="633" y="633"/>
      <point x="723" y="541"/>
      <point x="723" y="383" type="curve" smooth="yes"/>
      <point x="723" y="247"/>
      <point x="658" y="120"/>
      <point x="502" y="24" type="curve"/>
      <point x="623" y="448" type="line"/>
      <point x="585" y="467"/>
      <point x="521" y="484"/>
      <point x="487" y="484" type="curve"/>
      <point x="328" y="432"/>
      <point x="199" y="273"/>
      <point x="199" y="128" type="curve" smooth="yes"/>
      <point x="199" y="55"/>
      <point x="231" y="1"/>
      <point x="283" y="-14" type="curve"/>
      <point x="344" y="30"/>
      <point x="395" y="117"/>
      <point x="519" y="395" type="curve"/>
      <point x="523" y="395" type="line"/>
      <point x="411" y="12" type="line"/>
      <point x="473" y="-18" type="line"/>
      <point x="693" y="117"/>
      <point x="811" y="271"/>
      <point x="811" y="424" type="curve" smooth="yes"/>
      <point x="811" y="573"/>
      <point x="724" y="694"/>
      <point x="557" y="694" type="curve"/>
      <point x="244" y="595"/>
      <point x="15" y="361"/>
      <point x="15" y="109" type="curve" smooth="yes"/>
      <point x="15" y="-72"/>
      <point x="118" y="-209"/>
    </contour>
    <contour>
      <point x="324" y="64" type="curve"/>
      <point x="300" y="71"/>
      <point x="289" y="107"/>
      <point x="289" y="180" type="curve" smooth="yes"/>
      <point x="289" y="304"/>
      <point x="344" y="404"/>
      <point x="432" y="441" type="curve"/>
      <point x="462" y="441"/>
      <point x="480" y="436"/>
      <point x="514" y="416" type="curve"/>
      <point x="442" y="238"/>
      <point x="365" y="97"/>
    </contour>
  </outline>
</glyph>
<glyph name="A" format="2">
  <advance width="625"/>
  <unicode hex="0041"/>
  <anchor x="470" y="0" name="ogonek"/>
  <anchor x="556" y="700" name="top"/>
  <outline>
    <contour>
      <point x="448" y="-16" type="line"/>
      <point x="470" y="0" type="line" name="_corner00"/>
      <point x="647" y="688" type="line"/>
      <point x="631" y="700" type="line"/>
      <point x="556" y="700" type="line" name="_corner01"/>
      <point x="-28" y="0" type="line" name="_corner02"/>
      <point x="2" y="0" type="line" name="_corner03"/>
      <point x="533" y="638" type="line"/>
      <point x="537" y="638" type="line"/>
      <point x="377" y="16" type="line"/>
    </contour>
    <contour>
      <point x="179" y="244" type="curve" smooth="yes"/>
      <point x="455" y="244" type="line"/>
      <point x="459" y="262" type="line"/>
      <point x="191" y="262" type="line"/>
      <point x="91" y="352" type="line"/>
      <point x="67" y="348" type="line"/>
      <point x="31" y="296" type="line"/>
      <point x="79" y="260"/>
      <point x="131" y="244"/>
    </contour>
  </outline>
</glyph>
<glyph name="B" format="2">
  <advance width="596"/>
  <unicode hex="0042"/>
  <outline>
    <contour>
      <point x="38" y="0" type="line" name="_corner01"/>
      <point x="304" y="0" type="line"/>
      <point x="456" y="36"/>
      <point x="560" y="108"/>
      <point x="560" y="220" type="curve" smooth="yes"/>
      <point x="560" y="312"/>
      <point x="488" y="372"/>
      <point x="376" y="372" type="curve"/>
      <point x="376" y="376" type="line"/>
      <point x="516" y="404"/>
      <point x="588" y="480"/>
      <point x="588" y="564" type="curve" smooth="yes"/>
      <point x="588" y="644"/>
      <point x="527" y="700"/>
      <point x="440" y="700" type="curve" smooth="yes"/>
      <point x="238" y="700" type="line" name="_corner00"/>
    </contour>
    <contour>
      <point x="136" y="0" type="line"/>
      <point x="336" y="700" type="line"/>
      <point x="308" y="672" type="line"/>
      <point x="328" y="678"/>
      <point x="356" y="684"/>
      <point x="380" y="684" type="curve" smooth="yes"/>
      <point x="446" y="684"/>
      <point x="488" y="634"/>
      <point x="488" y="556" type="curve" smooth="yes"/>
      <point x="488" y="472"/>
      <point x="430" y="401"/>
      <point x="340" y="376" type="curve"/>
      <point x="304" y="376"/>
      <point x="258" y="380"/>
      <point x="226" y="386" type="curve"/>
      <point x="218" y="356" type="line"/>
      <point x="258" y="359"/>
      <point x="290" y="360"/>
      <point x="336" y="360" type="curve" smooth="yes"/>
      <point x="412" y="360"/>
      <point x="456" y="301"/>
      <point x="456" y="208" type="curve" smooth="yes"/>
      <point x="456" y="112"/>
      <point x="408" y="44"/>
      <point x="324" y="20" type="curve"/>
      <point x="256" y="20"/>
      <point x="182" y="36"/>
      <point x="133" y="60" type="curve"/>
    </contour>
  </outline>
</glyph>
<glyph name="C" format="2">
  <advance width="568"/>
  <unicode hex="0043"/>
  <anchor x="252" y="0" name="bottom"/>
  <anchor x="432" y="700" name="top"/>
  <outline>
    <contour>
      <point x="298" y="-14" type="curve"/>
      <point x="532" y="144" type="line"/>
      <point x="522" y="159" type="line"/>
      <point x="466" y="119"/>
      <point x="410" y="80"/>
      <point x="346" y="48" type="curve"/>
      <point x="234" y="48"/>
      <point x="154" y="131"/>
      <point x="154" y="272" type="curve" smooth="yes"/>
      <point x="154" y="464"/>
      <point x="258" y="630"/>
      <point x="414" y="696" type="curve"/>
      <point x="494" y="672"/>
      <point x="548" y="588"/>
      <point x="556" y="460" type="curve"/>
      <point x="568" y="460" type="line"/>
      <point x="610" y="640" type="line"/>
      <point x="558" y="688"/>
      <point x="492" y="714"/>
      <point x="418" y="714" type="curve"/>
      <point x="178" y="630"/>
      <point x="50" y="412"/>
      <point x="50" y="216" type="curve" smooth="yes"/>
      <point x="50" y="80"/>
      <point x="142" y="-14"/>
    </contour>
  </outline>
</glyph>
<glyph name="D" format="2">
  <advance width="656"/>
  <unicode hex="0044"/>
  <anchor x="436" y="700" name="top"/>
  <outline>
    <contour>
      <point x="38" y="0" type="line" name="_corner01"/>
      <point x="292" y="0" type="line"/>
      <point x="512" y="64"/>
      <point x="664" y="248"/>
      <point x="664" y="440" type="curve" smooth="yes"/>
      <point x="664" y="598"/>
      <point x="564" y="700"/>
      <point x="408" y="700" type="curve" smooth="yes"/>
      <point x="238" y="700" type="line" name="_corner00"/>
    </contour>
    <contour>
      <point x="136" y="0" type="line"/>
      <point x="336" y="700" type="line"/>
      <point x="309" y="674" type="line"/>
      <point x="337" y="679"/>
      <point x="370" y="682"/>
      <point x="400" y="682" type="curve"/>
      <point x="497" y="682"/>
      <point x="558" y="589"/>
      <point x="558" y="444" type="curve" smooth="yes"/>
      <point x="558" y="259"/>
      <point x="456" y="84"/>
      <point x="308" y="20" type="curve"/>
      <point x="240" y="20"/>
      <point x="181" y="32"/>
      <point x="132" y="56" type="curve"/>
    </contour>
  </outline>
</glyph>
<glyph name="E" format="2">
  <advance width="540"/>
  <unicode hex="0045"/>
  <anchor x="292" y="0" name="ogonek"/>
  <anchor x="412" y="700" name="top"/>
  <outline>
    <contour>
      <point x="272" y="-14" type="curve"/>
      <point x="504" y="144" type="line"/>
      <point x="494" y="159" type="line"/>
      <point x="438" y="119"/>
      <point x="380" y="80"/>
      <point x="316" y="48" type="curve"/>
      <point x="204" y="48"/>
      <point x="134" y="100"/>
      <point x="134" y="188" type="curve" smooth="yes"/>
      <point x="134" y="276"/>
      <point x="188" y="356"/>
      <point x="292" y="392" type="curve"/>
      <point x="280" y="408" type="line"/>
      <point x="112" y="352"/>
      <point x="28" y="260"/>
      <point x="28" y="152" type="curve" smooth="yes"/>
      <point x="28" y="49"/>
      <point x="124" y="-14"/>
    </contour>
    <contour>
      <point x="398" y="368" type="curve"/>
      <point x="400" y="380" type="line"/>
      <point x="304" y="412"/>
      <point x="248" y="476"/>
      <point x="248" y="552" type="curve" smooth="yes"/>
      <point x="248" y="619"/>
      <point x="292" y="675"/>
      <point x="360" y="696" type="curve"/>
      <point x="440" y="672"/>
      <point x="492" y="600"/>
      <point x="508" y="476" type="curve"/>
      <point x="520" y="476" type="line"/>
      <point x="556" y="640" type="line"/>
      <point x="507" y="685"/>
      <point x="432" y="714"/>
      <point x="364" y="714" type="curve"/>
      <point x="232" y="690"/>
      <point x="148" y="624"/>
      <point x="148" y="536" type="curve" smooth="yes"/>
      <point x="148" y="444"/>
      <point x="242" y="380"/>
    </contour>
  </outline>
</glyph>
<glyph name="F" format="2">
  <advance width="532"/>
  <unicode hex="0046"/>
  <outline>
    <contour>
      <point x="38" y="0" type="line" name="_corner02"/>
      <point x="136" y="0" type="line" name="_corner00"/>
      <point x="336" y="700" type="line"/>
      <point x="238" y="700" type="line" name="_corner01"/>
    </contour>
    <contour>
      <point x="386" y="191" type="line"/>
      <point x="398" y="191" type="line"/>
      <point x="467" y="455" type="line"/>
      <point x="455" y="455" type="line"/>
      <point x="374" y="345" type="line"/>
      <point x="214" y="345" type="line"/>
      <point x="210" y="327" type="line"/>
      <point x="370" y="327" type="line"/>
    </contour>
    <contour>
      <point x="588" y="498" type="line"/>
      <point x="600" y="498" type="line"/>
      <point x="644" y="700" type="line"/>
      <point x="316" y="700" type="line"/>
      <point x="312" y="682" type="line"/>
      <point x="550" y="682" type="line"/>
    </contour>
  </outline>
</glyph>
<glyph name="G" format="2">
  <advance width="588"/>
  <unicode hex="0047"/>
  <anchor x="242" y="0" name="bottom"/>
  <anchor x="436" y="700" name="top"/>
  <outline>
    <contour>
      <point x="294" y="-14" type="curve"/>
      <point x="520" y="148" type="line"/>
      <point x="512" y="164" type="line"/>
      <point x="456" y="120"/>
      <point x="398" y="82"/>
      <point x="338" y="46" type="curve"/>
      <point x="230" y="46"/>
      <point x="154" y="132"/>
      <point x="154" y="272" type="curve" smooth="yes"/>
      <point x="154" y="464"/>
      <point x="258" y="630"/>
      <point x="414" y="696" type="curve"/>
      <point x="494" y="672"/>
      <point x="548" y="588"/>
      <point x="556" y="460" type="curve"/>
      <point x="568" y="460" type="line"/>
      <point x="610" y="640" type="line"/>
      <point x="558" y="688"/>
      <point x="492" y="714"/>
      <point x="418" y="714" type="curve"/>
      <point x="178" y="630"/>
      <point x="50" y="412"/>
      <point x="50" y="220" type="curve" smooth="yes"/>
      <point x="50" y="72"/>
      <point x="150" y="-14"/>
    </contour>
    <contour>
      <point x="210" y="-266" type="curve"/>
      <point x="318" y="-222"/>
      <point x="402" y="-140"/>
      <point x="470" y="-32" type="curve"/>
      <point x="566" y="312" type="line"/>
      <point x="474" y="312" type="line" name="_corner00"/>
      <point x="354" y="-116" type="line" smooth="yes"/>
      <point x="341" y="-161"/>
      <point x="308" y="-202"/>
      <point x="272" y="-220" type="curve"/>
      <point x="140" y="-144" type="line"/>
      <point x="112" y="-148" type="line"/>
      <point x="76" y="-212" type="line"/>
      <point x="120" y="-248"/>
      <point x="174" y="-266"/>
    </contour>
  </outline>
</glyph>
<glyph name="H" format="2">
  <advance width="684"/>
  <unicode hex="0048"/>
  <outline>
    <contour>
      <point x="218" y="355" type="line"/>
      <point x="539" y="355" type="line"/>
      <point x="544" y="373" type="line"/>
      <point x="223" y="373" type="line"/>
    </contour>
    <component base="I" xOffset="-4"/>
    <component base="I" xOffset="376"/>
  </outline>
</glyph>
<glyph name="J" format="2">
  <advance width="320"/>
  <unicode hex="004A"/>
  <outline>
    <contour>
      <point x="-132" y="-264" type="curve"/>
      <point x="-32" y="-220"/>
      <point x="64" y="-144"/>
      <point x="128" y="-40" type="curve"/>
      <point x="340" y="700" type="line" name="_corner00"/>
      <point x="242" y="700" type="line" name="_corner01"/>
      <point x="8" y="-116" type="line" smooth="yes"/>
      <point x="-5" y="-161"/>
      <point x="-36" y="-202"/>
      <point x="-72" y="-220" type="curve"/>
      <point x="-199" y="-140" type="line"/>
      <point x="-228" y="-144" type="line"/>
      <point x="-269" y="-212" type="line"/>
      <point x="-225" y="-248"/>
      <point x="-168" y="-264"/>
    </contour>
  </outline>
</glyph>
<glyph name="K" format="2">
  <advance width="612"/>
  <unicode hex="004B"/>
  <anchor x="284" y="0" name="bottom"/>
  <outline>
    <contour>
      <point x="118" y="-4" type="line"/>
      <point x="242" y="232"/>
      <point x="321" y="408"/>
      <point x="425" y="528" type="curve"/>
      <point x="491" y="580"/>
      <point x="603" y="620"/>
      <point x="673" y="636" type="curve"/>
      <point x="677" y="668" type="line"/>
      <point x="577" y="716" type="line"/>
      <point x="469" y="700"/>
      <point x="303" y="400"/>
      <point x="131" y="48" type="curve"/>
      <point x="127" y="48" type="line"/>
      <point x="313" y="688" type="line"/>
      <point x="297" y="700" type="line"/>
      <point x="218" y="700" type="line" name="_corner00"/>
      <point x="18" y="2" type="line"/>
    </contour>
    <contour>
      <point x="467" y="-16" type="line"/>
      <point x="513" y="12" type="line" name="_corner01"/>
      <point x="388" y="380" type="line"/>
      <point x="310" y="356" type="line"/>
      <point x="308" y="364" type="line"/>
      <point x="296" y="360" type="line"/>
      <point x="412" y="2" type="line"/>
    </contour>
  </outline>
</glyph>
<glyph name="L" format="2">
  <advance width="560"/>
  <unicode hex="004C"/>
  <anchor x="268" y="0" name="bottom"/>
  <anchor x="320" y="700" name="top"/>
  <anchor x="360" y="470" name="topright"/>
  <outline>
    <contour>
      <point x="38" y="0" type="line" name="_corner02"/>
      <point x="136" y="0" type="line"/>
      <point x="336" y="700" type="line" name="_corner00"/>
      <point x="238" y="700" type="line" name="_corner01"/>
    </contour>
    <contour>
      <point x="116" y="0" type="line"/>
      <point x="464" y="0" type="line"/>
      <point x="516" y="188" type="line"/>
      <point x="504" y="188" type="line"/>
      <point x="380" y="20" type="line"/>
      <point x="122" y="20" type="line"/>
    </contour>
  </outline>
</glyph>
<glyph name="M" format="2">
  <advance width="838"/>
  <unicode hex="004D"/>
  <outline>
    <contour>
      <point x="30" y="0" type="line" name="_corner02"/>
      <point x="54" y="0" type="line" name="_corner00"/>
      <point x="246" y="676" type="line"/>
      <point x="250" y="676" type="line"/>
      <point x="296" y="0" type="line"/>
      <point x="330" y="0" type="line"/>
      <point x="762" y="678" type="line"/>
      <point x="766" y="678" type="line"/>
      <point x="572" y="0" type="line" name="_corner05"/>
      <point x="670" y="0" type="line" name="_corner03"/>
      <point x="870" y="700" type="line" name="_corner04"/>
      <point x="750" y="700" type="line"/>
      <point x="388" y="132" type="line"/>
      <point x="384" y="132" type="line"/>
      <point x="344" y="700" type="line"/>
      <point x="230" y="700" type="line" name="_corner01"/>
    </contour>
  </outline>
</glyph>
<glyph name="N" format="2">
  <advance width="644"/>
  <unicode hex="004E"/>
  <anchor x="260" y="0" name="bottom"/>
  <anchor x="452" y="700" name="top"/>
  <outline>
    <contour>
      <point x="30" y="0" type="line" name="_corner03"/>
      <point x="54" y="0" type="line" name="_corner04"/>
      <point x="244" y="668" type="line"/>
      <point x="248" y="668" type="line"/>
      <point x="430" y="0" type="line"/>
      <point x="482" y="0" type="line"/>
      <point x="682" y="700" type="line" name="_corner00"/>
      <point x="658" y="700" type="line" name="_corner01"/>
      <point x="498" y="136" type="line"/>
      <point x="494" y="136" type="line"/>
      <point x="340" y="700" type="line"/>
      <point x="230" y="700" type="line" name="_corner02"/>
    </contour>
  </outline>
</glyph>
<glyph name="O" format="2">
  <advance width="644"/>
  <unicode hex="004F"/>
  <anchor x="416" y="700" name="top"/>
  <outline>
    <contour>
      <point x="286" y="-14" type="curve"/>
      <point x="518" y="66"/>
      <point x="660" y="284"/>
      <point x="660" y="476" type="curve" smooth="yes"/>
      <point x="660" y="621"/>
      <point x="566" y="714"/>
      <point x="424" y="714" type="curve"/>
      <point x="184" y="634"/>
      <point x="51" y="420"/>
      <point x="51" y="220" type="curve" smooth="yes"/>
      <point x="51" y="80"/>
      <point x="144" y="-14"/>
    </contour>
    <contour>
      <point x="308" y="6" type="curve"/>
      <point x="215" y="6"/>
      <point x="157" y="109"/>
      <point x="157" y="264" type="curve" smooth="yes"/>
      <point x="157" y="462"/>
      <point x="254" y="626"/>
      <point x="406" y="694" type="curve"/>
      <point x="496" y="694"/>
      <point x="553" y="596"/>
      <point x="553" y="440" type="curve" smooth="yes"/>
      <point x="553" y="242"/>
      <point x="460" y="74"/>
    </contour>
  </outline>
</glyph>
<glyph name="P" format="2">
  <advance width="544"/>
  <unicode hex="0050"/>
  <outline>
    <contour>
      <point x="38" y="0" type="line" name="_corner02"/>
      <point x="136" y="0" type="line" name="_corner00"/>
      <point x="336" y="700" type="line"/>
      <point x="308" y="674" type="line"/>
      <point x="334" y="679"/>
      <point x="367" y="682"/>
      <point x="392" y="682" type="curve" smooth="yes"/>
      <point x="468" y="682"/>
      <point x="516" y="618"/>
      <point x="516" y="524" type="curve" smooth="yes"/>
      <point x="516" y="428"/>
      <point x="466" y="347"/>
      <point x="388" y="320" type="curve"/>
      <point x="330" y="320"/>
      <point x="261" y="328"/>
      <point x="213" y="340" type="curve"/>
      <point x="202" y="300" type="line"/>
      <point x="360" y="300" type="line"/>
      <point x="516" y="332"/>
      <point x="620" y="420"/>
      <point x="620" y="540" type="curve" smooth="yes"/>
      <point x="620" y="636"/>
      <point x="552" y="700"/>
      <point x="452" y="700" type="curve" smooth="yes"/>
      <point x="238" y="700" type="line" name="_corner01"/>
    </contour>
  </outline>
</glyph>
<glyph name="Q" format="2">
  <advance width="644"/>
  <unicode hex="0051"/>
  <outline>
    <contour>
      <point x="-52" y="-148" type="line"/>
      <point x="322" y="0" type="line"/>
      <point x="280" y="0" type="line"/>
      <point x="-60" y="-132" type="line"/>
    </contour>
    <contour>
      <point x="330" y="-266" type="line"/>
      <point x="352" y="-250" type="line" name="_corner00"/>
      <point x="376" y="-208" type="line"/>
      <point x="319" y="-138"/>
      <point x="229" y="-83"/>
      <point x="144" y="-60" type="curve"/>
      <point x="16" y="-112" type="line"/>
    </contour>
    <component base="O"/>
  </outline>
</glyph>
<glyph name="R" format="2">
  <advance width="624"/>
  <unicode hex="0052"/>
  <anchor x="300" y="0" name="bottom"/>
  <anchor x="420" y="700" name="top"/>
  <outline>
    <contour>
      <point x="470" y="-16" type="line"/>
      <point x="517" y="12" type="line" name="_corner03"/>
      <point x="416" y="300" type="line"/>
      <point x="324" y="320" type="line"/>
      <point x="324" y="324" type="line"/>
      <point x="364" y="324" type="line"/>
      <point x="532" y="356"/>
      <point x="624" y="440"/>
      <point x="624" y="548" type="curve" smooth="yes"/>
      <point x="624" y="640"/>
      <point x="556" y="700"/>
      <point x="456" y="700" type="curve" smooth="yes"/>
      <point x="242" y="700" type="line" name="_corner01"/>
      <point x="42" y="0" type="line" name="_corner02"/>
      <point x="140" y="0" type="line" name="_corner00"/>
      <point x="340" y="700" type="line"/>
      <point x="313" y="674" type="line"/>
      <point x="341" y="679"/>
      <point x="367" y="682"/>
      <point x="396" y="682" type="curve" smooth="yes"/>
      <point x="472" y="682"/>
      <point x="520" y="625"/>
      <point x="520" y="536" type="curve" smooth="yes"/>
      <point x="520" y="447"/>
      <point x="470" y="368"/>
      <point x="392" y="341" type="curve"/>
      <point x="335" y="341"/>
      <point x="286" y="344"/>
      <point x="222" y="356" type="curve"/>
      <point x="213" y="321" type="line"/>
      <point x="316" y="321" type="line"/>
      <point x="304" y="328" type="line"/>
      <point x="416" y="2" type="line"/>
    </contour>
  </outline>
</glyph>
<glyph name="S" format="2">
  <advance width="452"/>
  <unicode hex="0053"/>
  <anchor x="168" y="0" name="bottom"/>
  <anchor x="364" y="700" name="top"/>
  <outline>
    <contour>
      <point x="114" y="-14" type="curve"/>
      <point x="267" y="21"/>
      <point x="414" y="116"/>
      <point x="414" y="220" type="curve" smooth="yes"/>
      <point x="414" y="364"/>
      <point x="160" y="432"/>
      <point x="160" y="564" type="curve"/>
      <point x="188" y="608"/>
      <point x="228" y="640"/>
      <point x="276" y="656" type="curve"/>
      <point x="456" y="600" type="line"/>
      <point x="486" y="608" type="line"/>
      <point x="504" y="680" type="line"/>
      <point x="476" y="700"/>
      <point x="418" y="714"/>
      <point x="378" y="714" type="curve"/>
      <point x="218" y="682"/>
      <point x="114" y="584"/>
      <point x="114" y="484" type="curve" smooth="yes"/>
      <point x="114" y="344"/>
      <point x="356" y="272"/>
      <point x="356" y="144" type="curve"/>
      <point x="334" y="103"/>
      <point x="249" y="45"/>
      <point x="192" y="36" type="curve"/>
      <point x="36" y="120" type="line"/>
      <point x="4" y="116" type="line"/>
      <point x="-28" y="52" type="line"/>
      <point x="6" y="12"/>
      <point x="62" y="-14"/>
    </contour>
  </outline>
</glyph>
<glyph name="T" format="2">
  <advance width="563"/>
  <unicode hex="0054"/>
  <anchor x="216" y="0" name="bottom"/>
  <anchor x="416" y="700" name="top"/>
  <outline>
    <contour>
      <point x="168" y="0" type="line" name="_corner01"/>
      <point x="266" y="0" type="line" name="_corner00"/>
      <point x="466" y="700" type="line"/>
      <point x="368" y="700" type="line"/>
    </contour>
    <contour>
      <point x="112" y="512" type="line"/>
      <point x="124" y="512" type="line"/>
      <point x="224" y="680" type="line"/>
      <point x="596" y="680" type="line"/>
      <point x="624" y="512" type="line"/>
      <point x="636" y="512" type="line"/>
      <point x="684" y="700" type="line"/>
      <point x="142" y="700" type="line"/>
    </contour>
  </outline>
</glyph>
<glyph name="U" format="2">
  <advance width="612"/>
  <unicode hex="0055"/>
  <anchor x="324" y="0" name="ogonek"/>
  <anchor x="472" y="700" name="top"/>
  <outline>
    <contour>
      <point x="284" y="-14" type="curve"/>
      <point x="398" y="10"/>
      <point x="499" y="104"/>
      <point x="532" y="220" type="curve" smooth="yes"/>
      <point x="668" y="700" type="line" name="_corner02"/>
      <point x="644" y="700" type="line" name="_corner03"/>
      <point x="509" y="218" type="line" smooth="yes"/>
      <point x="482" y="122"/>
      <point x="412" y="52"/>
      <point x="324" y="20" type="curve"/>
      <point x="201" y="20"/>
      <point x="145" y="100"/>
      <point x="180" y="224" type="curve" smooth="yes"/>
      <point x="316" y="700" type="line" name="_corner00"/>
      <point x="218" y="700" type="line" name="_corner01"/>
      <point x="76" y="200" type="line" smooth="yes"/>
      <point x="40" y="74"/>
      <point x="124" y="-14"/>
    </contour>
  </outline>
</glyph>
<glyph name="V" format="2">
  <advance width="536"/>
  <unicode hex="0056"/>
  <outline>
    <contour>
      <point x="100" y="-48" type="line"/>
      <point x="348" y="100"/>
      <point x="582" y="428"/>
      <point x="610" y="624" type="curve"/>
      <point x="594" y="660"/>
      <point x="554" y="700"/>
      <point x="514" y="716" type="curve"/>
      <point x="466" y="668" type="line"/>
      <point x="466" y="640" type="line"/>
      <point x="578" y="564" type="line"/>
      <point x="506" y="356"/>
      <point x="316" y="118"/>
      <point x="160" y="18" type="curve"/>
      <point x="156" y="20" type="line"/>
      <point x="324" y="700" type="line"/>
      <point x="226" y="700" type="line" name="_corner00"/>
      <point x="68" y="48" type="line"/>
      <point x="80" y="24"/>
      <point x="102" y="0"/>
      <point x="124" y="-12" type="curve"/>
      <point x="92" y="-36" type="line"/>
    </contour>
  </outline>
</glyph>
<glyph name="W" format="2">
  <advance width="843"/>
  <unicode hex="0057"/>
  <outline>
    <contour>
      <point x="400" y="-52" type="line"/>
      <point x="652" y="96"/>
      <point x="884" y="416"/>
      <point x="916" y="616" type="curve"/>
      <point x="900" y="656"/>
      <point x="864" y="692"/>
      <point x="824" y="712" type="curve"/>
      <point x="784" y="664" type="line"/>
      <point x="784" y="636" type="line"/>
      <point x="880" y="556" type="line"/>
      <point x="821" y="356"/>
      <point x="644" y="141"/>
      <point x="460" y="9" type="curve"/>
      <point x="456" y="12" type="line"/>
      <point x="548" y="228"/>
      <point x="612" y="474"/>
      <point x="644" y="702" type="curve"/>
      <point x="624" y="716" type="line"/>
      <point x="548" y="702" type="line"/>
      <point x="512" y="442"/>
      <point x="376" y="189"/>
      <point x="160" y="21" type="curve"/>
      <point x="156" y="24" type="line"/>
      <point x="324" y="700" type="line"/>
      <point x="226" y="700" type="line" name="_corner00"/>
      <point x="65" y="43" type="line"/>
      <point x="79" y="19"/>
      <point x="100" y="0"/>
      <point x="124" y="-12" type="curve"/>
      <point x="92" y="-36" type="line"/>
      <point x="100" y="-48" type="line"/>
      <point x="269" y="65"/>
      <point x="415" y="249"/>
      <point x="480" y="392" type="curve"/>
      <point x="484" y="391" type="line"/>
      <point x="456" y="275"/>
      <point x="420" y="164"/>
      <point x="376" y="56" type="curve"/>
      <point x="391" y="26"/>
      <point x="407" y="6"/>
      <point x="432" y="-12" type="curve"/>
      <point x="392" y="-40" type="line"/>
    </contour>
  </outline>
</glyph>
<glyph name="X" format="2">
  <advance width="668"/>
  <unicode hex="0058"/>
  <outline>
    <contour>
      <point x="438" y="0" type="line" name="_corner02"/>
      <point x="540" y="0" type="line" name="_corner03"/>
      <point x="306" y="700" type="line" name="_corner00"/>
      <point x="206" y="700" type="line" name="_corner01"/>
    </contour>
    <contour>
      <point x="32" y="0" type="line" name="_corner06"/>
      <point x="62" y="0" type="line" name="_corner07"/>
      <point x="348" y="324" type="line"/>
      <point x="340" y="348" type="line"/>
    </contour>
    <contour>
      <point x="396" y="360" type="line"/>
      <point x="696" y="700" type="line" name="_corner04"/>
      <point x="666" y="700" type="line" name="_corner05"/>
      <point x="388" y="384" type="line"/>
    </contour>
  </outline>
</glyph>
<glyph name="Y" format="2">
  <advance width="620"/>
  <unicode hex="0059"/>
  <anchor x="238" y="0" name="bottom"/>
  <anchor x="460" y="700" name="top"/>
  <outline>
    <contour>
      <point x="238" y="0" type="line" name="_corner01"/>
      <point x="336" y="0" type="line" name="_corner00"/>
      <point x="416" y="296" type="line"/>
      <point x="672" y="700" type="line" name="_corner02"/>
      <point x="646" y="700" type="line" name="_corner05"/>
      <point x="408" y="324" type="line"/>
      <point x="404" y="324" type="line"/>
      <point x="292" y="700" type="line" name="_corner03"/>
      <point x="194" y="700" type="line" name="_corner04"/>
      <point x="316" y="292" type="line"/>
    </contour>
  </outline>
</glyph>
<glyph name="Z" format="2">
  <advance width="550"/>
  <unicode hex="005A"/>
  <anchor x="384" y="700" name="top"/>
  <outline>
    <contour>
      <point x="1" y="0" type="line"/>
      <point x="466" y="0" type="line"/>
      <point x="510" y="208" type="line"/>
      <point x="498" y="208" type="line"/>
      <point x="378" y="16" type="line"/>
      <point x="94" y="16" type="line"/>
      <point x="94" y="0" type="line"/>
      <point x="622" y="684" type="line"/>
      <point x="610" y="700" type="line"/>
      <point x="150" y="700" type="line"/>
      <point x="114" y="500" type="line"/>
      <point x="126" y="500" type="line"/>
      <point x="238" y="684" type="line"/>
      <point x="518" y="684" type="line"/>
      <point x="518" y="700" type="line"/>
      <point x="-10" y="20" type="line"/>
    </contour>
  </outline>
</glyph>
<glyph name="backslash" format="2">
  <advance width="504"/>
  <unicode hex="005C"/>
  <outline>
    <contour>
      <point x="451" y="-250" type="line"/>
      <point x="478" y="-250" type="line"/>
      <point x="171" y="750" type="line"/>
      <point x="145" y="750" type="line"/>
    </contour>
  </outline>
</glyph>
<glyph name="bracketright" format="2">
  <advance width="244"/>
  <unicode hex="005D"/>
  <outline>
    <contour>
      <point x="-26" y="-250" type="line" name="_corner01"/>
      <point x="66" y="-250" type="line"/>
      <point x="353" y="750" type="line"/>
      <point x="261" y="750" type="line" name="_corner00"/>
    </contour>
  </outline>
</glyph>
<glyph name="asciicircum" format="2">
  <advance width="484"/>
  <unicode hex="005E"/>
  <outline>
    <contour>
      <point x="149" y="470" type="line"/>
      <point x="392" y="738" type="line"/>
      <point x="482" y="470" type="line"/>
      <point x="519" y="480" type="line"/>
      <point x="417" y="772" type="line"/>
      <point x="377" y="772" type="line"/>
      <point x="119" y="493" type="line"/>
    </contour>
  </outline>
</glyph>
<glyph name="underscore" format="2">
  <advance width="508"/>
  <unicode hex="005F"/>
  <outline>
    <contour>
      <point x="-37" y="-56" type="line"/>
      <point x="395" y="-56" type="line"/>
      <point x="399" y="-30" type="line"/>
      <point x="-33" y="-30" type="line"/>
    </contour>
  </outline>
</glyph>
<glyph name="a" format="2">
  <advance width="464"/>
  <unicode hex="0061"/>
  <anchor x="315" y="0" name="ogonek"/>
  <anchor x="298" y="470" name="top"/>
  <outline>
    <contour>
      <point x="293" y="-16" type="line"/>
      <point x="315" y="0" type="line" name="_corner00"/>
      <point x="443" y="448" type="line"/>
      <point x="409" y="465"/>
      <point x="345" y="484"/>
      <point x="307" y="484" type="curve"/>
      <point x="147" y="432"/>
      <point x="9" y="272"/>
      <point x="9" y="128" type="curve" smooth="yes"/>
      <point x="9" y="60"/>
      <point x="47" y="2"/>
      <point x="103" y="-14" type="curve"/>
      <point x="187" y="46"/>
      <point x="260" y="219"/>
      <point x="339" y="395" type="curve"/>
      <point x="343" y="395" type="line"/>
      <point x="231" y="12" type="line"/>
    </contour>
    <contour>
      <point x="144" y="64" type="curve"/>
      <point x="116" y="72"/>
      <point x="99" y="119"/>
      <point x="99" y="180" type="curve" smooth="yes"/>
      <point x="99" y="290"/>
      <point x="153" y="400"/>
      <point x="252" y="441" type="curve"/>
      <point x="288" y="441"/>
      <point x="307" y="432"/>
      <point x="334" y="416" type="curve"/>
      <point x="294" y="317"/>
      <point x="204" y="112"/>
    </contour>
  </outline>
</glyph>
<glyph name="b" format="2">
  <advance width="461"/>
  <unicode hex="0062"/>
  <outline>
    <contour>
      <point x="140" y="-14" type="curve"/>
      <point x="300" y="38"/>
      <point x="445" y="198"/>
      <point x="445" y="342" type="curve" smooth="yes"/>
      <point x="445" y="414"/>
      <point x="405" y="468"/>
      <point x="345" y="484" type="curve"/>
      <point x="261" y="424"/>
      <point x="188" y="248"/>
      <point x="109" y="72" type="curve"/>
      <point x="105" y="72" type="line"/>
      <point x="302" y="760" type="line"/>
      <point x="284" y="766" type="line"/>
      <point x="208" y="736" type="line" name="_corner00"/>
      <point x="20" y="72" type="line"/>
      <point x="-26" y="56" type="line"/>
      <point x="-30" y="36" type="line"/>
      <point x="18" y="8"/>
      <point x="96" y="-14"/>
    </contour>
    <contour>
      <point x="204" y="36" type="curve"/>
      <point x="168" y="36"/>
      <point x="147" y="44"/>
      <point x="120" y="60" type="curve"/>
      <point x="160" y="156"/>
      <point x="245" y="356"/>
      <point x="305" y="408" type="curve"/>
      <point x="337" y="396"/>
      <point x="355" y="354"/>
      <point x="355" y="300" type="curve" smooth="yes"/>
      <point x="355" y="196"/>
      <point x="304" y="76"/>
    </contour>
  </outline>
</glyph>
<glyph name="c" format="2">
  <advance width="364"/>
  <unicode hex="0063"/>
  <anchor x="128" y="0" name="bottom"/>
  <anchor x="268" y="470" name="top"/>
  <outline>
    <contour>
      <point x="160" y="-14" type="curve"/>
      <point x="312" y="78" type="line"/>
      <point x="307" y="86" type="line"/>
      <point x="279" y="66"/>
      <point x="243" y="48"/>
      <point x="207" y="36" type="curve"/>
      <point x="140" y="36"/>
      <point x="101" y="97"/>
      <point x="101" y="192" type="curve" smooth="yes"/>
      <point x="101" y="326"/>
      <point x="159" y="414"/>
      <point x="247" y="458" type="curve"/>
      <point x="279" y="440"/>
      <point x="303" y="396"/>
      <point x="316" y="352" type="curve"/>
      <point x="344" y="352" type="line"/>
      <point x="380" y="424" type="line"/>
      <point x="361" y="455"/>
      <point x="317" y="478"/>
      <point x="275" y="484" type="curve"/>
      <point x="115" y="432"/>
      <point x="11" y="292"/>
      <point x="11" y="144" type="curve" smooth="yes"/>
      <point x="11" y="51"/>
      <point x="68" y="-14"/>
    </contour>
  </outline>
</glyph>
<glyph name="d" format="2">
  <advance width="473"/>
  <unicode hex="0064"/>
  <anchor x="449" y="470" name="topright"/>
  <outline>
    <contour>
      <point x="294" y="-16" type="line"/>
      <point x="316" y="0" type="line" name="_corner00"/>
      <point x="531" y="760" type="line"/>
      <point x="515" y="766" type="line"/>
      <point x="442" y="744" type="line" name="_corner01"/>
      <point x="366" y="464" type="line"/>
      <point x="382" y="472" type="line"/>
      <point x="358" y="479"/>
      <point x="328" y="484"/>
      <point x="306" y="484" type="curve"/>
      <point x="146" y="432"/>
      <point x="8" y="272"/>
      <point x="8" y="124" type="curve" smooth="yes"/>
      <point x="8" y="56"/>
      <point x="46" y="2"/>
      <point x="102" y="-14" type="curve"/>
      <point x="186" y="46"/>
      <point x="261" y="216"/>
      <point x="340" y="392" type="curve"/>
      <point x="344" y="391" type="line"/>
      <point x="232" y="12" type="line"/>
    </contour>
    <contour>
      <point x="147" y="68" type="curve"/>
      <point x="115" y="68"/>
      <point x="100" y="108"/>
      <point x="100" y="180" type="curve" smooth="yes"/>
      <point x="100" y="292"/>
      <point x="154" y="400"/>
      <point x="250" y="444" type="curve"/>
      <point x="286" y="444"/>
      <point x="316" y="432"/>
      <point x="336" y="416" type="curve"/>
      <point x="296" y="320"/>
      <point x="207" y="116"/>
    </contour>
  </outline>
</glyph>
<glyph name="e" format="2">
  <advance width="372"/>
  <unicode hex="0065"/>
  <anchor x="183" y="0" name="ogonek"/>
  <anchor x="256" y="470" name="top"/>
  <outline>
    <contour>
      <point x="160" y="-14" type="curve"/>
      <point x="302" y="72" type="line"/>
      <point x="298" y="80" type="line"/>
      <point x="277" y="65"/>
      <point x="239" y="47"/>
      <point x="207" y="36" type="curve"/>
      <point x="142" y="36"/>
      <point x="100" y="99"/>
      <point x="100" y="196" type="curve" smooth="yes"/>
      <point x="100" y="306"/>
      <point x="161" y="415"/>
      <point x="248" y="458" type="curve"/>
      <point x="270" y="445"/>
      <point x="282" y="419"/>
      <point x="282" y="392" type="curve" smooth="yes"/>
      <point x="282" y="324"/>
      <point x="216" y="249"/>
      <point x="88" y="193" type="curve"/>
      <point x="88" y="181" type="line"/>
      <point x="252" y="237"/>
      <point x="372" y="328"/>
      <point x="372" y="408" type="curve" smooth="yes"/>
      <point x="372" y="453"/>
      <point x="336" y="484"/>
      <point x="280" y="484" type="curve"/>
      <point x="122" y="433"/>
      <point x="10" y="293"/>
      <point x="10" y="146" type="curve" smooth="yes"/>
      <point x="10" y="50"/>
      <point x="68" y="-14"/>
    </contour>
  </outline>
</glyph>
<glyph name="f" format="2">
  <advance width="300"/>
  <unicode hex="0066"/>
  <outline>
    <contour>
      <point x="-159" y="-264" type="curve"/>
      <point x="-71" y="-240"/>
      <point x="24" y="-148"/>
      <point x="88" y="-64" type="curve"/>
      <point x="288" y="636" type="line" smooth="yes"/>
      <point x="298" y="670"/>
      <point x="326" y="700"/>
      <point x="360" y="712" type="curve"/>
      <point x="464" y="656" type="line"/>
      <point x="492" y="660" type="line"/>
      <point x="518" y="720" type="line"/>
      <point x="498" y="744"/>
      <point x="457" y="764"/>
      <point x="424" y="764" type="curve"/>
      <point x="348" y="734"/>
      <point x="250" y="661"/>
      <point x="188" y="588" type="curve"/>
      <point x="-15" y="-116" type="line"/>
      <point x="-30" y="-166"/>
      <point x="-56" y="-200"/>
      <point x="-96" y="-220" type="curve"/>
      <point x="-243" y="-144" type="line"/>
      <point x="-272" y="-148" type="line"/>
      <point x="-309" y="-212" type="line"/>
      <point x="-258" y="-245"/>
      <point x="-207" y="-264"/>
    </contour>
    <contour>
      <point x="84" y="456" type="line"/>
      <point x="340" y="456" type="line"/>
      <point x="344" y="470" type="line"/>
      <point x="88" y="470" type="line"/>
    </contour>
  </outline>
</glyph>
<glyph name="g" format="2">
  <advance width="430"/>
  <unicode hex="0067"/>
  <anchor x="67" y="-250" name="bottom"/>
  <anchor x="294" y="470" name="top"/>
  <outline>
    <contour>
      <point x="48" y="-264" type="curve"/>
      <point x="122" y="-237"/>
      <point x="220" y="-160"/>
      <point x="288" y="-84" type="curve"/>
      <point x="444" y="464" type="line"/>
      <point x="426" y="476"/>
      <point x="394" y="485"/>
      <point x="368" y="486" type="curve"/>
      <point x="358" y="460" type="line"/>
      <point x="384" y="464" type="line"/>
      <point x="364" y="474"/>
      <point x="329" y="482"/>
      <point x="305" y="484" type="curve"/>
      <point x="145" y="432"/>
      <point x="8" y="268"/>
      <point x="8" y="124" type="curve" smooth="yes"/>
      <point x="8" y="56"/>
      <point x="45" y="2"/>
      <point x="101" y="-14" type="curve"/>
      <point x="185" y="46"/>
      <point x="258" y="219"/>
      <point x="337" y="395" type="curve"/>
      <point x="341" y="395" type="line"/>
      <point x="192" y="-116" type="line" smooth="yes"/>
      <point x="177" y="-166"/>
      <point x="148" y="-204"/>
      <point x="108" y="-220" type="curve"/>
      <point x="-36" y="-144" type="line"/>
      <point x="-65" y="-148" type="line"/>
      <point x="-102" y="-212" type="line"/>
      <point x="-51" y="-245"/>
      <point x="0" y="-264"/>
    </contour>
    <contour>
      <point x="145" y="68" type="curve"/>
      <point x="113" y="68"/>
      <point x="98" y="108"/>
      <point x="98" y="180" type="curve" smooth="yes"/>
      <point x="98" y="292"/>
      <point x="152" y="400"/>
      <point x="248" y="444" type="curve"/>
      <point x="284" y="444"/>
      <point x="312" y="432"/>
      <point x="332" y="416" type="curve"/>
      <point x="292" y="320"/>
      <point x="205" y="116"/>
    </contour>
  </outline>
</glyph>
<glyph name="h" format="2">
  <advance width="488"/>
  <unicode hex="0068"/>
  <outline>
    <contour>
      <point x="317" y="-16" type="line"/>
      <point x="339" y="0" type="line" name="_corner00"/>
      <point x="441" y="356" type="line" smooth="yes"/>
      <point x="463" y="431"/>
      <point x="433" y="484"/>
      <point x="369" y="484" type="curve"/>
      <point x="281" y="460"/>
      <point x="173" y="224"/>
      <point x="97" y="48" type="curve"/>
      <point x="93" y="48" type="line"/>
      <point x="296" y="760" type="line"/>
      <point x="280" y="766" type="line"/>
      <point x="204" y="736" type="line" name="_corner01"/>
      <point x="-7" y="2" type="line"/>
      <point x="85" y="-4" type="line"/>
      <point x="161" y="168"/>
      <point x="265" y="396"/>
      <point x="329" y="436" type="curve"/>
      <point x="358" y="436"/>
      <point x="366" y="398"/>
      <point x="349" y="340" type="curve" smooth="yes"/>
      <point x="255" y="12" type="line"/>
    </contour>
  </outline>
</glyph>
<glyph name="k" format="2">
  <advance width="460"/>
  <unicode hex="006B"/>
  <anchor x="180" y="0" name="bottom"/>
  <outline>
    <contour>
      <point x="341" y="-56" type="line"/>
      <point x="367" y="-48" type="line" name="_corner01"/>
      <point x="311" y="180" type="line"/>
      <point x="245" y="188" type="line"/>
      <point x="245" y="192" type="line"/>
      <point x="345" y="224"/>
      <point x="449" y="304"/>
      <point x="449" y="400" type="curve" smooth="yes"/>
      <point x="449" y="450"/>
      <point x="420" y="484"/>
      <point x="370" y="484" type="curve"/>
      <point x="282" y="460"/>
      <point x="172" y="224"/>
      <point x="96" y="48" type="curve"/>
      <point x="92" y="48" type="line"/>
      <point x="296" y="760" type="line"/>
      <point x="280" y="766" type="line"/>
      <point x="204" y="736" type="line" name="_corner00"/>
      <point x="-6" y="2" type="line"/>
      <point x="84" y="-4" type="line"/>
      <point x="160" y="168"/>
      <point x="270" y="396"/>
      <point x="330" y="436" type="curve"/>
      <point x="349" y="436"/>
      <point x="359" y="420"/>
      <point x="359" y="392" type="curve" smooth="yes"/>
      <point x="359" y="328"/>
      <point x="301" y="232"/>
      <point x="221" y="184" type="curve"/>
      <point x="271" y="-36" type="line"/>
    </contour>
  </outline>
</glyph>
<glyph name="l" format="2">
  <advance width="237"/>
  <unicode hex="006C"/>
  <anchor x="48" y="0" name="bottom"/>
  <anchor x="252" y="750" name="top"/>
  <anchor x="214" y="470" name="topright"/>
  <outline>
    <contour>
      <point x="58" y="-16" type="line"/>
      <point x="80" y="0" type="line" name="_corner00"/>
      <point x="296" y="760" type="line"/>
      <point x="280" y="766" type="line"/>
      <point x="204" y="736" type="line" name="_corner01"/>
      <point x="-4" y="12" type="line"/>
    </contour>
  </outline>
</glyph>
<glyph name="m" format="2">
  <advance width="743"/>
  <unicode hex="006D"/>
  <outline>
    <contour>
      <point x="572" y="-16" type="line"/>
      <point x="594" y="0" type="line" name="_corner01"/>
      <point x="696" y="356" type="line" smooth="yes"/>
      <point x="717" y="431"/>
      <point x="688" y="484"/>
      <point x="624" y="484" type="curve"/>
      <point x="532" y="460"/>
      <point x="438" y="224"/>
      <point x="362" y="48" type="curve"/>
      <point x="358" y="48" type="line"/>
      <point x="448" y="356" type="line" smooth="yes"/>
      <point x="470" y="431"/>
      <point x="440" y="484"/>
      <point x="376" y="484" type="curve"/>
      <point x="284" y="460"/>
      <point x="190" y="224"/>
      <point x="114" y="48" type="curve"/>
      <point x="110" y="48" type="line"/>
      <point x="236" y="480" type="line"/>
      <point x="218" y="486" type="line"/>
      <point x="142" y="456" type="line" name="_corner00"/>
      <point x="12" y="2" type="line"/>
      <point x="102" y="-4" type="line"/>
      <point x="178" y="168"/>
      <point x="272" y="392"/>
      <point x="336" y="436" type="curve"/>
      <point x="365" y="436"/>
      <point x="372" y="398"/>
      <point x="356" y="340" type="curve" smooth="yes"/>
      <point x="264" y="2" type="line"/>
      <point x="350" y="-4" type="line"/>
      <point x="426" y="168"/>
      <point x="520" y="396"/>
      <point x="584" y="436" type="curve"/>
      <point x="613" y="436"/>
      <point x="621" y="398"/>
      <point x="604" y="340" type="curve" smooth="yes"/>
      <point x="510" y="12" type="line"/>
    </contour>
  </outline>
</glyph>
<glyph name="n" format="2">
  <advance width="507"/>
  <unicode hex="006E"/>
  <anchor x="200" y="0" name="bottom"/>
  <anchor x="324" y="470" name="top"/>
  <outline>
    <contour>
      <point x="336" y="-16" type="line"/>
      <point x="358" y="0" type="line" name="_corner01"/>
      <point x="460" y="356" type="line" smooth="yes"/>
      <point x="482" y="431"/>
      <point x="452" y="484"/>
      <point x="388" y="484" type="curve"/>
      <point x="292" y="460"/>
      <point x="192" y="224"/>
      <point x="116" y="48" type="curve"/>
      <point x="112" y="48" type="line"/>
      <point x="236" y="480" type="line"/>
      <point x="218" y="486" type="line"/>
      <point x="142" y="456" type="line" name="_corner00"/>
      <point x="12" y="2" type="line"/>
      <point x="104" y="-4" type="line"/>
      <point x="180" y="168"/>
      <point x="280" y="396"/>
      <point x="348" y="436" type="curve"/>
      <point x="377" y="436"/>
      <point x="385" y="398"/>
      <point x="368" y="340" type="curve" smooth="yes"/>
      <point x="274" y="12" type="line"/>
    </contour>
  </outline>
</glyph>
<glyph name="o" format="2">
  <advance width="446"/>
  <unicode hex="006F"/>
  <anchor x="188" y="0" name="ogonek"/>
  <anchor x="276" y="470" name="top"/>
  <outline>
    <contour>
      <point x="152" y="-14" type="curve"/>
      <point x="315" y="40"/>
      <point x="426" y="168"/>
      <point x="426" y="332" type="curve" smooth="yes"/>
      <point x="426" y="424"/>
      <point x="372" y="484"/>
      <point x="282" y="484" type="curve"/>
      <point x="122" y="432"/>
      <point x="10" y="290"/>
      <point x="10" y="144" type="curve" smooth="yes"/>
      <point x="10" y="60"/>
      <point x="61" y="-14"/>
    </contour>
    <contour>
      <point x="179" y="10" type="curve"/>
      <point x="133" y="10"/>
      <point x="101" y="79"/>
      <point x="101" y="176" type="curve" smooth="yes"/>
      <point x="101" y="297"/>
      <point x="166" y="416"/>
      <point x="254" y="460" type="curve"/>
      <point x="301" y="460"/>
      <point x="334" y="393"/>
      <point x="334" y="300" type="curve" smooth="yes"/>
      <point x="334" y="169"/>
      <point x="267" y="50"/>
    </contour>
  </outline>
</glyph>
<glyph name="p" format="2">
  <advance width="475"/>
  <unicode hex="0070"/>
  <outline>
    <contour>
      <point x="118" y="64" type="line"/>
      <point x="236" y="480" type="line"/>
      <point x="218" y="486" type="line"/>
      <point x="142" y="456" type="line" name="_corner00"/>
      <point x="-52" y="-248" type="line"/>
      <point x="32" y="-256" type="line"/>
      <point x="98" y="0" type="line"/>
      <point x="84" y="-6" type="line"/>
      <point x="101" y="-10"/>
      <point x="135" y="-14"/>
      <point x="155" y="-14" type="curve"/>
      <point x="315" y="38"/>
      <point x="459" y="198"/>
      <point x="459" y="342" type="curve" smooth="yes"/>
      <point x="459" y="414"/>
      <point x="419" y="468"/>
      <point x="359" y="484" type="curve"/>
      <point x="275" y="424"/>
      <point x="198" y="243"/>
      <point x="122" y="63" type="curve"/>
    </contour>
    <contour>
      <point x="132" y="52" type="curve"/>
      <point x="172" y="146"/>
      <point x="259" y="356"/>
      <point x="319" y="408" type="curve"/>
      <point x="350" y="408"/>
      <point x="369" y="367"/>
      <point x="369" y="302" type="curve" smooth="yes"/>
      <point x="369" y="198"/>
      <point x="319" y="76"/>
      <point x="219" y="36" type="curve"/>
      <point x="187" y="36"/>
      <point x="160" y="40"/>
    </contour>
  </outline>
</glyph>
<glyph name="q" format="2">
  <advance width="440"/>
  <unicode hex="0071"/>
  <outline>
    <contour>
      <point x="222" y="-266" type="line"/>
      <point x="244" y="-256" type="line" name="_corner00"/>
      <point x="446" y="464" type="line"/>
      <point x="428" y="476"/>
      <point x="396" y="485"/>
      <point x="370" y="486" type="curve"/>
      <point x="360" y="460" type="line"/>
      <point x="386" y="464" type="line"/>
      <point x="366" y="474"/>
      <point x="331" y="482"/>
      <point x="307" y="484" type="curve"/>
      <point x="147" y="432"/>
      <point x="9" y="272"/>
      <point x="9" y="128" type="curve" smooth="yes"/>
      <point x="9" y="60"/>
      <point x="47" y="2"/>
      <point x="103" y="-14" type="curve"/>
      <point x="191" y="50"/>
      <point x="259" y="215"/>
      <point x="339" y="395" type="curve"/>
      <point x="343" y="395" type="line"/>
      <point x="160" y="-238" type="line"/>
    </contour>
    <contour>
      <point x="147" y="68" type="curve"/>
      <point x="115" y="68"/>
      <point x="99" y="114"/>
      <point x="99" y="185" type="curve" smooth="yes"/>
      <point x="99" y="295"/>
      <point x="153" y="400"/>
      <point x="252" y="441" type="curve"/>
      <point x="288" y="441"/>
      <point x="307" y="432"/>
      <point x="334" y="416" type="curve"/>
      <point x="290" y="312"/>
      <point x="207" y="120"/>
    </contour>
  </outline>
</glyph>
<glyph name="r" format="2">
  <advance width="419"/>
  <unicode hex="0072"/>
  <anchor x="68" y="0" name="bottom"/>
  <anchor x="304" y="470" name="top"/>
  <outline>
    <contour>
      <point x="108" y="-4" type="line"/>
      <point x="164" y="136"/>
      <point x="196" y="203"/>
      <point x="248" y="292" type="curve"/>
      <point x="308" y="344"/>
      <point x="376" y="384"/>
      <point x="452" y="404" type="curve"/>
      <point x="464" y="436" type="line"/>
      <point x="380" y="485" type="line"/>
      <point x="292" y="461"/>
      <point x="192" y="224"/>
      <point x="116" y="48" type="curve"/>
      <point x="112" y="48" type="line"/>
      <point x="236" y="480" type="line"/>
      <point x="218" y="486" type="line"/>
      <point x="142" y="456" type="line" name="_corner00"/>
      <point x="12" y="2" type="line"/>
    </contour>
  </outline>
</glyph>
<glyph name="s" format="2">
  <advance width="320"/>
  <unicode hex="0073"/>
  <anchor x="84" y="0" name="bottom"/>
  <anchor x="252" y="470" name="top"/>
  <outline>
    <contour>
      <point x="64" y="-14" type="curve"/>
      <point x="168" y="10"/>
      <point x="264" y="90"/>
      <point x="264" y="166" type="curve" smooth="yes"/>
      <point x="264" y="262"/>
      <point x="112" y="300"/>
      <point x="112" y="388" type="curve"/>
      <point x="131" y="415"/>
      <point x="154" y="433"/>
      <point x="184" y="440" type="curve"/>
      <point x="296" y="380" type="line"/>
      <point x="316" y="384" type="line"/>
      <point x="336" y="456" type="line"/>
      <point x="316" y="472"/>
      <point x="281" y="484"/>
      <point x="256" y="484" type="curve"/>
      <point x="148" y="462"/>
      <point x="72" y="390"/>
      <point x="72" y="308" type="curve" smooth="yes"/>
      <point x="72" y="208"/>
      <point x="218" y="172"/>
      <point x="218" y="92" type="curve"/>
      <point x="203" y="64"/>
      <point x="170" y="42"/>
      <point x="132" y="36" type="curve"/>
      <point x="28" y="100" type="line"/>
      <point x="4" y="96" type="line"/>
      <point x="-30" y="44" type="line"/>
      <point x="-9" y="16"/>
      <point x="30" y="-8"/>
    </contour>
  </outline>
</glyph>
<glyph name="t" format="2">
  <advance width="284"/>
  <unicode hex="0074"/>
  <anchor x="80" y="0" name="bottom"/>
  <anchor x="238" y="410" name="topright"/>
  <outline>
    <contour>
      <point x="80" y="-16" type="line"/>
      <point x="102" y="-2" type="line" name="_corner00"/>
      <point x="278" y="622" type="line"/>
      <point x="262" y="628" type="line"/>
      <point x="176" y="564" type="line"/>
      <point x="18" y="12" type="line"/>
    </contour>
    <contour>
      <point x="76" y="456" type="line"/>
      <point x="332" y="456" type="line"/>
      <point x="336" y="470" type="line"/>
      <point x="80" y="470" type="line"/>
    </contour>
  </outline>
</glyph>
<glyph name="u" format="2">
  <advance width="501"/>
  <unicode hex="0075"/>
  <anchor x="344" y="0" name="ogonek"/>
  <anchor x="304" y="470" name="top"/>
  <outline>
    <contour>
      <point x="322" y="-16" type="line"/>
      <point x="344" y="0" type="line" name="_corner00"/>
      <point x="480" y="468" type="line"/>
      <point x="390" y="474" type="line"/>
      <point x="314" y="302"/>
      <point x="206" y="70"/>
      <point x="146" y="34" type="curve"/>
      <point x="117" y="34"/>
      <point x="109" y="72"/>
      <point x="126" y="130" type="curve" smooth="yes"/>
      <point x="226" y="480" type="line"/>
      <point x="208" y="486" type="line"/>
      <point x="132" y="456" type="line" name="_corner01"/>
      <point x="34" y="114" type="line" smooth="yes"/>
      <point x="12" y="39"/>
      <point x="42" y="-14"/>
      <point x="106" y="-14" type="curve"/>
      <point x="198" y="14"/>
      <point x="302" y="242"/>
      <point x="378" y="422" type="curve"/>
      <point x="382" y="422" type="line"/>
      <point x="260" y="12" type="line"/>
    </contour>
  </outline>
</glyph>
<glyph name="v" format="2">
  <advance width="408"/>
  <unicode hex="0076"/>
  <outline>
    <contour>
      <point x="74" y="-28" type="line"/>
      <point x="282" y="96"/>
      <point x="416" y="300"/>
      <point x="416" y="476" type="curve"/>
      <point x="400" y="508"/>
      <point x="368" y="536"/>
      <point x="336" y="548" type="curve"/>
      <point x="292" y="508" type="line"/>
      <point x="292" y="484" type="line"/>
      <point x="388" y="404" type="line"/>
      <point x="384" y="304"/>
      <point x="272" y="113"/>
      <point x="120" y="17" type="curve"/>
      <point x="116" y="20" type="line"/>
      <point x="234" y="480" type="line"/>
      <point x="218" y="486" type="line"/>
      <point x="142" y="456" type="line" name="_corner00"/>
      <point x="40" y="60" type="line"/>
      <point x="53" y="35"/>
      <point x="74" y="9"/>
      <point x="92" y="-4" type="curve"/>
      <point x="68" y="-20" type="line"/>
    </contour>
  </outline>
</glyph>
<glyph name="w" format="2">
  <advance width="612"/>
  <unicode hex="0077"/>
  <outline>
    <contour>
      <point x="74" y="-28" type="line"/>
      <point x="178" y="44"/>
      <point x="248" y="122"/>
      <point x="316" y="238" type="curve"/>
      <point x="320" y="236" type="line"/>
      <point x="256" y="68" type="line"/>
      <point x="267" y="42"/>
      <point x="288" y="15"/>
      <point x="308" y="0" type="curve"/>
      <point x="276" y="-20" type="line"/>
      <point x="282" y="-28" type="line"/>
      <point x="491" y="93"/>
      <point x="620" y="302"/>
      <point x="620" y="476" type="curve"/>
      <point x="604" y="508"/>
      <point x="572" y="536"/>
      <point x="540" y="548" type="curve"/>
      <point x="496" y="508" type="line"/>
      <point x="496" y="484" type="line"/>
      <point x="592" y="404" type="line"/>
      <point x="588" y="300"/>
      <point x="480" y="113"/>
      <point x="328" y="17" type="curve"/>
      <point x="324" y="20" type="line"/>
      <point x="392" y="172"/>
      <point x="428" y="318"/>
      <point x="444" y="474" type="curve"/>
      <point x="428" y="486" type="line"/>
      <point x="364" y="472" type="line"/>
      <point x="339" y="287"/>
      <point x="265" y="150"/>
      <point x="120" y="17" type="curve"/>
      <point x="116" y="20" type="line"/>
      <point x="234" y="480" type="line"/>
      <point x="218" y="486" type="line"/>
      <point x="142" y="456" type="line" name="_corner00"/>
      <point x="42" y="60" type="line"/>
      <point x="54" y="32"/>
      <point x="76" y="8"/>
      <point x="92" y="-4" type="curve"/>
      <point x="68" y="-20" type="line"/>
    </contour>
  </outline>
</glyph>
<glyph name="x" format="2">
  <advance width="430"/>
  <unicode hex="0078"/>
  <outline>
    <contour>
      <point x="260" y="-16" type="line"/>
      <point x="300" y="10" type="line" name="_corner00"/>
      <point x="206" y="480" type="line"/>
      <point x="192" y="486" type="line"/>
      <point x="124" y="460" type="line" name="_corner01"/>
      <point x="218" y="1" type="line"/>
    </contour>
    <contour>
      <point x="-2" y="-124" type="line"/>
      <point x="18" y="-112" type="line"/>
      <point x="52" y="76" type="line"/>
      <point x="96" y="128"/>
      <point x="144" y="180"/>
      <point x="192" y="228" type="curve"/>
      <point x="190" y="240" type="line"/>
      <point x="73" y="127"/>
      <point x="-63" y="2"/>
      <point x="-71" y="-94" type="curve"/>
    </contour>
    <contour>
      <point x="236" y="262" type="line"/>
      <point x="342" y="364"/>
      <point x="442" y="468"/>
      <point x="442" y="550" type="curve"/>
      <point x="373" y="572" type="line"/>
      <point x="353" y="560" type="line"/>
      <point x="332" y="384" type="line"/>
      <point x="300" y="344"/>
      <point x="268" y="308"/>
      <point x="232" y="272" type="curve"/>
    </contour>
  </outline>
</glyph>
<glyph name="y" format="2">
  <advance width="396"/>
  <unicode hex="0079"/>
  <anchor x="248" y="470" name="top"/>
  <outline>
    <contour>
      <point x="-228" y="-264" type="curve"/>
      <point x="108" y="-136"/>
      <point x="404" y="232"/>
      <point x="404" y="472" type="curve"/>
      <point x="384" y="508"/>
      <point x="359" y="532"/>
      <point x="327" y="548" type="curve"/>
      <point x="283" y="508" type="line"/>
      <point x="283" y="484" type="line"/>
      <point x="374" y="404" type="line"/>
      <point x="370" y="292"/>
      <point x="256" y="116"/>
      <point x="152" y="12" type="curve"/>
      <point x="148" y="14" type="line"/>
      <point x="212" y="476" type="line"/>
      <point x="196" y="486" type="line"/>
      <point x="124" y="460" type="line" name="_corner00"/>
      <point x="72" y="56" type="line"/>
      <point x="84" y="30"/>
      <point x="108" y="2"/>
      <point x="128" y="-10" type="curve"/>
      <point x="64" y="-82"/>
      <point x="-60" y="-172"/>
      <point x="-168" y="-224" type="curve"/>
      <point x="-301" y="-144" type="line"/>
      <point x="-333" y="-152" type="line"/>
      <point x="-369" y="-212" type="line"/>
      <point x="-321" y="-248"/>
      <point x="-276" y="-264"/>
    </contour>
  </outline>
</glyph>
<glyph name="z" format="2">
  <advance width="432"/>
  <unicode hex="007A"/>
  <anchor x="268" y="470" name="top"/>
  <outline>
    <contour>
      <point x="-50" y="-28" type="line"/>
      <point x="18" y="32" type="line"/>
      <point x="247" y="-16" type="line"/>
      <point x="269" y="0" type="line" name="_corner00"/>
      <point x="297" y="40" type="line"/>
      <point x="246" y="80"/>
      <point x="166" y="109"/>
      <point x="94" y="112" type="curve"/>
      <point x="158" y="184" type="line"/>
      <point x="298" y="228"/>
      <point x="410" y="350"/>
      <point x="434" y="470" type="curve"/>
      <point x="360" y="496" type="line"/>
      <point x="292" y="352"/>
      <point x="121" y="140"/>
      <point x="-58" y="-20" type="curve"/>
    </contour>
    <contour>
      <point x="62" y="300" type="line"/>
      <point x="182" y="456" type="line"/>
      <point x="330" y="420" type="line"/>
      <point x="334" y="432" type="line"/>
      <point x="104" y="486" type="line"/>
      <point x="74" y="441"/>
      <point x="56" y="378"/>
      <point x="42" y="308" type="curve"/>
    </contour>
  </outline>
</glyph>
<glyph name="braceleft" format="2">
  <advance width="212"/>
  <unicode hex="007B"/>
  <outline>
    <contour>
      <point x="20" y="-252" type="curve"/>
      <point x="24" y="-244" type="line"/>
      <point x="4" y="-224"/>
      <point x="1" y="-164"/>
      <point x="22" y="-92" type="curve" smooth="yes"/>
      <point x="88" y="138" type="line" smooth="yes"/>
      <point x="108" y="208"/>
      <point x="89" y="260"/>
      <point x="40" y="273" type="curve"/>
      <point x="100" y="285"/>
      <point x="142" y="329"/>
      <point x="168" y="417" type="curve" smooth="yes"/>
      <point x="224" y="604" type="line" smooth="yes"/>
      <point x="246" y="678"/>
      <point x="285" y="725"/>
      <point x="326" y="740" type="curve"/>
      <point x="322" y="752" type="line"/>
      <point x="241" y="735"/>
      <point x="160" y="694"/>
      <point x="108" y="512" type="curve" smooth="yes"/>
      <point x="60" y="345" type="line" smooth="yes"/>
      <point x="49" y="306"/>
      <point x="27" y="293"/>
      <point x="-20" y="287" type="curve"/>
      <point x="-22" y="275" type="line"/>
      <point x="25" y="275"/>
      <point x="32" y="248"/>
      <point x="24" y="219" type="curve" smooth="yes"/>
      <point x="-58" y="-68" type="line" smooth="yes"/>
      <point x="-83" y="-156"/>
      <point x="-49" y="-232"/>
    </contour>
  </outline>
</glyph>
<glyph name="bar" format="2">
  <advance width="213"/>
  <unicode hex="007C"/>
  <outline>
    <contour>
      <point x="-63" y="-250" type="line"/>
      <point x="-21" y="-250" type="line"/>
      <point x="285" y="750" type="line"/>
      <point x="243" y="750" type="line"/>
    </contour>
  </outline>
</glyph>
<glyph name="braceright" format="2">
  <advance width="220"/>
  <unicode hex="007D"/>
  <outline>
    <contour>
      <point x="-100" y="-252" type="line"/>
      <point x="-19" y="-235"/>
      <point x="61" y="-195"/>
      <point x="114" y="-12" type="curve" smooth="yes"/>
      <point x="170" y="182" type="line" smooth="yes"/>
      <point x="180" y="218"/>
      <point x="200" y="236"/>
      <point x="248" y="240" type="curve"/>
      <point x="250" y="252" type="line"/>
      <point x="203" y="252"/>
      <point x="198" y="279"/>
      <point x="206" y="308" type="curve" smooth="yes"/>
      <point x="280" y="568" type="line" smooth="yes"/>
      <point x="305" y="656"/>
      <point x="269" y="732"/>
      <point x="200" y="752" type="curve"/>
      <point x="196" y="744" type="line"/>
      <point x="216" y="724"/>
      <point x="221" y="664"/>
      <point x="200" y="592" type="curve" smooth="yes"/>
      <point x="142" y="389" type="line" smooth="yes"/>
      <point x="122" y="319"/>
      <point x="140" y="267"/>
      <point x="189" y="254" type="curve"/>
      <point x="129" y="242"/>
      <point x="88" y="198"/>
      <point x="62" y="110" type="curve" smooth="yes"/>
      <point x="-2" y="-104" type="line" smooth="yes"/>
      <point x="-24" y="-178"/>
      <point x="-63" y="-225"/>
      <point x="-104" y="-240" type="curve"/>
    </contour>
  </outline>
</glyph>
<glyph name="asciitilde" format="2">
  <advance width="453"/>
  <unicode hex="007E"/>
  <outline>
    <contour>
      <point x="22" y="176" type="curve"/>
      <point x="63" y="176" type="line"/>
      <point x="79" y="225"/>
      <point x="109" y="256"/>
      <point x="145" y="256" type="curve" smooth="yes"/>
      <point x="203" y="256"/>
      <point x="226" y="176"/>
      <point x="298" y="176" type="curve" smooth="yes"/>
      <point x="359" y="176"/>
      <point x="411" y="223"/>
      <point x="432" y="296" type="curve"/>
      <point x="391" y="296" type="line"/>
      <point x="376" y="247"/>
      <point x="346" y="216"/>
      <point x="309" y="216" type="curve" smooth="yes"/>
      <point x="251" y="216"/>
      <point x="228" y="296"/>
      <point x="156" y="296" type="curve" smooth="yes"/>
      <point x="95" y="296"/>
      <point x="43" y="249"/>
    </contour>
  </outline>
</glyph>
<glyph name="exclamdown" format="2">
  <advance width="244"/>
  <unicode hex="00A1"/>
  <outline>
    <contour>
      <point x="-68" y="-250" type="curve"/>
      <point x="36" y="-250" type="line"/>
      <point x="94" y="-51"/>
      <point x="95" y="110"/>
      <point x="147" y="288" type="curve"/>
      <point x="127" y="288" type="line"/>
      <point x="76" y="112"/>
      <point x="-10" y="-47"/>
    </contour>
    <component base="period" xOffset="102" yOffset="374"/>
  </outline>
</glyph>
<glyph name="cent" format="2">
  <advance width="364"/>
  <unicode hex="00A2"/>
  <outline>
    <contour>
      <point x="364" y="688" type="line"/>
      <point x="341" y="688" type="line"/>
      <point x="63" y="-206" type="line"/>
      <point x="86" y="-206" type="line"/>
    </contour>
    <component base="c"/>
  </outline>
</glyph>
<glyph name="sterling" format="2">
  <advance width="516"/>
  <unicode hex="00A3"/>
  <outline>
    <contour>
      <point x="-9" y="-24" type="line"/>
      <point x="32" y="18" type="line"/>
      <point x="174" y="80"/>
      <point x="293" y="20"/>
      <point x="347" y="-14" type="curve"/>
      <point x="526" y="138" type="line"/>
      <point x="519" y="148" type="line"/>
      <point x="407" y="80" type="line"/>
      <point x="347" y="113"/>
      <point x="210" y="126"/>
      <point x="104" y="74" type="curve"/>
      <point x="102" y="77" type="line"/>
      <point x="200" y="184"/>
      <point x="264" y="239"/>
      <point x="285" y="312" type="curve" smooth="yes"/>
      <point x="308" y="392"/>
      <point x="293" y="493"/>
      <point x="293" y="572" type="curve" smooth="yes"/>
      <point x="293" y="628"/>
      <point x="333" y="649"/>
      <point x="371" y="658" type="curve"/>
      <point x="484" y="606" type="line"/>
      <point x="513" y="610" type="line"/>
      <point x="547" y="670" type="line"/>
      <point x="532" y="691"/>
      <point x="476" y="714"/>
      <point x="439" y="714" type="curve"/>
      <point x="329" y="672"/>
      <point x="220" y="602"/>
      <point x="178" y="515" type="curve"/>
      <point x="144" y="398"/>
      <point x="216" y="325"/>
      <point x="180" y="231" type="curve" smooth="yes"/>
      <point x="155" y="166"/>
      <point x="78" y="96"/>
      <point x="-23" y="-11" type="curve"/>
    </contour>
    <contour>
      <point x="91" y="337" type="line"/>
      <point x="502" y="337" type="line"/>
      <point x="508" y="360" type="line"/>
      <point x="97" y="360" type="line"/>
    </contour>
  </outline>
</glyph>
<glyph name="currency" format="2">
  <advance width="423"/>
  <unicode hex="00A4"/>
  <outline>
    <contour>
      <point x="196" y="179" type="curve" smooth="yes"/>
      <point x="257" y="178"/>
      <point x="322" y="229"/>
      <point x="339" y="293" type="curve" smooth="yes"/>
      <point x="357" y="357"/>
      <point x="319" y="410"/>
      <point x="258" y="412" type="curve" smooth="yes"/>
      <point x="197" y="413"/>
      <point x="132" y="361"/>
      <point x="115" y="297" type="curve" smooth="yes"/>
      <point x="97" y="233"/>
      <point x="135" y="181"/>
    </contour>
    <contour>
      <point x="207" y="223" type="curve" smooth="yes"/>
      <point x="170" y="224"/>
      <point x="147" y="256"/>
      <point x="159" y="296" type="curve" smooth="yes"/>
      <point x="169" y="336"/>
      <point x="209" y="368"/>
      <point x="247" y="367" type="curve" smooth="yes"/>
      <point x="284" y="366"/>
      <point x="306" y="333"/>
      <point x="295" y="294" type="curve" smooth="yes"/>
      <point x="284" y="253"/>
      <point x="245" y="222"/>
    </contour>
    <contour>
      <point x="285" y="370" type="line"/>
      <point x="309" y="337" type="line"/>
      <point x="420" y="425" type="line"/>
      <point x="397" y="459" type="line"/>
    </contour>
    <contour>
      <point x="172" y="344" type="line"/>
      <point x="206" y="370" type="line"/>
      <point x="135" y="470" type="line"/>
      <point x="100" y="443" type="line"/>
    </contour>
    <contour>
      <point x="284" y="252" type="line"/>
      <point x="250" y="227" type="line"/>
      <point x="319" y="127" type="line"/>
      <point x="354" y="154" type="line"/>
    </contour>
    <contour>
      <point x="168" y="223" type="line"/>
      <point x="147" y="253" type="line"/>
      <point x="33" y="171" type="line"/>
      <point x="56" y="139" type="line"/>
    </contour>
  </outline>
</glyph>
<glyph name="yen" format="2">
  <advance width="620"/>
  <unicode hex="00A5"/>
  <outline>
    <contour>
      <point x="173" y="267" type="line"/>
      <point x="547" y="267" type="line"/>
      <point x="547" y="290" type="line"/>
      <point x="173" y="290" type="line"/>
    </contour>
    <contour>
      <point x="173" y="197" type="line"/>
      <point x="547" y="197" type="line"/>
      <point x="547" y="220" type="line"/>
      <point x="173" y="220" type="line"/>
    </contour>
    <component base="Y"/>
  </outline>
</glyph>
<glyph name="brokenbar" format="2">
  <advance width="213"/>
  <unicode hex="00A6"/>
  <outline>
    <contour>
      <point x="108" y="310" type="line"/>
      <point x="150" y="310" type="line"/>
      <point x="285" y="750" type="line"/>
      <point x="243" y="750" type="line"/>
    </contour>
    <contour>
      <point x="-63" y="-250" type="line"/>
      <point x="-21" y="-250" type="line"/>
      <point x="113" y="190" type="line"/>
      <point x="71" y="190" type="line"/>
    </contour>
  </outline>
</glyph>
<glyph name="section" format="2">
  <advance width="358"/>
  <unicode hex="00A7"/>
  <outline>
    <contour>
      <point x="188" y="247" type="curve"/>
      <point x="199" y="229" type="line"/>
      <point x="299" y="289"/>
      <point x="343" y="332"/>
      <point x="343" y="396" type="curve" smooth="yes"/>
      <point x="343" y="492"/>
      <point x="191" y="570"/>
      <point x="191" y="658" type="curve"/>
      <point x="210" y="685"/>
      <point x="233" y="713"/>
      <point x="263" y="720" type="curve"/>
      <point x="375" y="660" type="line"/>
      <point x="395" y="664" type="line"/>
      <point x="415" y="736" type="line"/>
      <point x="395" y="752"/>
      <point x="360" y="764"/>
      <point x="335" y="764" type="curve"/>
      <point x="227" y="742"/>
      <point x="151" y="660"/>
      <point x="151" y="578" type="curve" smooth="yes"/>
      <point x="151" y="478"/>
      <point x="297" y="405"/>
      <point x="297" y="325" type="curve"/>
      <point x="285" y="303"/>
      <point x="253" y="275"/>
    </contour>
    <contour>
      <point x="217" y="476" type="curve"/>
      <point x="209" y="488" type="line"/>
      <point x="117" y="431"/>
      <point x="81" y="385"/>
      <point x="81" y="316" type="curve" smooth="yes"/>
      <point x="81" y="216"/>
      <point x="227" y="140"/>
      <point x="227" y="60" type="curve"/>
      <point x="212" y="32"/>
      <point x="179" y="10"/>
      <point x="141" y="4" type="curve"/>
      <point x="37" y="68" type="line"/>
      <point x="13" y="64" type="line"/>
      <point x="-21" y="12" type="line"/>
      <point x="0" y="-16"/>
      <point x="39" y="-40"/>
      <point x="73" y="-46" type="curve"/>
      <point x="177" y="-22"/>
      <point x="273" y="58"/>
      <point x="273" y="134" type="curve" smooth="yes"/>
      <point x="273" y="230"/>
      <point x="121" y="308"/>
      <point x="121" y="396" type="curve"/>
      <point x="143" y="427"/>
      <point x="170" y="452"/>
    </contour>
  </outline>
</glyph>
<glyph name="copyright" format="2">
  <advance width="721"/>
  <unicode hex="00A9"/>
  <outline>
    <contour>
      <point x="323" y="-12" type="curve" smooth="yes"/>
      <point x="543" y="-12"/>
      <point x="725" y="190"/>
      <point x="725" y="459" type="curve" smooth="yes"/>
      <point x="725" y="604"/>
      <point x="622" y="713"/>
      <point x="471" y="713" type="curve" smooth="yes"/>
      <point x="256" y="713"/>
      <point x="59" y="505"/>
      <point x="59" y="237" type="curve" smooth="yes"/>
      <point x="59" y="89"/>
      <point x="166" y="-12"/>
    </contour>
    <contour>
      <point x="334" y="33" type="curve" smooth="yes"/>
      <point x="197" y="33"/>
      <point x="112" y="116"/>
      <point x="112" y="247" type="curve" smooth="yes"/>
      <point x="112" y="462"/>
      <point x="285" y="668"/>
      <point x="461" y="668" type="curve" smooth="yes"/>
      <point x="589" y="668"/>
      <point x="672" y="576"/>
      <point x="672" y="450" type="curve" smooth="yes"/>
      <point x="672" y="220"/>
      <point x="519" y="33"/>
    </contour>
    <contour>
      <point x="362" y="115" type="curve"/>
      <point x="498" y="207" type="line"/>
      <point x="494" y="215" type="line"/>
      <point x="469" y="195"/>
      <point x="436" y="177"/>
      <point x="404" y="165" type="curve"/>
      <point x="344" y="165"/>
      <point x="308" y="216"/>
      <point x="308" y="311" type="curve" smooth="yes"/>
      <point x="308" y="445"/>
      <point x="361" y="503"/>
      <point x="440" y="547" type="curve"/>
      <point x="469" y="529"/>
      <point x="490" y="485"/>
      <point x="502" y="441" type="curve"/>
      <point x="527" y="441" type="line"/>
      <point x="560" y="513" type="line"/>
      <point x="542" y="544"/>
      <point x="503" y="567"/>
      <point x="465" y="573" type="curve"/>
      <point x="321" y="521"/>
      <point x="227" y="411"/>
      <point x="227" y="263" type="curve" smooth="yes"/>
      <point x="227" y="170"/>
      <point x="279" y="115"/>
    </contour>
  </outline>
</glyph>
<glyph name="logicalnot" format="2">
  <advance width="483"/>
  <unicode hex="00AC"/>
  <outline>
    <contour>
      <point x="346" y="60" type="line"/>
      <point x="389" y="60" type="line"/>
      <point x="446" y="256" type="line"/>
      <point x="46" y="256" type="line"/>
      <point x="35" y="218" type="line"/>
      <point x="391" y="218" type="line"/>
    </contour>
  </outline>
</glyph>
<glyph name="registered" format="2">
  <advance width="721"/>
  <unicode hex="00AE"/>
  <outline>
    <contour>
      <point x="323" y="-12" type="curve" smooth="yes"/>
      <point x="543" y="-12"/>
      <point x="725" y="190"/>
      <point x="725" y="459" type="curve" smooth="yes"/>
      <point x="725" y="604"/>
      <point x="622" y="713"/>
      <point x="471" y="713" type="curve" smooth="yes"/>
      <point x="256" y="713"/>
      <point x="59" y="505"/>
      <point x="59" y="237" type="curve" smooth="yes"/>
      <point x="59" y="89"/>
      <point x="166" y="-12"/>
    </contour>
    <contour>
      <point x="334" y="33" type="curve" smooth="yes"/>
      <point x="197" y="33"/>
      <point x="112" y="116"/>
      <point x="112" y="247" type="curve" smooth="yes"/>
      <point x="112" y="462"/>
      <point x="285" y="668"/>
      <point x="461" y="668" type="curve" smooth="yes"/>
      <point x="589" y="668"/>
      <point x="672" y="576"/>
      <point x="672" y="450" type="curve" smooth="yes"/>
      <point x="672" y="220"/>
      <point x="519" y="33"/>
    </contour>
    <contour>
      <point x="478" y="143" type="line"/>
      <point x="512" y="164" type="line" name="_corner00"/>
      <point x="449" y="330" type="line"/>
      <point x="392" y="342" type="line"/>
      <point x="392" y="344" type="line"/>
      <point x="417" y="344" type="line"/>
      <point x="521" y="363"/>
      <point x="579" y="413"/>
      <point x="579" y="477" type="curve" smooth="yes"/>
      <point x="579" y="532"/>
      <point x="536" y="567"/>
      <point x="474" y="567" type="curve" smooth="yes"/>
      <point x="336" y="567" type="line" name="_corner01"/>
      <point x="211" y="153" type="line" name="_corner02"/>
      <point x="277" y="153" type="line" name="_corner03"/>
      <point x="401" y="567" type="line"/>
      <point x="385" y="549" type="line"/>
      <point x="402" y="552"/>
      <point x="418" y="554"/>
      <point x="436" y="554" type="curve" smooth="yes"/>
      <point x="484" y="554"/>
      <point x="509" y="523"/>
      <point x="509" y="470" type="curve" smooth="yes"/>
      <point x="509" y="417"/>
      <point x="483" y="373"/>
      <point x="434" y="357" type="curve"/>
      <point x="398" y="357"/>
      <point x="368" y="359"/>
      <point x="328" y="366" type="curve"/>
      <point x="322" y="342" type="line"/>
      <point x="387" y="342" type="line"/>
      <point x="375" y="347" type="line"/>
      <point x="444" y="154" type="line"/>
    </contour>
  </outline>
</glyph>
<glyph name="degree" format="2">
  <advance width="277"/>
  <unicode hex="00B0"/>
  <outline>
    <contour>
      <point x="244" y="550" type="curve" smooth="yes"/>
      <point x="296" y="549"/>
      <point x="351" y="596"/>
      <point x="365" y="655" type="curve" smooth="yes"/>
      <point x="378" y="714"/>
      <point x="345" y="763"/>
      <point x="293" y="764" type="curve" smooth="yes"/>
      <point x="240" y="765"/>
      <point x="184" y="717"/>
      <point x="170" y="660" type="curve" smooth="yes"/>
      <point x="156" y="602"/>
      <point x="190" y="551"/>
    </contour>
    <contour>
      <point x="283" y="725" type="curve" smooth="yes"/>
      <point x="313" y="725"/>
      <point x="329" y="694"/>
      <point x="320" y="655" type="curve" smooth="yes"/>
      <point x="311" y="616"/>
      <point x="282" y="588"/>
      <point x="252" y="589" type="curve" smooth="yes"/>
      <point x="221" y="590"/>
      <point x="203" y="620"/>
      <point x="212" y="657" type="curve" smooth="yes"/>
      <point x="220" y="695"/>
      <point x="253" y="726"/>
    </contour>
  </outline>
</glyph>
<glyph name="plusminus" format="2">
  <advance width="465"/>
  <unicode hex="00B1"/>
  <outline>
    <contour>
      <point x="48" y="260" type="line"/>
      <point x="424" y="260" type="line"/>
      <point x="435" y="298" type="line"/>
      <point x="59" y="298" type="line"/>
    </contour>
    <contour>
      <point x="178" y="132" type="line"/>
      <point x="220" y="132" type="line"/>
      <point x="306" y="431" type="line"/>
      <point x="264" y="431" type="line"/>
    </contour>
    <contour>
      <point x="-6" y="55" type="line"/>
      <point x="370" y="55" type="line"/>
      <point x="382" y="95" type="line"/>
      <point x="6" y="95" type="line"/>
    </contour>
  </outline>
</glyph>
<glyph name="micro" format="2">
  <advance width="501"/>
  <unicode hex="00B5"/>
  <outline>
    <contour>
      <point x="61" y="76" type="curve"/>
      <point x="32" y="105" type="line"/>
      <point x="-57" y="-208" type="line"/>
      <point x="50" y="-149" type="line"/>
      <point x="40" y="-127"/>
      <point x="51" y="39"/>
    </contour>
    <component base="u"/>
  </outline>
</glyph>
<glyph name="paragraph" format="2">
  <advance width="507"/>
  <unicode hex="00B6"/>
  <outline>
    <contour>
      <point x="236" y="0" type="line" name="_corner02"/>
      <point x="336" y="0" type="line" name="_corner00"/>
      <point x="550" y="700" type="line" name="_corner01"/>
      <point x="382" y="700" type="line"/>
      <point x="213" y="701"/>
      <point x="118" y="582"/>
      <point x="118" y="452" type="curve" smooth="yes"/>
      <point x="118" y="351"/>
      <point x="192" y="314"/>
      <point x="261" y="314" type="curve"/>
      <point x="331" y="313" type="line"/>
    </contour>
    <contour>
      <point x="482" y="673" type="line"/>
      <point x="492" y="673" type="line"/>
      <point x="312" y="29" type="line"/>
      <point x="275" y="29" type="line"/>
    </contour>
  </outline>
</glyph>
<glyph name="questiondown" format="2">
  <advance width="412"/>
  <unicode hex="00BF"/>
  <outline>
    <contour>
      <point x="138" y="-264" type="curve"/>
      <point x="322" y="-144" type="line"/>
      <point x="314" y="-130" type="line"/>
      <point x="270" y="-158"/>
      <point x="232" y="-182"/>
      <point x="184" y="-206" type="curve"/>
      <point x="115" y="-206"/>
      <point x="70" y="-156"/>
      <point x="70" y="-78" type="curve" smooth="yes"/>
      <point x="70" y="10"/>
      <point x="134" y="81"/>
      <point x="238" y="114" type="curve"/>
      <point x="256" y="288" type="line"/>
      <point x="240" y="288" type="line"/>
      <point x="178" y="106" type="line"/>
      <point x="46" y="62"/>
      <point x="-26" y="-20"/>
      <point x="-26" y="-112" type="curve" smooth="yes"/>
      <point x="-26" y="-199"/>
      <point x="42" y="-264"/>
    </contour>
    <component base="period" xOffset="202" yOffset="374"/>
  </outline>
</glyph>
<glyph name="AE" format="2">
  <advance width="894"/>
  <unicode hex="00C6"/>
  <outline>
    <contour>
      <point x="-20" y="0" type="line" name="_corner01"/>
      <point x="20" y="0" type="line" name="_corner02"/>
      <point x="520" y="614" type="line"/>
      <point x="526" y="610" type="line"/>
      <point x="718" y="714" type="line"/>
      <point x="692" y="709"/>
      <point x="665" y="700"/>
      <point x="639" y="700" type="curve"/>
      <point x="560" y="700" type="line" name="_corner00"/>
    </contour>
    <contour>
      <point x="183" y="244" type="curve" smooth="yes"/>
      <point x="463" y="244" type="line"/>
      <point x="467" y="262" type="line"/>
      <point x="197" y="262" type="line"/>
      <point x="85" y="368" type="line"/>
      <point x="61" y="364" type="line"/>
      <point x="17" y="296" type="line"/>
      <point x="59" y="264"/>
      <point x="123" y="244"/>
    </contour>
    <component base="E" xOffset="354"/>
  </outline>
</glyph>
<glyph name="Eth" format="2">
  <advance width="656"/>
  <unicode hex="00D0"/>
  <outline>
    <contour>
      <point x="54" y="362" type="line"/>
      <point x="424" y="362" type="line"/>
      <point x="426" y="378" type="line"/>
      <point x="56" y="378" type="line"/>
    </contour>
    <component base="D"/>
  </outline>
</glyph>
<glyph name="multiply" format="2">
  <advance width="403"/>
  <unicode hex="00D7"/>
  <outline>
    <contour>
      <point x="42" y="84" type="line"/>
      <point x="195" y="207" type="line"/>
      <point x="286" y="72" type="line"/>
      <point x="322" y="100" type="line"/>
      <point x="230" y="234" type="line"/>
      <point x="382" y="355" type="line"/>
      <point x="360" y="385" type="line"/>
      <point x="208" y="265" type="line"/>
      <point x="116" y="397" type="line"/>
      <point x="81" y="370" type="line"/>
      <point x="173" y="238" type="line"/>
      <point x="19" y="116" type="line"/>
    </contour>
  </outline>
</glyph>
<glyph name="Oslash" format="2">
  <advance width="644"/>
  <unicode hex="00D8"/>
  <outline>
    <contour>
      <point x="-10" y="-2" type="line"/>
      <point x="746" y="700" type="line"/>
      <point x="734" y="716" type="line"/>
      <point x="-22" y="14" type="line"/>
    </contour>
    <component base="O"/>
  </outline>
</glyph>
<glyph name="Thorn" format="2">
  <advance width="592"/>
  <unicode hex="00DE"/>
  <outline>
    <contour>
      <point x="38" y="0" type="line" name="_corner02"/>
      <point x="136" y="0" type="line" name="_corner00"/>
      <point x="336" y="700" type="line" name="_corner03"/>
      <point x="238" y="700" type="line" name="_corner01"/>
    </contour>
    <contour>
      <point x="168" y="182" type="line"/>
      <point x="344" y="182" type="line"/>
      <point x="500" y="214"/>
      <point x="604" y="300"/>
      <point x="604" y="420" type="curve" smooth="yes"/>
      <point x="604" y="516"/>
      <point x="536" y="582"/>
      <point x="436" y="582" type="curve" smooth="yes"/>
      <point x="282" y="582" type="line"/>
      <point x="275" y="556" type="line"/>
      <point x="301" y="561"/>
      <point x="341" y="564"/>
      <point x="366" y="564" type="curve" smooth="yes"/>
      <point x="448" y="564"/>
      <point x="500" y="498"/>
      <point x="500" y="402" type="curve" smooth="yes"/>
      <point x="500" y="306"/>
      <point x="448" y="230"/>
      <point x="368" y="202" type="curve"/>
      <point x="302" y="202"/>
      <point x="229" y="210"/>
      <point x="180" y="222" type="curve"/>
    </contour>
  </outline>
</glyph>
<glyph name="germandbls" format="2">
  <advance width="556"/>
  <unicode hex="00DF"/>
  <outline>
    <contour>
      <point x="-159" y="-264" type="curve"/>
      <point x="-71" y="-240"/>
      <point x="24" y="-148"/>
      <point x="88" y="-64" type="curve"/>
      <point x="276" y="592" type="line" smooth="yes"/>
      <point x="299" y="672"/>
      <point x="355" y="721"/>
      <point x="412" y="740" type="curve"/>
      <point x="451" y="740"/>
      <point x="476" y="699"/>
      <point x="476" y="636" type="curve" smooth="yes"/>
      <point x="476" y="496"/>
      <point x="308" y="448"/>
      <point x="308" y="340" type="curve" smooth="yes"/>
      <point x="308" y="236"/>
      <point x="452" y="172"/>
      <point x="452" y="92" type="curve"/>
      <point x="436" y="64"/>
      <point x="408" y="44"/>
      <point x="368" y="36" type="curve"/>
      <point x="264" y="100" type="line"/>
      <point x="240" y="96" type="line"/>
      <point x="205" y="44" type="line"/>
      <point x="227" y="16"/>
      <point x="266" y="-8"/>
      <point x="300" y="-14" type="curve"/>
      <point x="404" y="10"/>
      <point x="500" y="86"/>
      <point x="500" y="166" type="curve" smooth="yes"/>
      <point x="500" y="266"/>
      <point x="352" y="328"/>
      <point x="352" y="412" type="curve"/>
      <point x="401" y="475"/>
      <point x="566" y="535"/>
      <point x="566" y="652" type="curve" smooth="yes"/>
      <point x="566" y="723"/>
      <point x="509" y="764"/>
      <point x="424" y="764" type="curve"/>
      <point x="348" y="734"/>
      <point x="250" y="661"/>
      <point x="188" y="588" type="curve"/>
      <point x="-15" y="-116" type="line"/>
      <point x="-30" y="-166"/>
      <point x="-56" y="-200"/>
      <point x="-96" y="-220" type="curve"/>
      <point x="-243" y="-144" type="line"/>
      <point x="-272" y="-148" type="line"/>
      <point x="-309" y="-212" type="line"/>
      <point x="-258" y="-245"/>
      <point x="-207" y="-264"/>
    </contour>
    <contour>
      <point x="84" y="456" type="line"/>
      <point x="217" y="456" type="line"/>
      <point x="221" y="470" type="line"/>
      <point x="88" y="470" type="line"/>
    </contour>
  </outline>
</glyph>
<glyph name="ae" format="2">
  <advance width="622"/>
  <unicode hex="00E6"/>
  <outline>
    <contour>
      <point x="103" y="-14" type="curve"/>
      <point x="167" y="32"/>
      <point x="224" y="142"/>
      <point x="283" y="270" type="curve"/>
      <point x="287" y="270" type="line"/>
      <point x="448" y="444" type="line"/>
      <point x="414" y="461"/>
      <point x="345" y="484"/>
      <point x="307" y="484" type="curve"/>
      <point x="147" y="432"/>
      <point x="9" y="272"/>
      <point x="9" y="128" type="curve" smooth="yes"/>
      <point x="9" y="60"/>
      <point x="47" y="2"/>
    </contour>
    <contour>
      <point x="144" y="64" type="curve"/>
      <point x="116" y="72"/>
      <point x="99" y="119"/>
      <point x="99" y="180" type="curve" smooth="yes"/>
      <point x="99" y="290"/>
      <point x="153" y="400"/>
      <point x="252" y="441" type="curve"/>
      <point x="288" y="441"/>
      <point x="307" y="432"/>
      <point x="334" y="416" type="curve"/>
      <point x="294" y="317"/>
      <point x="204" y="112"/>
    </contour>
    <component base="e" xOffset="250"/>
  </outline>
</glyph>
<glyph name="eth" format="2">
  <advance width="488"/>
  <unicode hex="00F0"/>
  <outline>
    <contour>
      <point x="174" y="-14" type="curve"/>
      <point x="352" y="31"/>
      <point x="478" y="199"/>
      <point x="478" y="390" type="curve" smooth="yes"/>
      <point x="478" y="559"/>
      <point x="384" y="708"/>
      <point x="252" y="752" type="curve"/>
      <point x="246" y="744" type="line"/>
      <point x="324" y="674"/>
      <point x="380" y="548"/>
      <point x="380" y="440" type="curve"/>
      <point x="376" y="438" type="line"/>
      <point x="272" y="484" type="line"/>
      <point x="112" y="432"/>
      <point x="26" y="318"/>
      <point x="26" y="172" type="curve" smooth="yes"/>
      <point x="26" y="88"/>
      <point x="83" y="-14"/>
    </contour>
    <contour>
      <point x="201" y="10" type="curve"/>
      <point x="155" y="29"/>
      <point x="120" y="79"/>
      <point x="120" y="176" type="curve" smooth="yes"/>
      <point x="120" y="286"/>
      <point x="174" y="396"/>
      <point x="273" y="437" type="curve"/>
      <point x="314" y="437"/>
      <point x="362" y="424"/>
      <point x="396" y="404" type="curve"/>
      <point x="384" y="420" type="line"/>
      <point x="384" y="239"/>
      <point x="324" y="112"/>
    </contour>
    <contour>
      <point x="204" y="572" type="line"/>
      <point x="496" y="696" type="line"/>
      <point x="492" y="708" type="line"/>
      <point x="200" y="584" type="line"/>
    </contour>
  </outline>
</glyph>
<glyph name="divide" format="2">
  <advance width="456"/>
  <unicode hex="00F7"/>
  <outline>
    <contour>
      <point x="34" y="216" type="line"/>
      <point x="410" y="216" type="line"/>
      <point x="422" y="256" type="line"/>
      <point x="46" y="256" type="line"/>
    </contour>
    <contour>
      <point x="256" y="318" type="curve" smooth="yes"/>
      <point x="281" y="318"/>
      <point x="305" y="338"/>
      <point x="312" y="364" type="curve" smooth="yes"/>
      <point x="318" y="388"/>
      <point x="305" y="409"/>
      <point x="280" y="410" type="curve" smooth="yes"/>
      <point x="257" y="410"/>
      <point x="231" y="390"/>
      <point x="225" y="366" type="curve" smooth="yes"/>
      <point x="218" y="340"/>
      <point x="232" y="319"/>
    </contour>
    <contour>
      <point x="176" y="63" type="curve" smooth="yes"/>
      <point x="201" y="63"/>
      <point x="225" y="83"/>
      <point x="232" y="109" type="curve" smooth="yes"/>
      <point x="238" y="133"/>
      <point x="225" y="154"/>
      <point x="200" y="155" type="curve" smooth="yes"/>
      <point x="177" y="155"/>
      <point x="151" y="135"/>
      <point x="145" y="111" type="curve" smooth="yes"/>
      <point x="138" y="85"/>
      <point x="152" y="64"/>
    </contour>
  </outline>
</glyph>
<glyph name="oslash" format="2">
  <advance width="446"/>
  <unicode hex="00F8"/>
  <outline>
    <contour>
      <point x="-30" y="-2" type="line"/>
      <point x="482" y="472" type="line"/>
      <point x="472" y="486" type="line"/>
      <point x="-40" y="12" type="line"/>
    </contour>
    <component base="o"/>
  </outline>
</glyph>
<glyph name="thorn" format="2">
  <advance width="457"/>
  <unicode hex="00FE"/>
  <outline>
    <contour>
      <point x="14" y="-256" type="line"/>
      <point x="80" y="0" type="line"/>
      <point x="66" y="-6" type="line"/>
      <point x="83" y="-10"/>
      <point x="117" y="-14"/>
      <point x="137" y="-14" type="curve"/>
      <point x="297" y="38"/>
      <point x="441" y="198"/>
      <point x="441" y="342" type="curve" smooth="yes"/>
      <point x="441" y="414"/>
      <point x="401" y="468"/>
      <point x="341" y="484" type="curve"/>
      <point x="257" y="424"/>
      <point x="180" y="243"/>
      <point x="104" y="63" type="curve"/>
      <point x="100" y="64" type="line"/>
      <point x="298" y="760" type="line"/>
      <point x="280" y="766" type="line"/>
      <point x="204" y="736" type="line" name="_corner00"/>
      <point x="-70" y="-248" type="line"/>
    </contour>
    <contour>
      <point x="201" y="36" type="curve"/>
      <point x="169" y="36"/>
      <point x="142" y="40"/>
      <point x="114" y="52" type="curve"/>
      <point x="154" y="146"/>
      <point x="241" y="356"/>
      <point x="301" y="408" type="curve"/>
      <point x="332" y="408"/>
      <point x="351" y="367"/>
      <point x="351" y="302" type="curve" smooth="yes"/>
      <point x="351" y="198"/>
      <point x="301" y="76"/>
    </contour>
  </outline>
</glyph>
<glyph name="dcroat" format="2">
  <advance width="473"/>
  <unicode hex="0111"/>
  <outline>
    <contour>
      <point x="222" y="610" type="line"/>
      <point x="540" y="610" type="line"/>
      <point x="542" y="624" type="line"/>
      <point x="224" y="624" type="line"/>
    </contour>
    <component base="d"/>
  </outline>
</glyph>
<glyph name="Gcommaaccent" format="2">
  <advance width="584"/>
  <unicode hex="0122"/>
  <outline>
    <contour>
      <point x="294" y="-14" type="curve"/>
      <point x="520" y="144" type="line"/>
      <point x="566" y="312" type="line"/>
      <point x="474" y="312" type="line" name="_corner00"/>
      <point x="413" y="93" type="line"/>
      <point x="339" y="44" type="line"/>
      <point x="231" y="44"/>
      <point x="154" y="132"/>
      <point x="154" y="272" type="curve" smooth="yes"/>
      <point x="154" y="464"/>
      <point x="258" y="630"/>
      <point x="414" y="696" type="curve"/>
      <point x="494" y="672"/>
      <point x="548" y="588"/>
      <point x="556" y="460" type="curve"/>
      <point x="568" y="460" type="line"/>
      <point x="610" y="640" type="line"/>
      <point x="558" y="688"/>
      <point x="492" y="714"/>
      <point x="418" y="714" type="curve"/>
      <point x="178" y="630"/>
      <point x="50" y="412"/>
      <point x="50" y="220" type="curve" smooth="yes"/>
      <point x="50" y="72"/>
      <point x="150" y="-14"/>
    </contour>
    <component base="commaaccentcomb" xOffset="76"/>
  </outline>
</glyph>
<glyph name="Hbar" format="2">
  <advance width="684"/>
  <unicode hex="0126"/>
  <outline>
    <contour>
      <point x="130" y="580" type="line"/>
      <point x="750" y="580" type="line"/>
      <point x="752" y="596" type="line"/>
      <point x="132" y="596" type="line"/>
    </contour>
    <component base="H"/>
  </outline>
</glyph>
<glyph name="hbar" format="2">
  <advance width="488"/>
  <unicode hex="0127"/>
  <outline>
    <contour>
      <point x="110" y="610" type="line"/>
      <point x="428" y="610" type="line"/>
      <point x="430" y="624" type="line"/>
      <point x="112" y="624" type="line"/>
    </contour>
    <component base="h"/>
  </outline>
</glyph>
<glyph name="idotless" format="2">
  <advance width="255"/>
  <unicode hex="0131"/>
  <anchor x="98" y="0" name="ogonek"/>
  <anchor x="189" y="470" name="top"/>
  <outline>
    <contour>
      <point x="76" y="-16" type="line"/>
      <point x="98" y="0" type="line" name="_corner01"/>
      <point x="234" y="480" type="line"/>
      <point x="218" y="486" type="line"/>
      <point x="142" y="456" type="line" name="_corner00"/>
      <point x="14" y="12" type="line"/>
    </contour>
  </outline>
</glyph>
<glyph name="Lslash" format="2">
  <advance width="564"/>
  <unicode hex="0141"/>
  <outline>
    <contour>
      <point x="183" y="308" type="line"/>
      <point x="395" y="460" type="line"/>
      <point x="385" y="476" type="line"/>
      <point x="181" y="329" type="line"/>
    </contour>
    <contour>
      <point x="4" y="200" type="line"/>
      <point x="183" y="321" type="line"/>
      <point x="181" y="342" type="line"/>
      <point x="-6" y="216" type="line"/>
    </contour>
    <component base="L" xOffset="4"/>
  </outline>
</glyph>
<glyph name="lslash" format="2">
  <advance width="260"/>
  <unicode hex="0142"/>
  <outline>
    <contour>
      <point x="154" y="350" type="line"/>
      <point x="346" y="482" type="line"/>
      <point x="338" y="496" type="line"/>
      <point x="154" y="369" type="line"/>
    </contour>
    <contour>
      <point x="-22" y="242" type="line"/>
      <point x="154" y="363" type="line"/>
      <point x="154" y="382" type="line"/>
      <point x="-30" y="256" type="line"/>
    </contour>
    <component base="l" xOffset="12"/>
  </outline>
</glyph>
<glyph name="OE" format="2">
  <advance width="938"/>
  <unicode hex="0152"/>
  <outline>
    <contour>
      <point x="286" y="-14" type="curve"/>
      <point x="353" y="9"/>
      <point x="413" y="44"/>
      <point x="464" y="87" type="curve"/>
      <point x="447" y="114" type="line"/>
      <point x="409" y="67"/>
      <point x="362" y="30"/>
      <point x="308" y="6" type="curve"/>
      <point x="215" y="6"/>
      <point x="157" y="109"/>
      <point x="157" y="264" type="curve" smooth="yes"/>
      <point x="157" y="462"/>
      <point x="254" y="626"/>
      <point x="406" y="694" type="curve"/>
      <point x="479" y="694"/>
      <point x="531" y="629"/>
      <point x="547" y="521" type="curve"/>
      <point x="610" y="633" type="line"/>
      <point x="568" y="685"/>
      <point x="504" y="714"/>
      <point x="424" y="714" type="curve"/>
      <point x="184" y="634"/>
      <point x="51" y="420"/>
      <point x="51" y="220" type="curve" smooth="yes"/>
      <point x="51" y="80"/>
      <point x="144" y="-14"/>
    </contour>
    <component base="E" xOffset="398"/>
  </outline>
</glyph>
<glyph name="oe" format="2">
  <advance width="674"/>
  <unicode hex="0153"/>
  <outline>
    <contour>
      <point x="152" y="-14" type="curve"/>
      <point x="315" y="40"/>
      <point x="416" y="168"/>
      <point x="416" y="332" type="curve" smooth="yes"/>
      <point x="416" y="424"/>
      <point x="368" y="484"/>
      <point x="278" y="484" type="curve"/>
      <point x="118" y="432"/>
      <point x="10" y="290"/>
      <point x="10" y="144" type="curve" smooth="yes"/>
      <point x="10" y="60"/>
      <point x="61" y="-14"/>
    </contour>
    <contour>
      <point x="179" y="10" type="curve"/>
      <point x="133" y="10"/>
      <point x="101" y="79"/>
      <point x="101" y="176" type="curve" smooth="yes"/>
      <point x="101" y="297"/>
      <point x="162" y="416"/>
      <point x="250" y="460" type="curve"/>
      <point x="297" y="460"/>
      <point x="330" y="393"/>
      <point x="330" y="300" type="curve" smooth="yes"/>
      <point x="330" y="169"/>
      <point x="267" y="50"/>
    </contour>
    <component base="e" xOffset="302"/>
  </outline>
</glyph>
<glyph name="florin" format="2">
  <advance width="472"/>
  <unicode hex="0192"/>
  <outline>
    <contour>
      <point x="-67" y="-264" type="curve"/>
      <point x="21" y="-240"/>
      <point x="136" y="-148"/>
      <point x="200" y="-64" type="curve"/>
      <point x="440" y="636" type="line" smooth="yes"/>
      <point x="452" y="670"/>
      <point x="478" y="700"/>
      <point x="512" y="712" type="curve"/>
      <point x="616" y="656" type="line"/>
      <point x="644" y="660" type="line"/>
      <point x="670" y="720" type="line"/>
      <point x="650" y="744"/>
      <point x="609" y="764"/>
      <point x="576" y="764" type="curve"/>
      <point x="500" y="734"/>
      <point x="392" y="661"/>
      <point x="320" y="588" type="curve"/>
      <point x="77" y="-116" type="line" smooth="yes"/>
      <point x="60" y="-165"/>
      <point x="36" y="-200"/>
      <point x="-4" y="-220" type="curve"/>
      <point x="-151" y="-144" type="line"/>
      <point x="-180" y="-148" type="line"/>
      <point x="-217" y="-212" type="line"/>
      <point x="-166" y="-245"/>
      <point x="-115" y="-264"/>
    </contour>
    <contour>
      <point x="115" y="378" type="line"/>
      <point x="452" y="378" type="line"/>
      <point x="456" y="392" type="line"/>
      <point x="119" y="392" type="line"/>
    </contour>
  </outline>
</glyph>
<glyph name="jdotless" format="2">
  <advance width="248"/>
  <unicode hex="0237"/>
  <anchor x="205" y="470" name="top"/>
  <outline>
    <contour>
      <point x="-148" y="-264" type="curve"/>
      <point x="-60" y="-240"/>
      <point x="32" y="-144"/>
      <point x="96" y="-60" type="curve"/>
      <point x="250" y="480" type="line"/>
      <point x="234" y="486" type="line"/>
      <point x="158" y="456" type="line" name="_corner00"/>
      <point x="-7" y="-116" type="line" smooth="yes"/>
      <point x="-21" y="-166"/>
      <point x="-48" y="-204"/>
      <point x="-88" y="-224" type="curve"/>
      <point x="-219" y="-148" type="line"/>
      <point x="-248" y="-152" type="line"/>
      <point x="-285" y="-212" type="line"/>
      <point x="-241" y="-248"/>
      <point x="-184" y="-264"/>
    </contour>
  </outline>
</glyph>
<glyph name="gravecomb" format="2">
  <advance width="400"/>
  <unicode hex="0300"/>
  <anchor x="200" y="470" name="_top"/>
  <outline>
    <contour>
      <point x="252" y="548" type="line"/>
      <point x="260" y="551" type="line"/>
      <point x="220" y="740" type="line"/>
      <point x="148" y="746" type="line"/>
      <point x="140" y="734" type="line"/>
    </contour>
  </outline>
</glyph>
<glyph name="acutecomb" format="2">
  <advance width="400"/>
  <unicode hex="0301"/>
  <anchor x="200" y="470" name="_top"/>
  <outline>
    <contour>
      <point x="163" y="548" type="line"/>
      <point x="342" y="732" type="line"/>
      <point x="334" y="744" type="line"/>
      <point x="256" y="736" type="line"/>
      <point x="156" y="554" type="line"/>
    </contour>
  </outline>
</glyph>
<glyph name="circumflexcomb" format="2">
  <advance width="400"/>
  <unicode hex="0302"/>
  <anchor x="200" y="470" name="_top"/>
  <outline>
    <contour>
      <point x="102" y="548" type="line"/>
      <point x="234" y="648" type="line"/>
      <point x="238" y="648" type="line"/>
      <point x="330" y="548" type="line"/>
      <point x="338" y="552" type="line"/>
      <point x="258" y="742" type="line"/>
      <point x="246" y="742" type="line"/>
      <point x="96" y="555" type="line"/>
    </contour>
  </outline>
</glyph>
<glyph name="tildecomb" format="2">
  <advance width="400"/>
  <unicode hex="0303"/>
  <anchor x="221" y="470" name="_top"/>
  <outline>
    <contour>
      <point x="108" y="582" type="curve"/>
      <point x="120" y="578" type="line"/>
      <point x="130" y="602"/>
      <point x="144" y="620"/>
      <point x="168" y="636" type="curve"/>
      <point x="212" y="636"/>
      <point x="260" y="612"/>
      <point x="300" y="612" type="curve"/>
      <point x="344" y="632"/>
      <point x="388" y="678"/>
      <point x="408" y="726" type="curve"/>
      <point x="396" y="730" type="line"/>
      <point x="386" y="706"/>
      <point x="372" y="688"/>
      <point x="348" y="672" type="curve"/>
      <point x="304" y="672"/>
      <point x="256" y="696"/>
      <point x="216" y="696" type="curve"/>
      <point x="172" y="676"/>
      <point x="128" y="630"/>
    </contour>
  </outline>
</glyph>
<glyph name="macroncomb" format="2">
  <advance width="400"/>
  <unicode hex="0304"/>
  <anchor x="200" y="470" name="_top"/>
  <outline>
    <contour>
      <point x="110" y="625" type="line"/>
      <point x="348" y="625" type="line"/>
      <point x="352" y="653" type="line"/>
      <point x="114" y="653" type="line"/>
    </contour>
  </outline>
</glyph>
<glyph name="brevecomb" format="2">
  <advance width="400"/>
  <unicode hex="0306"/>
  <anchor x="200" y="470" name="_top"/>
  <outline>
    <contour>
      <point x="222" y="560" type="curve"/>
      <point x="286" y="584"/>
      <point x="340" y="638"/>
      <point x="356" y="710" type="curve"/>
      <point x="348" y="713" type="line"/>
      <point x="328" y="669"/>
      <point x="280" y="636"/>
      <point x="224" y="628" type="curve"/>
      <point x="167" y="628"/>
      <point x="124" y="659"/>
      <point x="116" y="713" type="curve"/>
      <point x="108" y="711" type="line"/>
      <point x="108" y="623"/>
      <point x="155" y="560"/>
    </contour>
  </outline>
</glyph>
<glyph name="dotaccentcomb" format="2">
  <advance width="400"/>
  <unicode hex="0307"/>
  <anchor x="200" y="470" name="_top"/>
  <outline>
    <contour>
      <point x="256" y="600" type="line"/>
      <point x="262" y="635"/>
      <point x="278" y="681"/>
      <point x="292" y="706" type="curve"/>
      <point x="284" y="712" type="line"/>
      <point x="200" y="692" type="line"/>
      <point x="188" y="670"/>
      <point x="183" y="633"/>
      <point x="188" y="608" type="curve"/>
    </contour>
  </outline>
</glyph>
<glyph name="dieresiscomb" format="2">
  <advance width="400"/>
  <unicode hex="0308"/>
  <anchor x="200" y="470" name="_top"/>
  <outline>
    <contour>
      <point x="194" y="602" type="line"/>
      <point x="200" y="636"/>
      <point x="213" y="670"/>
      <point x="227" y="694" type="curve"/>
      <point x="218" y="702" type="line"/>
      <point x="148" y="686" type="line"/>
      <point x="136" y="664"/>
      <point x="130" y="632"/>
      <point x="134" y="608" type="curve"/>
    </contour>
    <contour>
      <point x="307" y="600" type="line"/>
      <point x="313" y="632"/>
      <point x="328" y="672"/>
      <point x="342" y="696" type="curve"/>
      <point x="331" y="704" type="line"/>
      <point x="260" y="690" type="line"/>
      <point x="248" y="668"/>
      <point x="244" y="632"/>
      <point x="248" y="608" type="curve"/>
    </contour>
  </outline>
</glyph>
<glyph name="ringcomb" format="2">
  <advance width="400"/>
  <unicode hex="030A"/>
  <anchor x="200" y="470" name="_top"/>
  <outline>
    <contour>
      <point x="234" y="531" type="curve"/>
      <point x="302" y="551"/>
      <point x="332" y="598"/>
      <point x="332" y="650" type="curve" smooth="yes"/>
      <point x="332" y="702"/>
      <point x="294" y="736"/>
      <point x="226" y="736" type="curve"/>
      <point x="166" y="716"/>
      <point x="127" y="671"/>
      <point x="127" y="619" type="curve" smooth="yes"/>
      <point x="127" y="567"/>
      <point x="166" y="531"/>
    </contour>
    <contour>
      <point x="226" y="551" type="curve" smooth="yes"/>
      <point x="180" y="551"/>
      <point x="151" y="582"/>
      <point x="151" y="629" type="curve" smooth="yes"/>
      <point x="151" y="681"/>
      <point x="185" y="716"/>
      <point x="232" y="716" type="curve" smooth="yes"/>
      <point x="278" y="716"/>
      <point x="308" y="686"/>
      <point x="308" y="638" type="curve" smooth="yes"/>
      <point x="308" y="587"/>
      <point x="274" y="551"/>
    </contour>
  </outline>
</glyph>
<glyph name="hungarumlautcomb" format="2">
  <advance width="400"/>
  <unicode hex="030B"/>
  <anchor x="200" y="470" name="_top"/>
  <outline>
    <contour>
      <point x="243" y="548" type="line"/>
      <point x="420" y="732" type="line"/>
      <point x="412" y="744" type="line"/>
      <point x="340" y="736" type="line"/>
      <point x="236" y="554" type="line"/>
    </contour>
    <contour>
      <point x="155" y="548" type="line"/>
      <point x="310" y="734" type="line"/>
      <point x="304" y="746" type="line"/>
      <point x="236" y="734" type="line"/>
      <point x="148" y="554" type="line"/>
    </contour>
  </outline>
</glyph>
<glyph name="caroncomb" format="2">
  <advance width="400"/>
  <unicode hex="030C"/>
  <anchor x="200" y="470" name="_top"/>
  <outline>
    <contour>
      <point x="200" y="548" type="line"/>
      <point x="212" y="548" type="line"/>
      <point x="357" y="739" type="line"/>
      <point x="351" y="746" type="line"/>
      <point x="222" y="644" type="line"/>
      <point x="218" y="644" type="line"/>
      <point x="125" y="746" type="line"/>
      <point x="117" y="742" type="line"/>
    </contour>
  </outline>
</glyph>
<glyph name="commaaccentcomb" format="2">
  <advance width="400"/>
  <unicode hex="0326"/>
  <anchor x="200" y="0" name="_bottom"/>
  <outline>
    <contour>
      <point x="118" y="-228" type="line"/>
      <point x="182" y="-188"/>
      <point x="230" y="-120"/>
      <point x="246" y="-48" type="curve"/>
      <point x="234" y="-40" type="line"/>
      <point x="154" y="-48" type="line"/>
      <point x="142" y="-76"/>
      <point x="138" y="-112"/>
      <point x="138" y="-132" type="curve"/>
      <point x="194" y="-136" type="line"/>
      <point x="186" y="-128" type="line"/>
      <point x="180" y="-156"/>
      <point x="151" y="-191"/>
      <point x="112" y="-218" type="curve"/>
    </contour>
  </outline>
</glyph>
<glyph name="cedillacomb" format="2">
  <advance width="400"/>
  <unicode hex="0327"/>
  <anchor x="200" y="0" name="_bottom"/>
  <outline>
    <contour>
      <point x="142" y="-264" type="curve"/>
      <point x="230" y="-240"/>
      <point x="292" y="-188"/>
      <point x="292" y="-136" type="curve" smooth="yes"/>
      <point x="292" y="-96"/>
      <point x="257" y="-68"/>
      <point x="208" y="-68" type="curve"/>
      <point x="154" y="-100" type="line"/>
      <point x="152" y="-98" type="line"/>
      <point x="216" y="4" type="line"/>
      <point x="208" y="10" type="line"/>
      <point x="130" y="-112" type="line"/>
      <point x="138" y="-120" type="line"/>
      <point x="154" y="-110"/>
      <point x="174" y="-104"/>
      <point x="190" y="-104" type="curve" smooth="yes"/>
      <point x="218" y="-104"/>
      <point x="236" y="-124"/>
      <point x="236" y="-156" type="curve" smooth="yes"/>
      <point x="236" y="-190"/>
      <point x="215" y="-219"/>
      <point x="180" y="-236" type="curve"/>
      <point x="100" y="-186" type="line"/>
      <point x="84" y="-188" type="line"/>
      <point x="58" y="-228" type="line"/>
      <point x="86" y="-252"/>
      <point x="122" y="-264"/>
    </contour>
  </outline>
</glyph>
<glyph name="ogonekcomb" format="2">
  <advance width="400"/>
  <unicode hex="0328"/>
  <anchor x="200" y="0" name="_ogonek"/>
  <outline>
    <contour>
      <point x="120" y="-222" type="curve"/>
      <point x="233" y="-120" type="line"/>
      <point x="226" y="-112" type="line"/>
      <point x="206" y="-132"/>
      <point x="184" y="-152"/>
      <point x="156" y="-168" type="curve"/>
      <point x="124" y="-168"/>
      <point x="104" y="-151"/>
      <point x="104" y="-124" type="curve" smooth="yes"/>
      <point x="104" y="-88"/>
      <point x="140" y="-41"/>
      <point x="200" y="0" type="curve"/>
      <point x="196" y="6" type="line"/>
      <point x="108" y="-38"/>
      <point x="44" y="-104"/>
      <point x="44" y="-160" type="curve" smooth="yes"/>
      <point x="44" y="-196"/>
      <point x="72" y="-222"/>
    </contour>
  </outline>
</glyph>
<glyph name="Germandbls" format="2">
  <advance width="612"/>
  <unicode hex="1E9E"/>
  <outline>
    <contour>
      <point x="-159" y="-264" type="curve"/>
      <point x="-79" y="-242"/>
      <point x="22" y="-164"/>
      <point x="98" y="-64" type="curve"/>
      <point x="284" y="580" type="line" smooth="yes"/>
      <point x="297" y="626"/>
      <point x="341" y="669"/>
      <point x="396" y="688" type="curve"/>
      <point x="450" y="676"/>
      <point x="484" y="626"/>
      <point x="484" y="560" type="curve" smooth="yes"/>
      <point x="484" y="512"/>
      <point x="464" y="462"/>
      <point x="432" y="428" type="curve" smooth="yes"/>
      <point x="372" y="364" type="line"/>
      <point x="460" y="280"/>
      <point x="524" y="196"/>
      <point x="524" y="124" type="curve"/>
      <point x="502" y="83"/>
      <point x="468" y="56"/>
      <point x="408" y="36" type="curve"/>
      <point x="252" y="120" type="line"/>
      <point x="220" y="116" type="line"/>
      <point x="188" y="52" type="line"/>
      <point x="222" y="12"/>
      <point x="278" y="-14"/>
      <point x="330" y="-14" type="curve"/>
      <point x="482" y="21"/>
      <point x="580" y="105"/>
      <point x="580" y="208" type="curve" smooth="yes"/>
      <point x="580" y="280"/>
      <point x="528" y="348"/>
      <point x="448" y="420" type="curve"/>
      <point x="449" y="424" type="line"/>
      <point x="533" y="452"/>
      <point x="584" y="520"/>
      <point x="584" y="584" type="curve" smooth="yes"/>
      <point x="584" y="660"/>
      <point x="514" y="714"/>
      <point x="416" y="714" type="curve"/>
      <point x="338" y="689"/>
      <point x="234" y="615"/>
      <point x="174" y="538" type="curve"/>
      <point x="-15" y="-116" type="line"/>
      <point x="-30" y="-166"/>
      <point x="-56" y="-200"/>
      <point x="-96" y="-220" type="curve"/>
      <point x="-235" y="-132" type="line"/>
      <point x="-264" y="-136" type="line"/>
      <point x="-309" y="-212" type="line"/>
      <point x="-261" y="-248"/>
      <point x="-207" y="-264"/>
    </contour>
    <contour>
      <point x="84" y="454" type="line"/>
      <point x="217" y="454" type="line"/>
      <point x="221" y="470" type="line"/>
      <point x="88" y="470" type="line"/>
    </contour>
  </outline>
</glyph>
<glyph name="endash" format="2">
  <advance width="412"/>
  <unicode hex="2013"/>
  <outline>
    <contour>
      <point x="53" y="264" type="line"/>
      <point x="385" y="264" type="line"/>
      <point x="391" y="296" type="line"/>
      <point x="59" y="296" type="line"/>
    </contour>
  </outline>
</glyph>
<glyph name="quoteright" format="2">
  <advance width="200"/>
  <unicode hex="2019"/>
  <outline>
    <contour>
      <point x="166" y="556" type="line"/>
      <point x="234" y="604"/>
      <point x="270" y="656"/>
      <point x="294" y="748" type="curve"/>
      <point x="284" y="760" type="line"/>
      <point x="194" y="750" type="line"/>
      <point x="184" y="722"/>
      <point x="182" y="688"/>
      <point x="182" y="664" type="curve"/>
      <point x="242" y="658" type="line"/>
      <point x="230" y="668" type="line"/>
      <point x="224" y="632"/>
      <point x="198" y="596"/>
      <point x="158" y="568" type="curve"/>
    </contour>
  </outline>
</glyph>
<glyph name="quotesinglbase" format="2">
  <advance width="218"/>
  <unicode hex="201A"/>
  <outline>
    <contour>
      <point x="-5" y="-108" type="line"/>
      <point x="63" y="-60"/>
      <point x="99" y="-8"/>
      <point x="123" y="84" type="curve"/>
      <point x="113" y="96" type="line"/>
      <point x="23" y="86" type="line"/>
      <point x="13" y="58"/>
      <point x="11" y="24"/>
      <point x="11" y="0" type="curve"/>
      <point x="71" y="-6" type="line"/>
      <point x="59" y="4" type="line"/>
      <point x="53" y="-32"/>
      <point x="27" y="-68"/>
      <point x="-13" y="-96" type="curve"/>
    </contour>
  </outline>
</glyph>
<glyph name="dagger" format="2">
  <advance width="292"/>
  <unicode hex="2020"/>
  <outline>
    <contour>
      <point x="46" y="0" type="line"/>
      <point x="68" y="0" type="line"/>
      <point x="162" y="299" type="line" smooth="yes"/>
      <point x="187" y="378"/>
      <point x="212" y="426"/>
      <point x="239" y="473" type="curve"/>
      <point x="226" y="499"/>
      <point x="233" y="531"/>
      <point x="252" y="594" type="curve"/>
      <point x="294" y="594"/>
      <point x="314" y="572"/>
      <point x="334" y="572" type="curve"/>
      <point x="375" y="603" type="line"/>
      <point x="352" y="632" type="line"/>
      <point x="332" y="632"/>
      <point x="300" y="612"/>
      <point x="258" y="612" type="curve"/>
      <point x="281" y="688"/>
      <point x="308" y="706"/>
      <point x="314" y="726" type="curve"/>
      <point x="292" y="759" type="line"/>
      <point x="250" y="726" type="line"/>
      <point x="244" y="706"/>
      <point x="260" y="688"/>
      <point x="237" y="612" type="curve"/>
      <point x="194" y="612"/>
      <point x="174" y="632"/>
      <point x="154" y="632" type="curve"/>
      <point x="113" y="603" type="line"/>
      <point x="136" y="572" type="line"/>
      <point x="156" y="572"/>
      <point x="188" y="594"/>
      <point x="231" y="594" type="curve"/>
      <point x="212" y="531"/>
      <point x="198" y="499"/>
      <point x="169" y="473" type="curve"/>
      <point x="168" y="426"/>
      <point x="165" y="378"/>
      <point x="140" y="299" type="curve" smooth="yes"/>
    </contour>
  </outline>
</glyph>
<glyph name="daggerdbl" format="2">
  <advance width="323"/>
  <unicode hex="2021"/>
  <outline>
    <contour>
      <point x="-35" y="51" type="line"/>
      <point x="-12" y="22" type="line"/>
      <point x="8" y="22"/>
      <point x="40" y="42"/>
      <point x="83" y="42" type="curve"/>
      <point x="60" y="-34"/>
      <point x="32" y="-52"/>
      <point x="26" y="-72" type="curve"/>
      <point x="48" y="-105" type="line"/>
      <point x="90" y="-72" type="line"/>
      <point x="96" y="-52"/>
      <point x="81" y="-34"/>
      <point x="104" y="42" type="curve"/>
      <point x="146" y="42"/>
      <point x="166" y="22"/>
      <point x="186" y="22" type="curve"/>
      <point x="227" y="51" type="line"/>
      <point x="204" y="82" type="line"/>
      <point x="184" y="82"/>
      <point x="151" y="60"/>
      <point x="109" y="60" type="curve"/>
      <point x="129" y="123"/>
      <point x="141" y="155"/>
      <point x="170" y="181" type="curve"/>
      <point x="172" y="222"/>
      <point x="171" y="264"/>
      <point x="191" y="327" type="curve" smooth="yes"/>
      <point x="211" y="392"/>
      <point x="236" y="432"/>
      <point x="260" y="473" type="curve"/>
      <point x="247" y="499"/>
      <point x="253" y="531"/>
      <point x="273" y="594" type="curve"/>
      <point x="315" y="594"/>
      <point x="334" y="572"/>
      <point x="354" y="572" type="curve"/>
      <point x="395" y="603" type="line"/>
      <point x="372" y="632" type="line"/>
      <point x="352" y="632"/>
      <point x="320" y="612"/>
      <point x="278" y="612" type="curve"/>
      <point x="301" y="688"/>
      <point x="328" y="706"/>
      <point x="334" y="726" type="curve"/>
      <point x="312" y="759" type="line"/>
      <point x="270" y="726" type="line"/>
      <point x="264" y="706"/>
      <point x="280" y="688"/>
      <point x="257" y="612" type="curve"/>
      <point x="214" y="612"/>
      <point x="194" y="632"/>
      <point x="174" y="632" type="curve"/>
      <point x="133" y="603" type="line"/>
      <point x="156" y="572" type="line"/>
      <point x="176" y="572"/>
      <point x="209" y="594"/>
      <point x="252" y="594" type="curve"/>
      <point x="232" y="531"/>
      <point x="219" y="499"/>
      <point x="190" y="473" type="curve"/>
      <point x="188" y="432"/>
      <point x="189" y="390"/>
      <point x="169" y="327" type="curve" smooth="yes"/>
      <point x="149" y="262"/>
      <point x="124" y="222"/>
      <point x="100" y="181" type="curve"/>
      <point x="113" y="155"/>
      <point x="108" y="123"/>
      <point x="88" y="60" type="curve"/>
      <point x="45" y="60"/>
      <point x="26" y="82"/>
      <point x="6" y="82" type="curve"/>
    </contour>
  </outline>
</glyph>
<glyph name="bullet" format="2">
  <advance width="374"/>
  <unicode hex="2022"/>
  <outline>
    <contour>
      <point x="202" y="180" type="curve" smooth="yes"/>
      <point x="259" y="180"/>
      <point x="304" y="225"/>
      <point x="304" y="284" type="curve" smooth="yes"/>
      <point x="304" y="343"/>
      <point x="259" y="388"/>
      <point x="202" y="388" type="curve" smooth="yes"/>
      <point x="145" y="388"/>
      <point x="100" y="343"/>
      <point x="100" y="284" type="curve" smooth="yes"/>
      <point x="100" y="225"/>
      <point x="145" y="180"/>
    </contour>
  </outline>
</glyph>
<glyph name="perthousand" format="2">
  <advance width="892"/>
  <unicode hex="2030"/>
  <outline>
    <contour>
      <point x="663" y="-8" type="curve"/>
      <point x="762" y="23"/>
      <point x="833" y="103"/>
      <point x="833" y="201" type="curve" smooth="yes"/>
      <point x="833" y="254"/>
      <point x="802" y="295"/>
      <point x="743" y="297" type="curve"/>
      <point x="648" y="268"/>
      <point x="574" y="184"/>
      <point x="574" y="91" type="curve" smooth="yes"/>
      <point x="574" y="37"/>
      <point x="607" y="-8"/>
    </contour>
    <contour>
      <point x="679" y="8" type="curve"/>
      <point x="653" y="9"/>
      <point x="636" y="48"/>
      <point x="636" y="103" type="curve" smooth="yes"/>
      <point x="636" y="177"/>
      <point x="672" y="253"/>
      <point x="726" y="280" type="curve"/>
      <point x="752" y="280"/>
      <point x="769" y="242"/>
      <point x="769" y="190" type="curve" smooth="yes"/>
      <point x="769" y="109"/>
      <point x="730" y="33"/>
    </contour>
    <component base="percent"/>
  </outline>
</glyph>
<glyph name="guilsinglleft" format="2">
  <advance width="288"/>
  <unicode hex="2039"/>
  <outline>
    <contour>
      <point x="176" y="16" type="line"/>
      <point x="186" y="20" type="line"/>
      <point x="108" y="238" type="line"/>
      <point x="262" y="449" type="line"/>
      <point x="254" y="456" type="line"/>
      <point x="34" y="240" type="line"/>
    </contour>
  </outline>
</glyph>
<glyph name="guilsinglright" format="2">
  <advance width="296"/>
  <unicode hex="203A"/>
  <outline>
    <contour>
      <point x="38" y="16" type="line"/>
      <point x="262" y="240" type="line"/>
      <point x="124" y="456" type="line"/>
      <point x="114" y="452" type="line"/>
      <point x="188" y="238" type="line"/>
      <point x="30" y="23" type="line"/>
    </contour>
  </outline>
</glyph>
<glyph name="fraction" format="2">
  <advance width="574"/>
  <unicode hex="2044"/>
  <outline>
    <contour>
      <point x="-108" y="-250" type="line"/>
      <point x="-71" y="-250" type="line"/>
      <point x="691" y="750" type="line"/>
      <point x="654" y="750" type="line"/>
    </contour>
  </outline>
</glyph>
<glyph name="euro" format="2">
  <advance width="624"/>
  <unicode hex="20AC"/>
  <outline>
    <contour>
      <point x="35" y="307" type="line"/>
      <point x="498" y="307" type="line"/>
      <point x="505" y="330" type="line"/>
      <point x="42" y="330" type="line"/>
    </contour>
    <contour>
      <point x="56" y="377" type="line"/>
      <point x="519" y="377" type="line"/>
      <point x="525" y="400" type="line"/>
      <point x="62" y="400" type="line"/>
    </contour>
    <component base="C" xOffset="56"/>
  </outline>
</glyph>
<glyph name="trademark" format="2">
  <advance width="621"/>
  <unicode hex="2122"/>
  <outline>
    <contour>
      <point x="153" y="407" type="line" name="_corner01"/>
      <point x="211" y="407" type="line" name="_corner00"/>
      <point x="295" y="701" type="line"/>
      <point x="237" y="701" type="line"/>
    </contour>
    <contour>
      <point x="127" y="606" type="line"/>
      <point x="133" y="605" type="line"/>
      <point x="185" y="690" type="line"/>
      <point x="335" y="690" type="line"/>
      <point x="351" y="606" type="line"/>
      <point x="357" y="606" type="line"/>
      <point x="382" y="701" type="line"/>
      <point x="142" y="701" type="line"/>
    </contour>
    <contour>
      <point x="336" y="407" type="line" name="_corner07"/>
      <point x="347" y="407" type="line" name="_corner02"/>
      <point x="425" y="686" type="line"/>
      <point x="429" y="686" type="line"/>
      <point x="450" y="407" type="line"/>
      <point x="485" y="407" type="line"/>
      <point x="650" y="685" type="line"/>
      <point x="653" y="685" type="line"/>
      <point x="574" y="407" type="line" name="_corner03"/>
      <point x="631" y="407" type="line" name="_corner04"/>
      <point x="715" y="701" type="line" name="_corner05"/>
      <point x="648" y="701" type="line"/>
      <point x="507" y="463" type="line"/>
      <point x="503" y="463" type="line"/>
      <point x="485" y="701" type="line"/>
      <point x="420" y="701" type="line" name="_corner06"/>
    </contour>
  </outline>
</glyph>
<glyph name="minus" format="2">
  <advance width="456"/>
  <unicode hex="2212"/>
  <outline>
    <contour>
      <point x="34" y="216" type="line"/>
      <point x="410" y="216" type="line"/>
      <point x="422" y="256" type="line"/>
      <point x="46" y="256" type="line"/>
    </contour>
  </outline>
</glyph>
<glyph name="approxequal" format="2">
  <advance width="510"/>
  <unicode hex="2248"/>
  <outline>
    <contour>
      <point x="80" y="256" type="line"/>
      <point x="108" y="284"/>
      <point x="146" y="301"/>
      <point x="182" y="301" type="curve" smooth="yes"/>
      <point x="242" y="301"/>
      <point x="283" y="257"/>
      <point x="351" y="257" type="curve" smooth="yes"/>
      <point x="396" y="257"/>
      <point x="453" y="278"/>
      <point x="493" y="318" type="curve"/>
      <point x="467" y="341" type="line"/>
      <point x="439" y="313"/>
      <point x="400" y="295"/>
      <point x="364" y="295" type="curve" smooth="yes"/>
      <point x="304" y="295"/>
      <point x="263" y="339"/>
      <point x="195" y="339" type="curve" smooth="yes"/>
      <point x="150" y="339"/>
      <point x="93" y="318"/>
      <point x="53" y="278" type="curve"/>
    </contour>
    <contour>
      <point x="44" y="131" type="line"/>
      <point x="72" y="159"/>
      <point x="110" y="176"/>
      <point x="146" y="176" type="curve" smooth="yes"/>
      <point x="206" y="176"/>
      <point x="247" y="132"/>
      <point x="315" y="132" type="curve" smooth="yes"/>
      <point x="360" y="132"/>
      <point x="417" y="153"/>
      <point x="457" y="193" type="curve"/>
      <point x="431" y="216" type="line"/>
      <point x="403" y="188"/>
      <point x="364" y="170"/>
      <point x="328" y="170" type="curve" smooth="yes"/>
      <point x="268" y="170"/>
      <point x="227" y="214"/>
      <point x="159" y="214" type="curve" smooth="yes"/>
      <point x="114" y="214"/>
      <point x="57" y="193"/>
      <point x="17" y="153" type="curve"/>
    </contour>
  </outline>
</glyph>
<glyph name="notequal" format="2">
  <advance width="457"/>
  <unicode hex="2260"/>
  <outline>
    <contour>
      <point x="130" y="44" type="line"/>
      <point x="165" y="34" type="line"/>
      <point x="318" y="426" type="line"/>
      <point x="283" y="436" type="line"/>
    </contour>
    <component base="equal" xOffset="10"/>
  </outline>
</glyph>
<glyph name="fi" format="2">
  <advance width="592"/>
  <unicode hex="FB01"/>
  <anchor x="278" y="0" name="caret_1"/>
  <outline>
    <contour>
      <point x="-46" y="-200" type="curve"/>
      <point x="-42" y="-205" type="line"/>
      <point x="13" y="-141"/>
      <point x="102" y="-29"/>
      <point x="113" y="-6" type="curve"/>
      <point x="134" y="67"/>
      <point x="193" y="273"/>
      <point x="244" y="446" type="curve"/>
      <point x="352" y="444" type="line"/>
      <point x="391" y="454" type="line"/>
      <point x="394" y="465" type="line"/>
      <point x="249" y="459" type="line"/>
      <point x="272" y="538"/>
      <point x="293" y="610"/>
      <point x="309" y="658" type="curve"/>
      <point x="309" y="663"/>
      <point x="370" y="685"/>
      <point x="412" y="685" type="curve" smooth="yes"/>
      <point x="428" y="685"/>
      <point x="535" y="684"/>
      <point x="562" y="663" type="curve"/>
      <point x="622" y="724" type="line"/>
      <point x="568" y="765"/>
      <point x="476" y="762"/>
      <point x="442" y="762" type="curve"/>
      <point x="373" y="750"/>
      <point x="188" y="569"/>
      <point x="169" y="502" type="curve" smooth="yes"/>
      <point x="158" y="463" type="line"/>
      <point x="89" y="462" type="line"/>
      <point x="94" y="438" type="line"/>
      <point x="152" y="445" type="line"/>
      <point x="62" y="124" type="line"/>
      <point x="51" y="76"/>
      <point x="-11" y="-147"/>
    </contour>
    <contour>
      <point x="-42" y="-205" type="curve"/>
      <point x="-46" y="-199" type="line"/>
      <point x="-63" y="-218"/>
      <point x="-80" y="-221"/>
      <point x="-104" y="-221" type="curve" smooth="yes"/>
      <point x="-126" y="-221"/>
      <point x="-184" y="-187"/>
      <point x="-213" y="-169" type="curve"/>
      <point x="-305" y="-201" type="line"/>
      <point x="-252" y="-235"/>
      <point x="-195" y="-275"/>
      <point x="-139" y="-275" type="curve"/>
      <point x="-107" y="-255"/>
      <point x="-73" y="-231"/>
    </contour>
    <contour>
      <point x="319" y="46" type="line"/>
      <point x="337" y="16"/>
      <point x="349" y="3"/>
      <point x="373" y="-15" type="curve"/>
      <point x="394" y="-1" type="line"/>
      <point x="535" y="473" type="line"/>
      <point x="524" y="475" type="line"/>
      <point x="351" y="461" type="line"/>
      <point x="236" y="446" type="line"/>
      <point x="437" y="437" type="line"/>
    </contour>
  </outline>
</glyph>
<glyph name="A.001" format="2">
  <advance width="687"/>
  <outline>
    <contour>
      <point x="637" y="690" type="curve"/>
      <point x="696" y="702" type="line"/>
      <point x="535" y="702"/>
      <point x="158" y="642"/>
      <point x="150" y="574" type="curve" smooth="yes"/>
      <point x="143" y="523"/>
      <point x="212" y="476"/>
      <point x="245" y="475" type="curve"/>
      <point x="245" y="481" type="line"/>
      <point x="214" y="484"/>
      <point x="184" y="537"/>
      <point x="188" y="573" type="curve"/>
      <point x="199" y="647"/>
      <point x="592" y="690"/>
    </contour>
    <contour>
      <point x="299" y="251" type="line" smooth="yes"/>
      <point x="229" y="251"/>
      <point x="187" y="296"/>
      <point x="187" y="300" type="curve"/>
      <point x="186" y="300" type="line"/>
      <point x="101" y="264" type="line"/>
      <point x="101" y="262"/>
      <point x="124" y="235"/>
      <point x="223" y="235" type="curve" smooth="yes"/>
      <point x="511" y="228" type="line"/>
      <point x="536" y="244" type="line"/>
    </contour>
    <contour>
      <point x="520" y="-3" type="line"/>
      <point x="623" y="38" type="line"/>
      <point x="619" y="46" type="line"/>
      <point x="520" y="17" type="line"/>
    </contour>
    <contour>
      <point x="-130" y="-87" type="line"/>
      <point x="-114" y="-101"/>
      <point x="-77" y="-108"/>
      <point x="-50" y="-108" type="curve" smooth="yes"/>
      <point x="-22" y="-108"/>
      <point x="586" y="626"/>
      <point x="607" y="651" type="curve"/>
      <point x="435" y="31" type="line"/>
      <point x="450" y="8"/>
      <point x="454" y="-3"/>
      <point x="482" y="-19" type="curve"/>
      <point x="527" y="0" type="line"/>
      <point x="706" y="689" type="line"/>
      <point x="696" y="702" type="line"/>
      <point x="611" y="693" type="line"/>
      <point x="56" y="23" type="line" smooth="yes"/>
      <point x="29" y="-11"/>
      <point x="-19" y="-5"/>
      <point x="-54" y="-5" type="curve"/>
    </contour>
  </outline>
</glyph>
<glyph name="F.001" format="2">
  <advance width="553"/>
  <outline>
    <contour>
      <point x="15" y="582" type="curve" smooth="yes"/>
      <point x="16" y="531"/>
      <point x="96" y="498"/>
      <point x="129" y="504" type="curve"/>
      <point x="128" y="510" type="line"/>
      <point x="97" y="506"/>
      <point x="53" y="552"/>
      <point x="53" y="588" type="curve" smooth="yes"/>
      <point x="53" y="664"/>
      <point x="211" y="690"/>
      <point x="282" y="689" type="curve"/>
      <point x="44" y="-70" type="line"/>
      <point x="70" y="-70"/>
      <point x="163" y="-23"/>
      <point x="171" y="0" type="curve"/>
      <point x="270" y="324" type="line"/>
      <point x="450" y="324" type="line"/>
      <point x="464" y="228" type="line"/>
      <point x="470" y="228" type="line"/>
      <point x="499" y="324" type="line"/>
      <point x="505" y="343" type="line"/>
      <point x="535" y="440" type="line"/>
      <point x="529" y="440" type="line"/>
      <point x="456" y="343" type="line"/>
      <point x="276" y="343" type="line"/>
      <point x="379" y="681" type="line"/>
      <point x="568" y="681" type="line"/>
      <point x="593" y="651"/>
      <point x="613" y="547"/>
      <point x="619" y="516" type="curve"/>
      <point x="625" y="516" type="line"/>
      <point x="684" y="703" type="line"/>
      <point x="656" y="700" type="line"/>
      <point x="305" y="700" type="line"/>
      <point x="248" y="702"/>
      <point x="13" y="677"/>
    </contour>
  </outline>
</glyph>
<glyph name="J.001" format="2">
  <advance width="447"/>
  <outline>
    <contour>
      <point x="531" y="643" type="curve"/>
      <point x="514" y="668"/>
      <point x="476" y="700"/>
      <point x="447" y="700" type="curve"/>
      <point x="180" y="-178" type="line"/>
      <point x="169" y="-204"/>
      <point x="146" y="-216"/>
      <point x="113" y="-216" type="curve" smooth="yes"/>
      <point x="88" y="-216"/>
      <point x="60" y="-197"/>
      <point x="35" y="-172" type="curve"/>
      <point x="-45" y="-233" type="line"/>
      <point x="-25" y="-254"/>
      <point x="15" y="-271"/>
      <point x="59" y="-274" type="curve"/>
      <point x="128" y="-271"/>
      <point x="309" y="-96"/>
      <point x="334" y="-12" type="curve"/>
      <point x="334" y="15"/>
      <point x="531" y="602"/>
    </contour>
    <contour>
      <point x="159" y="582" type="curve" smooth="yes"/>
      <point x="160" y="531"/>
      <point x="240" y="498"/>
      <point x="273" y="504" type="curve"/>
      <point x="272" y="510" type="line"/>
      <point x="241" y="506"/>
      <point x="197" y="552"/>
      <point x="197" y="588" type="curve" smooth="yes"/>
      <point x="197" y="678"/>
      <point x="419" y="698"/>
      <point x="456" y="685" type="curve"/>
      <point x="449" y="700" type="line"/>
      <point x="392" y="702"/>
      <point x="157" y="677"/>
    </contour>
  </outline>
</glyph>
<glyph name="K.001" format="2">
  <advance width="468"/>
  <outline>
    <contour>
      <point x="-17" y="-3" type="line"/>
      <point x="95" y="0" type="line"/>
      <point x="105" y="23" type="line"/>
      <point x="89" y="23" type="line"/>
      <point x="364" y="742" type="line"/>
      <point x="361" y="747"/>
      <point x="357" y="754"/>
      <point x="351" y="758" type="curve"/>
      <point x="148" y="680" type="line"/>
      <point x="151" y="672" type="line"/>
      <point x="254" y="708" type="line"/>
    </contour>
    <contour>
      <point x="92" y="16" type="curve"/>
      <point x="102" y="16" type="line"/>
      <point x="277" y="400"/>
      <point x="515" y="687"/>
      <point x="538" y="687" type="curve"/>
      <point x="696" y="713" type="line"/>
      <point x="696" y="740" type="line" smooth="yes"/>
      <point x="696" y="760"/>
      <point x="654" y="781"/>
      <point x="612" y="780" type="curve"/>
      <point x="566" y="771"/>
      <point x="256" y="440"/>
    </contour>
    <contour>
      <point x="329" y="329" type="curve"/>
      <point x="236" y="313" type="line"/>
      <point x="237" y="303" type="line"/>
      <point x="239" y="293"/>
      <point x="243" y="291"/>
      <point x="243" y="279" type="curve" smooth="yes"/>
      <point x="243" y="199"/>
      <point x="404" y="-296"/>
      <point x="696" y="-296" type="curve" smooth="yes"/>
      <point x="738" y="-296"/>
      <point x="840" y="-178"/>
      <point x="840" y="-64" type="curve" smooth="yes"/>
      <point x="840" y="-48"/>
      <point x="779" y="10"/>
      <point x="764" y="10" type="curve"/>
      <point x="740" y="-7"/>
      <point x="715" y="-33"/>
      <point x="691" y="-61" type="curve"/>
      <point x="749" y="-61"/>
      <point x="790" y="-249"/>
      <point x="738" y="-249" type="curve" smooth="yes"/>
      <point x="537" y="-249"/>
      <point x="329" y="166"/>
    </contour>
  </outline>
</glyph>
<glyph name="N.001" format="2">
  <advance width="513"/>
  <outline>
    <contour>
      <point x="301" y="0" type="line"/>
      <point x="340" y="0" type="line"/>
      <point x="363" y="155" type="line"/>
      <point x="256" y="703" type="line"/>
      <point x="190" y="700" type="line"/>
      <point x="171" y="700" type="line"/>
      <point x="170" y="661" type="line"/>
    </contour>
    <contour>
      <point x="175" y="700" type="line"/>
      <point x="70" y="700" type="line"/>
      <point x="66" y="687" type="line"/>
      <point x="154" y="673" type="line"/>
    </contour>
    <contour>
      <point x="325" y="0" type="curve"/>
      <point x="351" y="0" type="line"/>
      <point x="396" y="157"/>
      <point x="567" y="529"/>
      <point x="567" y="649" type="curve" smooth="yes"/>
      <point x="567" y="673"/>
      <point x="546" y="742"/>
      <point x="506" y="754" type="curve"/>
      <point x="488" y="747"/>
      <point x="412" y="705"/>
      <point x="393" y="688" type="curve"/>
      <point x="430" y="681"/>
      <point x="549" y="624"/>
      <point x="526" y="539" type="curve" smooth="yes"/>
      <point x="485" y="377"/>
      <point x="381" y="201"/>
    </contour>
    <contour>
      <point x="161" y="698" type="line"/>
      <point x="-61" y="0" type="line"/>
      <point x="-95" y="-80"/>
      <point x="-192" y="-89"/>
      <point x="-226" y="-72" type="curve"/>
      <point x="-221" y="-97"/>
      <point x="-217" y="-177"/>
      <point x="-208" y="-194" type="curve"/>
      <point x="-168" y="-208"/>
      <point x="-110" y="-167"/>
      <point x="-94" y="-148" type="curve" smooth="yes"/>
      <point x="-20" y="-55"/>
      <point x="141" y="546"/>
      <point x="186" y="698" type="curve"/>
    </contour>
  </outline>
</glyph>
<glyph name="R.001" format="2">
  <advance width="568"/>
  <outline>
    <contour>
      <point x="240" y="344" type="curve"/>
      <point x="336" y="672" type="line"/>
      <point x="347" y="680"/>
      <point x="376" y="684"/>
      <point x="393" y="685" type="curve"/>
      <point x="455" y="684"/>
      <point x="503" y="637"/>
      <point x="503" y="578" type="curve" smooth="yes"/>
      <point x="503" y="468"/>
      <point x="437" y="338"/>
      <point x="295" y="338" type="curve" smooth="yes"/>
      <point x="274" y="338"/>
      <point x="264" y="339"/>
    </contour>
    <contour>
      <point x="-52" y="0" type="line"/>
      <point x="138" y="0" type="line"/>
      <point x="231" y="322" type="line"/>
      <point x="313" y="323" type="line"/>
      <point x="336" y="165"/>
      <point x="411" y="-296"/>
      <point x="735" y="-296" type="curve" smooth="yes"/>
      <point x="777" y="-296"/>
      <point x="920" y="-167"/>
      <point x="919" y="-53" type="curve"/>
      <point x="919" y="-18"/>
      <point x="901" y="15"/>
      <point x="868" y="43" type="curve"/>
      <point x="844" y="26"/>
      <point x="819" y="0"/>
      <point x="795" y="-28" type="curve"/>
      <point x="853" y="-28"/>
      <point x="829" y="-258"/>
      <point x="777" y="-258" type="curve" smooth="yes"/>
      <point x="576" y="-258"/>
      <point x="408" y="167"/>
      <point x="408" y="330" type="curve"/>
      <point x="370" y="326" type="line"/>
      <point x="465" y="347"/>
      <point x="599" y="494"/>
      <point x="599" y="584" type="curve" smooth="yes"/>
      <point x="599" y="678"/>
      <point x="513" y="701"/>
      <point x="423" y="701" type="curve" smooth="yes"/>
      <point x="158" y="700" type="line"/>
      <point x="156" y="694" type="line"/>
      <point x="237" y="674" type="line"/>
      <point x="43" y="26" type="line"/>
      <point x="-48" y="11" type="line"/>
    </contour>
  </outline>
</glyph>
<glyph name="R.003" format="2">
  <advance width="730"/>
  <outline>
    <contour>
      <point x="360" y="344" type="curve"/>
      <point x="456" y="672" type="line"/>
      <point x="467" y="680"/>
      <point x="496" y="684"/>
      <point x="513" y="685" type="curve"/>
      <point x="575" y="684"/>
      <point x="623" y="637"/>
      <point x="623" y="578" type="curve" smooth="yes"/>
      <point x="623" y="468"/>
      <point x="557" y="338"/>
      <point x="415" y="338" type="curve" smooth="yes"/>
      <point x="394" y="338"/>
      <point x="384" y="339"/>
    </contour>
    <contour>
      <point x="68" y="0" type="line"/>
      <point x="258" y="0" type="line"/>
      <point x="351" y="322" type="line"/>
      <point x="433" y="323" type="line"/>
      <point x="433" y="298"/>
      <point x="512" y="-26"/>
      <point x="577" y="-26" type="curve"/>
      <point x="702" y="54" type="line"/>
      <point x="697" y="60" type="line"/>
      <point x="648" y="30" type="line"/>
      <point x="603" y="30"/>
      <point x="528" y="304"/>
      <point x="528" y="330" type="curve"/>
      <point x="490" y="326" type="line"/>
      <point x="585" y="347"/>
      <point x="719" y="494"/>
      <point x="719" y="584" type="curve" smooth="yes"/>
      <point x="719" y="678"/>
      <point x="633" y="701"/>
      <point x="543" y="701" type="curve" smooth="yes"/>
      <point x="415" y="700" type="line"/>
      <point x="358" y="702"/>
      <point x="123" y="677"/>
      <point x="125" y="582" type="curve" smooth="yes"/>
      <point x="126" y="531"/>
      <point x="206" y="498"/>
      <point x="239" y="504" type="curve"/>
      <point x="238" y="510" type="line"/>
      <point x="207" y="506"/>
      <point x="171" y="552"/>
      <point x="171" y="588" type="curve" smooth="yes"/>
      <point x="171" y="656"/>
      <point x="292" y="684"/>
      <point x="368" y="688" type="curve"/>
      <point x="364" y="687" type="line"/>
      <point x="163" y="26" type="line"/>
      <point x="72" y="11" type="line"/>
    </contour>
  </outline>
</glyph>
<glyph name="T.002" format="2">
  <advance width="505"/>
  <outline>
    <contour>
      <point x="413" y="700" type="line"/>
      <point x="204" y="0" type="line"/>
      <point x="304" y="0" type="line"/>
      <point x="513" y="700" type="line"/>
    </contour>
    <contour>
      <point x="224" y="0" type="line"/>
      <point x="214" y="36" type="line"/>
      <point x="88" y="6" type="line"/>
      <point x="87" y="0" type="line"/>
    </contour>
    <contour>
      <point x="284" y="0" type="line"/>
      <point x="421" y="0" type="line"/>
      <point x="422" y="6" type="line"/>
      <point x="314" y="36" type="line"/>
    </contour>
    <contour>
      <point x="781" y="745" type="line"/>
      <point x="767" y="746" type="line"/>
      <point x="699" y="700"/>
      <point x="664" y="700"/>
      <point x="606" y="700" type="curve" smooth="yes"/>
      <point x="464" y="700" type="line"/>
      <point x="458" y="681" type="line"/>
      <point x="508" y="681" type="line"/>
      <point x="586" y="678"/>
      <point x="642" y="653"/>
      <point x="701" y="642" type="curve"/>
    </contour>
    <contour>
      <point x="98" y="532" type="curve" smooth="yes"/>
      <point x="98" y="506"/>
      <point x="109" y="488"/>
      <point x="121" y="488" type="curve"/>
      <point x="200" y="568" type="line"/>
      <point x="180" y="568"/>
      <point x="166" y="599"/>
      <point x="166" y="646" type="curve" smooth="yes"/>
      <point x="166" y="674"/>
      <point x="338" y="681"/>
      <point x="411" y="681" type="curve" smooth="yes"/>
      <point x="458" y="681" type="line"/>
      <point x="464" y="700" type="line"/>
      <point x="229" y="700" type="line" smooth="yes"/>
      <point x="170" y="700"/>
      <point x="98" y="616"/>
    </contour>
  </outline>
</glyph>
<glyph name="T.003" format="2">
  <advance width="565"/>
  <outline>
    <contour>
      <point x="359" y="700" type="line"/>
      <point x="150" y="0" type="line"/>
      <point x="250" y="0" type="line"/>
      <point x="459" y="700" type="line"/>
    </contour>
    <contour>
      <point x="170" y="0" type="line"/>
      <point x="160" y="36" type="line"/>
      <point x="34" y="6" type="line"/>
      <point x="33" y="0" type="line"/>
    </contour>
    <contour>
      <point x="230" y="0" type="line"/>
      <point x="367" y="0" type="line"/>
      <point x="368" y="6" type="line"/>
      <point x="260" y="36" type="line"/>
    </contour>
    <contour>
      <point x="243" y="700" type="line"/>
      <point x="237" y="681" type="line"/>
      <point x="404" y="681" type="line"/>
      <point x="410" y="700" type="line"/>
    </contour>
    <contour>
      <point x="165" y="704" type="line"/>
      <point x="86" y="515" type="line"/>
      <point x="92" y="515" type="line"/>
      <point x="120" y="552"/>
      <point x="249" y="700"/>
      <point x="278" y="699" type="curve"/>
      <point x="236" y="700" type="line" smooth="yes"/>
      <point x="226" y="700"/>
      <point x="191" y="702"/>
      <point x="178" y="704" type="curve"/>
    </contour>
    <contour>
      <point x="587" y="700" type="line"/>
      <point x="410" y="700" type="line"/>
      <point x="404" y="681" type="line"/>
      <point x="581" y="681" type="line"/>
    </contour>
    <contour>
      <point x="720" y="803" type="curve" smooth="yes"/>
      <point x="720" y="829"/>
      <point x="709" y="847"/>
      <point x="697" y="847" type="curve"/>
      <point x="619" y="778" type="line"/>
      <point x="619" y="777" type="line"/>
      <point x="638" y="766"/>
      <point x="652" y="745"/>
      <point x="652" y="725" type="curve" smooth="yes"/>
      <point x="652" y="697"/>
      <point x="480" y="700"/>
      <point x="407" y="700" type="curve" smooth="yes"/>
      <point x="360" y="700" type="line"/>
      <point x="354" y="681" type="line"/>
      <point x="589" y="681" type="line" smooth="yes"/>
      <point x="653" y="681"/>
      <point x="720" y="719"/>
    </contour>
  </outline>
</glyph>
<glyph name="T.004" format="2">
  <advance width="527"/>
  <outline>
    <contour>
      <point x="223" y="700" type="line"/>
      <point x="217" y="681" type="line"/>
      <point x="384" y="681" type="line"/>
      <point x="390" y="700" type="line"/>
    </contour>
    <contour>
      <point x="581" y="700" type="line"/>
      <point x="390" y="700" type="line"/>
      <point x="384" y="681" type="line"/>
      <point x="561" y="681" type="line"/>
    </contour>
    <contour>
      <point x="98" y="532" type="curve" smooth="yes"/>
      <point x="98" y="506"/>
      <point x="109" y="488"/>
      <point x="121" y="488" type="curve"/>
      <point x="199" y="567" type="line"/>
      <point x="199" y="568" type="line"/>
      <point x="180" y="569"/>
      <point x="166" y="600"/>
      <point x="166" y="646" type="curve" smooth="yes"/>
      <point x="166" y="674"/>
      <point x="338" y="681"/>
      <point x="411" y="681" type="curve" smooth="yes"/>
      <point x="458" y="681" type="line"/>
      <point x="464" y="700" type="line"/>
      <point x="229" y="700" type="line" smooth="yes"/>
      <point x="170" y="700"/>
      <point x="98" y="616"/>
    </contour>
    <contour>
      <point x="413" y="700" type="line"/>
      <point x="204" y="0" type="line"/>
      <point x="304" y="0" type="line"/>
      <point x="513" y="700" type="line"/>
    </contour>
    <contour>
      <point x="224" y="0" type="line"/>
      <point x="214" y="36" type="line"/>
      <point x="88" y="6" type="line"/>
      <point x="87" y="0" type="line"/>
    </contour>
    <contour>
      <point x="284" y="0" type="line"/>
      <point x="421" y="0" type="line"/>
      <point x="422" y="6" type="line"/>
      <point x="314" y="36" type="line"/>
    </contour>
    <contour>
      <point x="814" y="803" type="curve" smooth="yes"/>
      <point x="814" y="829"/>
      <point x="803" y="847"/>
      <point x="791" y="847" type="curve"/>
      <point x="713" y="778" type="line"/>
      <point x="713" y="777" type="line"/>
      <point x="732" y="766"/>
      <point x="746" y="745"/>
      <point x="746" y="725" type="curve" smooth="yes"/>
      <point x="746" y="697"/>
      <point x="574" y="700"/>
      <point x="501" y="700" type="curve" smooth="yes"/>
      <point x="454" y="700" type="line"/>
      <point x="448" y="681" type="line"/>
      <point x="683" y="681" type="line" smooth="yes"/>
      <point x="747" y="681"/>
      <point x="814" y="719"/>
    </contour>
  </outline>
</glyph>
<glyph name="T_h.liga" format="2">
  <advance width="1036"/>
  <outline>
    <contour>
      <point x="339" y="700" type="line"/>
      <point x="130" y="0" type="line"/>
      <point x="230" y="0" type="line"/>
      <point x="439" y="700" type="line"/>
    </contour>
    <contour>
      <point x="150" y="0" type="line"/>
      <point x="140" y="36" type="line"/>
      <point x="14" y="6" type="line"/>
      <point x="13" y="0" type="line"/>
    </contour>
    <contour>
      <point x="210" y="0" type="line"/>
      <point x="347" y="0" type="line"/>
      <point x="348" y="6" type="line"/>
      <point x="240" y="36" type="line"/>
    </contour>
    <contour>
      <point x="223" y="700" type="line"/>
      <point x="217" y="681" type="line"/>
      <point x="384" y="681" type="line"/>
      <point x="390" y="700" type="line"/>
    </contour>
    <contour>
      <point x="165" y="704" type="line"/>
      <point x="86" y="515" type="line"/>
      <point x="92" y="515" type="line"/>
      <point x="120" y="552"/>
      <point x="249" y="700"/>
      <point x="278" y="699" type="curve"/>
      <point x="236" y="700" type="line" smooth="yes"/>
      <point x="226" y="700"/>
      <point x="191" y="702"/>
      <point x="178" y="704" type="curve"/>
    </contour>
    <contour>
      <point x="796" y="750" type="line"/>
      <point x="714" y="706"/>
      <point x="607" y="700"/>
      <point x="390" y="700" type="curve"/>
      <point x="384" y="681" type="line"/>
      <point x="683" y="679" type="line"/>
    </contour>
    <contour>
      <point x="588" y="22" type="line"/>
      <point x="576" y="22" type="line"/>
      <point x="812" y="732" type="line"/>
      <point x="810" y="738"/>
      <point x="801" y="746"/>
      <point x="796" y="750" type="curve"/>
      <point x="652" y="687" type="line"/>
      <point x="652" y="679" type="line"/>
      <point x="705" y="701" type="line"/>
      <point x="477" y="-7" type="line"/>
      <point x="579" y="0" type="line"/>
    </contour>
    <contour>
      <point x="579" y="22" type="curve"/>
      <point x="585" y="16" type="line"/>
      <point x="588" y="22" type="line" smooth="yes"/>
      <point x="665" y="190"/>
      <point x="809" y="419"/>
      <point x="850" y="436" type="curve"/>
      <point x="868" y="430"/>
      <point x="876" y="421"/>
      <point x="876" y="404" type="curve" smooth="yes"/>
      <point x="876" y="369"/>
      <point x="775" y="89"/>
      <point x="775" y="31" type="curve"/>
      <point x="790" y="8"/>
      <point x="808" y="-9"/>
      <point x="833" y="-19" type="curve"/>
      <point x="975" y="54" type="line"/>
      <point x="971" y="60" type="line"/>
      <point x="861" y="7" type="line"/>
      <point x="863" y="39"/>
      <point x="978" y="338"/>
      <point x="978" y="398" type="curve" smooth="yes"/>
      <point x="978" y="444"/>
      <point x="950" y="484"/>
      <point x="890" y="485" type="curve"/>
      <point x="823" y="479"/>
      <point x="656" y="196"/>
    </contour>
  </outline>
</glyph>
<glyph name="T_i.dlig" format="2">
  <advance width="823"/>
  <outline>
    <contour>
      <point x="570" y="41" type="line"/>
      <point x="588" y="11"/>
      <point x="600" y="-2"/>
      <point x="624" y="-20" type="curve"/>
      <point x="754" y="54" type="line"/>
      <point x="751" y="60" type="line"/>
      <point x="648" y="8" type="line"/>
      <point x="786" y="473" type="line"/>
      <point x="775" y="475" type="line"/>
      <point x="602" y="418" type="line"/>
      <point x="604" y="412" type="line"/>
      <point x="688" y="437" type="line"/>
    </contour>
    <component base="T.004"/>
  </outline>
</glyph>
<glyph name="Z.001" format="2">
  <advance width="600"/>
  <outline>
    <contour>
      <point x="85" y="466" type="line"/>
      <point x="108" y="466" type="line"/>
      <point x="276" y="700" type="line"/>
      <point x="178" y="725" type="line"/>
    </contour>
    <contour>
      <point x="50" y="59" type="line"/>
      <point x="329" y="-28" type="line"/>
      <point x="334" y="-31" type="line"/>
      <point x="414" y="17" type="line"/>
      <point x="582" y="127" type="line"/>
      <point x="574" y="142" type="line"/>
      <point x="396" y="32" type="line"/>
      <point x="265" y="32"/>
      <point x="275" y="138"/>
      <point x="120" y="138" type="curve"/>
    </contour>
    <contour>
      <point x="-37" y="-4" type="curve"/>
      <point x="-24" y="-6"/>
      <point x="-3" y="-6"/>
      <point x="11" y="-3" type="curve"/>
      <point x="114" y="120"/>
      <point x="136" y="156"/>
      <point x="222" y="240" type="curve"/>
      <point x="305" y="240"/>
      <point x="644" y="546"/>
      <point x="644" y="708" type="curve"/>
      <point x="641" y="711"/>
      <point x="594" y="748"/>
      <point x="588" y="749" type="curve"/>
      <point x="518" y="666" type="line"/>
      <point x="178" y="725" type="line"/>
      <point x="180" y="693" type="line"/>
      <point x="281" y="702"/>
      <point x="477" y="653"/>
      <point x="498" y="648" type="curve"/>
      <point x="498" y="584"/>
      <point x="242" y="289"/>
      <point x="39" y="65" type="curve"/>
      <point x="18" y="40"/>
      <point x="-12" y="14"/>
    </contour>
  </outline>
</glyph>
<glyph name="_corner.rightSerif.cap" format="2">
  <advance width="100"/>
  <outline>
    <contour>
      <point x="-20" y="0" type="move"/>
      <point x="84" y="0" type="line"/>
      <point x="84" y="10" type="line"/>
      <point x="0" y="20" type="line"/>
    </contour>
  </outline>
</glyph>
<glyph name="_corner.rightSerif" format="2">
  <advance width="100"/>
  <outline>
    <contour>
      <point x="-20" y="0" type="move"/>
      <point x="76" y="0" type="line"/>
      <point x="76" y="8" type="line"/>
      <point x="0" y="16" type="line"/>
    </contour>
  </outline>
</glyph>
<glyph name="acutecomb.case" format="2">
  <advance width="400"/>
  <anchor x="216" y="520" name="_top"/>
  <outline>
    <contour>
      <point x="191" y="568" type="line"/>
      <point x="374" y="700" type="line"/>
      <point x="366" y="712" type="line"/>
      <point x="272" y="704" type="line"/>
      <point x="184" y="574" type="line"/>
    </contour>
  </outline>
</glyph>
<glyph name="c_t.dlig" format="2">
  <advance width="644"/>
  <outline>
    <contour>
      <point x="616" y="607" type="curve"/>
      <point x="644" y="628" type="line"/>
      <point x="603" y="628"/>
      <point x="314" y="563"/>
      <point x="314" y="474" type="curve" smooth="yes"/>
      <point x="314" y="433"/>
      <point x="367" y="437"/>
      <point x="400" y="436" type="curve"/>
      <point x="400" y="442" type="line"/>
      <point x="369" y="445"/>
      <point x="358" y="447"/>
      <point x="355" y="473" type="curve"/>
      <point x="355" y="547"/>
      <point x="541" y="607"/>
    </contour>
    <component base="c"/>
    <component base="t" xOffset="360"/>
  </outline>
</glyph>
<glyph name="caroncomb.alt" format="2">
  <advance width="400"/>
  <anchor x="200" y="470" name="_topright"/>
  <outline>
    <contour>
      <point x="284" y="568" type="line"/>
      <point x="348" y="608"/>
      <point x="396" y="676"/>
      <point x="412" y="748" type="curve"/>
      <point x="400" y="756" type="line"/>
      <point x="320" y="748" type="line"/>
      <point x="308" y="720"/>
      <point x="304" y="684"/>
      <point x="304" y="664" type="curve"/>
      <point x="360" y="660" type="line"/>
      <point x="352" y="668" type="line"/>
      <point x="346" y="640"/>
      <point x="317" y="605"/>
      <point x="278" y="578" type="curve"/>
    </contour>
  </outline>
</glyph>
<glyph name="caroncomb.case" format="2">
  <advance width="400"/>
  <anchor x="216" y="520" name="_top"/>
  <outline>
    <contour>
      <point x="208" y="568" type="line"/>
      <point x="220" y="568" type="line"/>
      <point x="361" y="723" type="line"/>
      <point x="355" y="730" type="line"/>
      <point x="224" y="648" type="line"/>
      <point x="220" y="648" type="line"/>
      <point x="117" y="730" type="line"/>
      <point x="109" y="726" type="line"/>
    </contour>
  </outline>
</glyph>
<glyph name="circumflexcomb.case" format="2">
  <advance width="400"/>
  <anchor x="216" y="520" name="_top"/>
  <outline>
    <contour>
      <point x="104" y="564" type="line"/>
      <point x="236" y="640" type="line"/>
      <point x="240" y="640" type="line"/>
      <point x="340" y="564" type="line"/>
      <point x="348" y="568" type="line"/>
      <point x="256" y="722" type="line"/>
      <point x="244" y="722" type="line"/>
      <point x="98" y="571" type="line"/>
    </contour>
  </outline>
</glyph>
<glyph name="f_b.liga" format="2">
  <advance width="778"/>
  <outline>
    <contour>
      <point x="-42" y="-205" type="curve"/>
      <point x="13" y="-141"/>
      <point x="102" y="-29"/>
      <point x="113" y="-6" type="curve"/>
      <point x="134" y="67"/>
      <point x="193" y="273"/>
      <point x="244" y="446" type="curve"/>
      <point x="352" y="444" type="line"/>
      <point x="391" y="454" type="line"/>
      <point x="394" y="465" type="line"/>
      <point x="249" y="459" type="line"/>
      <point x="309" y="658" type="line"/>
      <point x="309" y="663"/>
      <point x="370" y="685"/>
      <point x="412" y="685" type="curve" smooth="yes"/>
      <point x="471" y="685"/>
      <point x="498" y="679"/>
      <point x="519" y="664" type="curve"/>
      <point x="627" y="727" type="line"/>
      <point x="580" y="754"/>
      <point x="476" y="762"/>
      <point x="442" y="762" type="curve"/>
      <point x="373" y="750"/>
      <point x="188" y="569"/>
      <point x="169" y="502" type="curve" smooth="yes"/>
      <point x="158" y="463" type="line"/>
      <point x="89" y="462" type="line"/>
      <point x="94" y="438" type="line"/>
      <point x="152" y="445" type="line"/>
      <point x="62" y="124" type="line"/>
      <point x="51" y="76"/>
      <point x="-11" y="-146"/>
      <point x="-46" y="-199" type="curve"/>
      <point x="-63" y="-218"/>
      <point x="-80" y="-221"/>
      <point x="-104" y="-221" type="curve" smooth="yes"/>
      <point x="-126" y="-221"/>
      <point x="-184" y="-187"/>
      <point x="-213" y="-169" type="curve"/>
      <point x="-305" y="-201" type="line"/>
      <point x="-252" y="-235"/>
      <point x="-195" y="-275"/>
      <point x="-139" y="-275" type="curve"/>
      <point x="-107" y="-255"/>
      <point x="-73" y="-231"/>
    </contour>
    <contour>
      <point x="279" y="37" type="line"/>
      <point x="313" y="20"/>
      <point x="413" y="-19"/>
      <point x="451" y="-14" type="curve"/>
      <point x="523" y="-10"/>
      <point x="767" y="188"/>
      <point x="767" y="351" type="curve" smooth="yes"/>
      <point x="767" y="403"/>
      <point x="737" y="471"/>
      <point x="680" y="483" type="curve"/>
      <point x="633" y="425"/>
      <point x="442" y="153"/>
      <point x="411" y="75" type="curve"/>
      <point x="409" y="75" type="line"/>
      <point x="633" y="721" type="line"/>
      <point x="627" y="727" type="line"/>
      <point x="529" y="693" type="line"/>
      <point x="327" y="73" type="line"/>
      <point x="286" y="60" type="line"/>
    </contour>
    <contour>
      <point x="417" y="55" type="curve"/>
      <point x="421" y="75" type="line"/>
      <point x="450" y="148"/>
      <point x="636" y="401"/>
      <point x="644" y="404" type="curve"/>
      <point x="664" y="401"/>
      <point x="670" y="376"/>
      <point x="670" y="342" type="curve" smooth="yes"/>
      <point x="670" y="257"/>
      <point x="564" y="29"/>
      <point x="516" y="29" type="curve"/>
      <point x="479" y="25"/>
      <point x="445" y="39"/>
    </contour>
  </outline>
</glyph>
<glyph name="f_f.liga" format="2">
  <advance width="707"/>
  <outline>
    <contour>
      <point x="-42" y="-205" type="curve"/>
      <point x="13" y="-141"/>
      <point x="102" y="-29"/>
      <point x="113" y="-6" type="curve"/>
      <point x="134" y="67"/>
      <point x="193" y="273"/>
      <point x="244" y="446" type="curve"/>
      <point x="452" y="445" type="line"/>
      <point x="391" y="454" type="line"/>
      <point x="458" y="463" type="line"/>
      <point x="249" y="459" type="line"/>
      <point x="309" y="658" type="line"/>
      <point x="309" y="663"/>
      <point x="370" y="685"/>
      <point x="412" y="685" type="curve" smooth="yes"/>
      <point x="471" y="685"/>
      <point x="498" y="679"/>
      <point x="519" y="664" type="curve"/>
      <point x="627" y="727" type="line"/>
      <point x="580" y="754"/>
      <point x="476" y="762"/>
      <point x="442" y="762" type="curve"/>
      <point x="373" y="750"/>
      <point x="188" y="569"/>
      <point x="169" y="502" type="curve" smooth="yes"/>
      <point x="158" y="463" type="line"/>
      <point x="89" y="462" type="line"/>
      <point x="94" y="438" type="line"/>
      <point x="152" y="445" type="line"/>
      <point x="62" y="124" type="line"/>
      <point x="51" y="76"/>
      <point x="-11" y="-146"/>
      <point x="-46" y="-199" type="curve"/>
      <point x="-63" y="-218"/>
      <point x="-80" y="-221"/>
      <point x="-104" y="-221" type="curve" smooth="yes"/>
      <point x="-126" y="-221"/>
      <point x="-184" y="-187"/>
      <point x="-213" y="-169" type="curve"/>
      <point x="-305" y="-201" type="line"/>
      <point x="-252" y="-235"/>
      <point x="-195" y="-275"/>
      <point x="-139" y="-275" type="curve"/>
      <point x="-107" y="-255"/>
      <point x="-73" y="-231"/>
    </contour>
    <contour>
      <point x="258" y="-205" type="curve"/>
      <point x="313" y="-141"/>
      <point x="402" y="-29"/>
      <point x="413" y="-6" type="curve"/>
      <point x="434" y="67"/>
      <point x="493" y="273"/>
      <point x="544" y="446" type="curve"/>
      <point x="652" y="444" type="line"/>
      <point x="691" y="454" type="line"/>
      <point x="694" y="465" type="line"/>
      <point x="549" y="459" type="line"/>
      <point x="609" y="658" type="line"/>
      <point x="609" y="663"/>
      <point x="670" y="685"/>
      <point x="712" y="685" type="curve" smooth="yes"/>
      <point x="771" y="685"/>
      <point x="798" y="679"/>
      <point x="819" y="664" type="curve"/>
      <point x="927" y="727" type="line"/>
      <point x="880" y="754"/>
      <point x="776" y="762"/>
      <point x="742" y="762" type="curve"/>
      <point x="673" y="750"/>
      <point x="488" y="569"/>
      <point x="469" y="502" type="curve" smooth="yes"/>
      <point x="458" y="463" type="line"/>
      <point x="389" y="462" type="line"/>
      <point x="230" y="446" type="line"/>
      <point x="452" y="445" type="line"/>
      <point x="362" y="124" type="line"/>
      <point x="351" y="76"/>
      <point x="289" y="-146"/>
      <point x="254" y="-199" type="curve"/>
      <point x="237" y="-218"/>
      <point x="220" y="-221"/>
      <point x="196" y="-221" type="curve" smooth="yes"/>
      <point x="174" y="-221"/>
      <point x="116" y="-187"/>
      <point x="87" y="-169" type="curve"/>
      <point x="-5" y="-201" type="line"/>
      <point x="48" y="-235"/>
      <point x="105" y="-275"/>
      <point x="161" y="-275" type="curve"/>
      <point x="193" y="-255"/>
      <point x="227" y="-231"/>
    </contour>
  </outline>
</glyph>
<glyph name="f_h.liga" format="2">
  <advance width="806"/>
  <outline>
    <contour>
      <point x="301" y="0" type="line"/>
      <point x="403" y="0" type="line"/>
      <point x="412" y="22" type="line"/>
      <point x="489" y="190"/>
      <point x="593" y="419"/>
      <point x="634" y="436" type="curve"/>
      <point x="652" y="430"/>
      <point x="660" y="421"/>
      <point x="660" y="404" type="curve" smooth="yes"/>
      <point x="660" y="369"/>
      <point x="549" y="89"/>
      <point x="549" y="31" type="curve"/>
      <point x="564" y="8"/>
      <point x="582" y="-5"/>
      <point x="596" y="-12" type="curve"/>
      <point x="641" y="4" type="line"/>
      <point x="641" y="6"/>
      <point x="762" y="338"/>
      <point x="762" y="398" type="curve" smooth="yes"/>
      <point x="762" y="444"/>
      <point x="734" y="484"/>
      <point x="674" y="485" type="curve"/>
      <point x="607" y="479"/>
      <point x="480" y="196"/>
      <point x="403" y="22" type="curve"/>
      <point x="400" y="22" type="line"/>
      <point x="627" y="727" type="line"/>
      <point x="613" y="729" type="line"/>
      <point x="537" y="724" type="line"/>
    </contour>
    <contour>
      <point x="-42" y="-205" type="curve"/>
      <point x="13" y="-141"/>
      <point x="102" y="-29"/>
      <point x="113" y="-6" type="curve"/>
      <point x="134" y="67"/>
      <point x="193" y="273"/>
      <point x="244" y="446" type="curve"/>
      <point x="352" y="444" type="line"/>
      <point x="391" y="454" type="line"/>
      <point x="394" y="465" type="line"/>
      <point x="249" y="459" type="line"/>
      <point x="309" y="658" type="line"/>
      <point x="309" y="663"/>
      <point x="370" y="685"/>
      <point x="412" y="685" type="curve" smooth="yes"/>
      <point x="471" y="685"/>
      <point x="498" y="679"/>
      <point x="519" y="664" type="curve"/>
      <point x="627" y="727" type="line"/>
      <point x="580" y="754"/>
      <point x="476" y="762"/>
      <point x="442" y="762" type="curve"/>
      <point x="373" y="750"/>
      <point x="188" y="569"/>
      <point x="169" y="502" type="curve" smooth="yes"/>
      <point x="158" y="463" type="line"/>
      <point x="89" y="462" type="line"/>
      <point x="94" y="438" type="line"/>
      <point x="152" y="445" type="line"/>
      <point x="62" y="124" type="line"/>
      <point x="51" y="76"/>
      <point x="-11" y="-146"/>
      <point x="-46" y="-199" type="curve"/>
      <point x="-63" y="-218"/>
      <point x="-80" y="-221"/>
      <point x="-104" y="-221" type="curve" smooth="yes"/>
      <point x="-126" y="-221"/>
      <point x="-184" y="-187"/>
      <point x="-213" y="-169" type="curve"/>
      <point x="-305" y="-201" type="line"/>
      <point x="-252" y="-235"/>
      <point x="-195" y="-275"/>
      <point x="-139" y="-275" type="curve"/>
      <point x="-107" y="-255"/>
      <point x="-73" y="-231"/>
    </contour>
  </outline>
</glyph>
<glyph name="f_i.liga" format="2">
  <advance width="550"/>
  <outline>
    <contour>
      <point x="-42" y="-205" type="curve"/>
      <point x="13" y="-141"/>
      <point x="102" y="-29"/>
      <point x="113" y="-6" type="curve"/>
      <point x="134" y="67"/>
      <point x="193" y="273"/>
      <point x="244" y="446" type="curve"/>
      <point x="452" y="445" type="line"/>
      <point x="478" y="464" type="line"/>
      <point x="249" y="459" type="line"/>
      <point x="309" y="658" type="line"/>
      <point x="309" y="663"/>
      <point x="370" y="685"/>
      <point x="412" y="685" type="curve" smooth="yes"/>
      <point x="471" y="685"/>
      <point x="498" y="679"/>
      <point x="519" y="664" type="curve"/>
      <point x="627" y="727" type="line"/>
      <point x="580" y="754"/>
      <point x="476" y="762"/>
      <point x="442" y="762" type="curve"/>
      <point x="373" y="750"/>
      <point x="188" y="569"/>
      <point x="169" y="502" type="curve" smooth="yes"/>
      <point x="158" y="463" type="line"/>
      <point x="89" y="462" type="line"/>
      <point x="94" y="438" type="line"/>
      <point x="152" y="445" type="line"/>
      <point x="62" y="124" type="line"/>
      <point x="51" y="76"/>
      <point x="-11" y="-146"/>
      <point x="-46" y="-199" type="curve"/>
      <point x="-63" y="-218"/>
      <point x="-80" y="-221"/>
      <point x="-104" y="-221" type="curve" smooth="yes"/>
      <point x="-126" y="-221"/>
      <point x="-184" y="-187"/>
      <point x="-213" y="-169" type="curve"/>
      <point x="-305" y="-201" type="line"/>
      <point x="-252" y="-235"/>
      <point x="-195" y="-275"/>
      <point x="-139" y="-275" type="curve"/>
      <point x="-107" y="-255"/>
      <point x="-73" y="-231"/>
    </contour>
    <contour>
      <point x="278" y="46" type="line"/>
      <point x="296" y="16"/>
      <point x="308" y="6"/>
      <point x="332" y="-12" type="curve"/>
      <point x="353" y="4" type="line"/>
      <point x="489" y="462" type="line"/>
      <point x="478" y="464" type="line"/>
      <point x="400" y="448" type="line"/>
    </contour>
  </outline>
</glyph>
<glyph name="f_l.liga" format="2">
  <advance width="599"/>
  <anchor x="359" y="0" name="bottom"/>
  <anchor x="474" y="375" name="center"/>
  <anchor x="588" y="750" name="top"/>
  <anchor x="763" y="700" name="topright"/>
  <outline>
    <contour>
      <point x="-42" y="-205" type="curve"/>
      <point x="13" y="-141"/>
      <point x="102" y="-29"/>
      <point x="113" y="-6" type="curve"/>
      <point x="134" y="67"/>
      <point x="193" y="273"/>
      <point x="244" y="446" type="curve"/>
      <point x="392" y="445" type="line"/>
      <point x="420" y="449" type="line"/>
      <point x="428" y="464" type="line"/>
      <point x="249" y="459" type="line"/>
      <point x="309" y="658" type="line"/>
      <point x="309" y="663"/>
      <point x="370" y="685"/>
      <point x="412" y="685" type="curve" smooth="yes"/>
      <point x="471" y="685"/>
      <point x="498" y="679"/>
      <point x="519" y="664" type="curve"/>
      <point x="631" y="718" type="line"/>
      <point x="583" y="756"/>
      <point x="476" y="762"/>
      <point x="442" y="762" type="curve"/>
      <point x="373" y="750"/>
      <point x="188" y="569"/>
      <point x="169" y="502" type="curve" smooth="yes"/>
      <point x="158" y="463" type="line"/>
      <point x="89" y="462" type="line"/>
      <point x="94" y="438" type="line"/>
      <point x="152" y="445" type="line"/>
      <point x="62" y="124" type="line"/>
      <point x="51" y="76"/>
      <point x="-11" y="-146"/>
      <point x="-46" y="-199" type="curve"/>
      <point x="-63" y="-218"/>
      <point x="-80" y="-221"/>
      <point x="-104" y="-221" type="curve" smooth="yes"/>
      <point x="-126" y="-221"/>
      <point x="-184" y="-187"/>
      <point x="-213" y="-169" type="curve"/>
      <point x="-305" y="-201" type="line"/>
      <point x="-252" y="-235"/>
      <point x="-195" y="-275"/>
      <point x="-139" y="-275" type="curve"/>
      <point x="-107" y="-255"/>
      <point x="-73" y="-231"/>
    </contour>
    <contour>
      <point x="328" y="46" type="line"/>
      <point x="339" y="24"/>
      <point x="369" y="-8"/>
      <point x="381" y="-12" type="curve"/>
      <point x="412" y="2" type="line"/>
      <point x="631" y="718" type="line"/>
      <point x="614" y="722" type="line"/>
      <point x="537" y="724" type="line"/>
    </contour>
  </outline>
</glyph>
<glyph name="f_t.liga" format="2">
  <advance width="615"/>
  <outline>
    <contour>
      <point x="270" y="459" type="line"/>
      <point x="265" y="446" type="line"/>
      <point x="448" y="452" type="line"/>
      <point x="354" y="467" type="line"/>
    </contour>
    <contour>
      <point x="318" y="107" type="line"/>
      <point x="303" y="33"/>
      <point x="328" y="-7"/>
      <point x="403" y="-13" type="curve"/>
      <point x="462" y="18"/>
      <point x="484" y="38"/>
      <point x="548" y="80" type="curve"/>
      <point x="544" y="86" type="line"/>
      <point x="487" y="53"/>
      <point x="467" y="38"/>
      <point x="445" y="30" type="curve"/>
      <point x="418" y="27"/>
      <point x="394" y="51"/>
      <point x="411" y="117" type="curve"/>
      <point x="518" y="446" type="line"/>
      <point x="605" y="449" type="line"/>
      <point x="644" y="452" type="line"/>
      <point x="648" y="472" type="line"/>
      <point x="526" y="471" type="line"/>
      <point x="561" y="594" type="line"/>
      <point x="550" y="595" type="line"/>
      <point x="465" y="534" type="line"/>
      <point x="434" y="470" type="line"/>
      <point x="397" y="470" type="line"/>
      <point x="353" y="467" type="line"/>
      <point x="368" y="452" type="line"/>
      <point x="426" y="450" type="line"/>
    </contour>
    <contour>
      <point x="-46" y="-200" type="curve"/>
      <point x="-42" y="-205" type="line"/>
      <point x="13" y="-141"/>
      <point x="102" y="-29"/>
      <point x="113" y="-6" type="curve"/>
      <point x="134" y="67"/>
      <point x="193" y="273"/>
      <point x="244" y="446" type="curve"/>
      <point x="463" y="449" type="line"/>
      <point x="391" y="454" type="line"/>
      <point x="394" y="465" type="line"/>
      <point x="249" y="459" type="line"/>
      <point x="309" y="658" type="line"/>
      <point x="309" y="663"/>
      <point x="370" y="685"/>
      <point x="412" y="685" type="curve" smooth="yes"/>
      <point x="428" y="685"/>
      <point x="444" y="684"/>
      <point x="457" y="681" type="curve"/>
      <point x="528" y="735" type="line"/>
      <point x="509" y="756"/>
      <point x="476" y="762"/>
      <point x="442" y="762" type="curve"/>
      <point x="373" y="750"/>
      <point x="188" y="569"/>
      <point x="169" y="502" type="curve" smooth="yes"/>
      <point x="158" y="463" type="line"/>
      <point x="89" y="462" type="line"/>
      <point x="94" y="438" type="line"/>
      <point x="152" y="445" type="line"/>
      <point x="62" y="124" type="line"/>
      <point x="51" y="76"/>
      <point x="-11" y="-147"/>
    </contour>
    <contour>
      <point x="-42" y="-205" type="curve"/>
      <point x="-46" y="-199" type="line"/>
      <point x="-63" y="-218"/>
      <point x="-80" y="-221"/>
      <point x="-104" y="-221" type="curve" smooth="yes"/>
      <point x="-126" y="-221"/>
      <point x="-184" y="-187"/>
      <point x="-213" y="-169" type="curve"/>
      <point x="-305" y="-201" type="line"/>
      <point x="-252" y="-235"/>
      <point x="-195" y="-275"/>
      <point x="-139" y="-275" type="curve"/>
      <point x="-107" y="-255"/>
      <point x="-73" y="-231"/>
    </contour>
  </outline>
</glyph>
<glyph name="gravecomb.case" format="2">
  <advance width="400"/>
  <anchor x="216" y="520" name="_top"/>
  <outline>
    <contour>
      <point x="256" y="568" type="line"/>
      <point x="264" y="571" type="line"/>
      <point x="232" y="708" type="line"/>
      <point x="148" y="714" type="line"/>
      <point x="140" y="702" type="line"/>
    </contour>
  </outline>
</glyph>
